<?xml version="1.0" encoding="UTF-8"?>
<svg width="229px" height="199px" viewBox="0 0 229 199" version="1.1" xmlns="http://www.w3.org/2000/svg" xmlns:xlink="http://www.w3.org/1999/xlink">
    <!-- Generator: Sketch 55.2 (78181) - https://sketchapp.com -->
    <title>invoice-scan-01</title>
    <desc>Created with Sketch.</desc>
    <defs>
        <path d="M219.908066,85.773487 L188.846018,29.9215675 C174.248799,3.67672872 140.801902,-7.00780603 110.055751,4.75485771 L104.275877,6.96640436 C58.4430399,24.4998226 22.4064815,61.0767309 7.17052598,105.532274 L3.36934773,116.624563 C-6.38527407,145.087859 5.59451235,174.625829 32.140275,187.559922 L32.140275,187.559922 C57.7001612,200.013694 88.0540449,202.398017 117.081855,194.229117 L175.39436,177.822205 C177.379998,177.262407 179.348279,176.619677 181.285318,175.890557 C219.772682,161.42566 238.143308,118.563122 219.908066,85.773487 Z" id="path-1"></path>
        <linearGradient x1="33.8125691%" y1="49.7169192%" x2="66.3343866%" y2="50.2608392%" id="linearGradient-3">
            <stop stop-color="#92DDF9" offset="0%"></stop>
            <stop stop-color="#4AC6F6" offset="100%"></stop>
        </linearGradient>
        <linearGradient x1="16.0723501%" y1="49.6123104%" x2="84.0997096%" y2="50.3943178%" id="linearGradient-4">
            <stop stop-color="#92DDF9" offset="0%"></stop>
            <stop stop-color="#4AC6F6" offset="100%"></stop>
        </linearGradient>
        <linearGradient x1="0.160056192%" y1="49.8491928%" x2="99.8234279%" y2="50.4466846%" id="linearGradient-5">
            <stop stop-color="#92DDF9" offset="0%"></stop>
            <stop stop-color="#4AC6F6" offset="100%"></stop>
        </linearGradient>
        <linearGradient x1="0.358648055%" y1="49.5929709%" x2="100.020371%" y2="50.4758253%" id="linearGradient-6">
            <stop stop-color="#92DDF9" offset="0%"></stop>
            <stop stop-color="#4AC6F6" offset="100%"></stop>
        </linearGradient>
        <linearGradient x1="0.0152318846%" y1="49.7452662%" x2="99.7249243%" y2="50.5619168%" id="linearGradient-7">
            <stop stop-color="#92DDF9" offset="0%"></stop>
            <stop stop-color="#4AC6F6" offset="100%"></stop>
        </linearGradient>
        <linearGradient x1="-17.9952043%" y1="80.4911924%" x2="61.8857049%" y2="50.4877315%" id="linearGradient-8">
            <stop stop-color="#E56C8B" offset="0%"></stop>
            <stop stop-color="#E56C8B" stop-opacity="0" offset="100%"></stop>
        </linearGradient>
    </defs>
    <g id="DS-Pillar" stroke="none" stroke-width="1" fill="none" fill-rule="evenodd">
        <g id="Home" transform="translate(-460.000000, -20999.000000)">
            <g id="invoice-scan-01" transform="translate(460.000000, 20999.000000)">
                <g id="Group">
                    <mask id="mask-2" fill="white">
                        <use xlink:href="#path-1"></use>
                    </mask>
                    <use id="Mask" fill="#E5E6E6" xlink:href="#path-1"></use>
                    <g mask="url(#mask-2)" fill-rule="nonzero" id="Path">
                        <g transform="translate(-2.000000, 83.000000)">
                            <path d="M70.8507692,33.7222591 C72.63,34.7726246 74.4784615,36.3550831 76.4896154,39.150299 L77.3411538,50.6006645 C77.3965385,51.3607973 77.1923077,52.1209302 76.7388462,52.7324917 C75.6865385,54.1560133 74.4438462,54.1318272 73.1215385,53.5064452 C72.9,53.4027907 72.6923077,53.271495 72.5053846,53.1160133 C70.1376923,51.1362126 68.0573077,45.9500332 65.8765385,41.8625914 L70.8507692,33.7222591 Z" fill="url(#linearGradient-3)"></path>
                            <path d="M50.2476923,89.4538206 L60.3069231,86.8209967 L72.1003846,34.9764784 L72.8965385,32.70299 C59.5938462,33.186711 51.5180769,32.8653821 43.6257692,30.5918937 L41.4484615,45.1899003 L38.3953846,87.3427243 L50.2476923,89.4538206 Z" fill="#237ECA"></path>
                            <path d="M39.4061538,94.5847176 C39.7592308,95.403588 40.3892308,96.0704319 41.1888462,96.4677741 C45.3115385,98.5201329 49.2403846,98.6894352 52.8784615,96.0358804 C56.7934615,93.1888372 58.9673077,90.0688372 60.3103846,86.8244518 C53.1934615,87.9266445 46.0142308,87.9059136 38.7726923,86.620598 C38.4784615,89.5540199 38.4438462,92.3492359 39.4061538,94.5847176 Z" fill="#2769A2"></path>
                            <path d="M64.8588462,71.7150831 L65.2638462,74.2235216 C66.06,76.6490365 66.0530769,78.7981395 65.1426923,80.6362791 C63.2111538,82.9546844 60.8642308,84.5889701 58.2923077,85.8535548 C57.3853846,86.2992691 56.3226923,86.3096346 55.4192308,85.8604651 C53.7542308,85.0346844 53.4253846,83.431495 54.4846154,81.8801329 C56.0007692,79.8312292 58.0569231,77.7961462 60.1719231,75.7645183 L64.8588462,71.7150831 Z" fill="url(#linearGradient-4)"></path>
                            <path d="M67.0846154,62.907907 C67.3926923,63.2810631 67.6592308,63.9064452 67.7976923,65.2781395 C67.7180769,68.2979402 66.8042308,70.5092359 65.2846154,72.1435216 C62.1796154,74.7383389 56.4957692,75.2324252 50.8084615,75.7265116 C48.2365385,75.9545515 45.8688462,72.5304983 46.7411538,72.1677076 C46.9592308,72.0778738 54.4223077,62.3378073 54.4223077,62.3378073 L67.0846154,62.907907 Z" fill="url(#linearGradient-5)"></path>
                            <path d="M47.9803846,74.0542193 C48.8457692,72.7861794 50.13,71.8843854 51.4869231,71.2037209 C52.9234615,70.4850498 54.4569231,69.9909635 55.9834615,69.5037874 C57.5584615,69.0027907 59.1057692,68.432691 60.7015385,68.0007973 C62.4357692,67.530897 64.1907692,67.1300997 65.88,66.5150831 C66.5273077,66.2801329 67.1642308,66.0071761 67.7769231,65.6927575 C67.7838462,65.5545515 67.7907692,65.4198007 67.7942308,65.2781395 C67.6557692,63.9064452 67.3926923,63.2845183 67.0811538,62.907907 L54.4188462,62.3343522 C54.4188462,62.3343522 46.9557692,72.0744186 46.7376923,72.1642525 C46.2565385,72.3646512 46.7584615,73.494485 47.7380769,74.4273754 C47.8176923,74.30299 47.8938462,74.1751495 47.9803846,74.0542193 Z" fill="#000207" opacity="0.1"></path>
                            <path d="M72.4776923,49.0078405 L72.4465385,52.3040532 C72.9865385,53.7690365 73.4815385,55.3549502 73.8069231,57.3865781 C73.8969231,60.5687708 72.6888462,62.5278405 70.6015385,63.6645847 C69.9403846,64.0239203 69.2169231,64.2519601 68.4726923,64.3625249 L58.2819231,65.8862458 C57.7903846,65.958804 57.2815385,65.9104319 56.8246154,65.7134884 C55.7688462,65.2608638 55.5923077,64.386711 55.6961538,63.3812625 L65.2292308,51.6855814 L72.4776923,49.0078405 Z" fill="url(#linearGradient-6)"></path>
                            <path d="M57.5792308,63.8235216 C58.725,62.745515 59.9815385,61.798804 61.2346154,60.8555482 C62.775,59.6980731 64.3673077,58.6131561 66.0426923,57.6595349 C67.68,56.7266445 69.39,55.9215947 71.1588462,55.2789369 C71.8338462,55.0370764 72.5157692,54.8159468 73.2046154,54.6224585 C72.9726923,53.7932226 72.7165385,53.0330897 72.4465385,52.300598 L72.4776923,49.0043854 L65.2326923,51.6855814 L55.6996154,63.3812625 C55.6234615,64.1275748 55.6996154,64.8013289 56.1773077,65.2850498 C56.6134615,64.7633223 57.0946154,64.2761462 57.5792308,63.8235216 Z" fill="#000207" opacity="0.1"></path>
                            <path d="M0.00346153846,68.1839203 L14.7565385,62.6280399 C15.4038462,62.3378073 15.9715385,61.892093 16.4076923,61.3323588 C20.6307692,55.9457807 25.9234615,46.2368106 31.3753846,35.9059136 C32.4553846,33.85701 34.2519231,32.2676412 36.4292308,31.4798671 C37.8553846,30.9615947 39.4719231,30.5607973 41.1542308,30.1980066 L44.6261538,31.6975415 C47.0215385,34.9073754 45.4292308,38.1483056 43.065,41.392691 C42.975,42.2150166 43.2138462,43.0166113 44.145,43.7836545 C45.0692308,44.281196 46.5819231,44.6336213 48.3576923,44.9238538 C55.0765385,42.8853156 61.6707692,40.929701 67.0292308,39.7895017 C67.4653846,39.6685714 67.8842308,39.5061794 68.2857692,39.3023256 L70.2830769,38.2830565 C71.1242308,37.8546179 72.045,37.6058472 72.9865385,37.5505648 L79.3107692,37.1912292 C79.7088462,37.1670432 80.1069231,37.2015947 80.4946154,37.2914286 C84.9357692,38.3348837 87.0646154,42.733289 83.7726923,46.361196 C80.7126923,50.0201993 75.87,52.1278405 69.93,53.2818605 C68.76,53.5099003 67.6211538,53.8830565 66.5515385,54.4082392 C66.4684615,54.449701 66.3853846,54.4911628 66.3023077,54.5326246 C64.7515385,55.3100332 63.3634615,56.3811296 62.2211538,57.6837209 C56.2361538,64.5283721 50.5592308,72.7792691 46.4434615,76.5142857 C45.7892308,77.1085714 45.2007692,77.768505 44.6884615,78.4906312 C43.5807692,80.0523588 42.3934615,81.4413289 41.1403846,82.6886379 C40.5415385,83.2863787 39.87,83.9255814 39.5342308,84.70299 C38.3919231,87.3461794 37.1665385,88.6176744 34.7711538,91.0397342 C31.7665385,93.9800664 29.4438462,96.0566113 26.3665385,97.6805316 C23.4138462,99.1835216 22.9257692,99.8296346 19.0073077,100.164784 L13.0984615,103.77196 C13.1053846,103.76505 0.0103846154,67.2683056 0.00346153846,68.1839203 Z" fill="url(#linearGradient-7)"></path>
                            <path d="M38.5096154,25.7719601 C38.1011538,27.0814618 38.8038462,28.4635216 40.7838462,29.928505 C41.04,30.1185382 41.3065385,30.2878405 41.5869231,30.436412 C46.8865385,33.1970764 59.2269231,33.210897 72.8965385,32.70299 C82.2773077,31.8910299 90.0346154,29.4724252 97.0580769,26.3282392 C98.7992308,25.7028571 100.886538,22.9145515 103.382308,17.5936213 C88.5634615,23.3671761 78.8365385,31.4245847 38.5096154,25.7719601 Z" fill="#2769A2"></path>
                            <path d="M35.4530769,17.5659801 C35.5880769,19.4283056 35.3215385,21.4150166 35.8857692,23.1944186 C36.1315385,23.9752824 36.6369231,24.6524917 37.3153846,25.1085714 C37.6407692,25.3262458 38.0353846,25.5473754 38.5096154,25.768505 C54.0069231,29.0681728 69.4869231,28.9437874 84.9496154,25.6613953 C95.5211538,23.619402 100.789615,19.7150831 106.518462,15.9731561 C107.619231,14.0831894 108.013846,12.455814 107.851154,11.0392027 C100.190769,14.8813289 91.5438462,18.3779402 81.3876923,21.1869767 C80.8476923,21.3355482 80.2973077,21.4495681 79.7434615,21.5324917 C48.7696154,26.1520266 42.2861538,24.1756811 35.4530769,17.5659801 Z" fill="#237ECA"></path>
                            <path d="M39.4061538,13.5752824 C37.7273077,14.4528904 36.3046154,15.4237874 35.5534615,16.6434551 C35.2107692,17.1997342 35.2869231,17.9218605 35.7403846,18.3917608 C49.8669231,33.0692359 94.0292308,19.7738206 107.851154,11.0426578 L105.708462,9.80916944 C76.0880769,23.5122924 38.1288462,25.7166777 39.4061538,13.5752824 Z" fill="#2769A2"></path>
                            <path d="M81.0207692,0.3489701 C65.2569231,4.32584718 47.3261538,8.47202658 41.8742308,11.6438538 C40.7042308,12.3728904 39.7938462,13.0397342 39.4096154,13.5752824 C37.4296154,19.4317608 39.6519231,24.1376744 64.1734615,22.7521595 C64.98,22.7072425 65.7830769,22.6104983 66.5757692,22.4688372 C81.7303846,19.7530897 95.5142308,16.0560797 105.711923,9.80916944 L105.680769,6.57169435 C99.1419231,2.44624585 91.5092308,-0.338604651 81.0207692,0.3489701 Z" fill="#237ECA"></path>
                        </g>
                    </g>
                </g>
                <g id="Group" transform="translate(83.000000, 14.000000)" fill-rule="nonzero">
                    <path d="M93.0352133,57.8144051 L119.785735,82.1801286 C121.308009,83.5666559 123.176256,84.5196785 125.19673,84.9394212 C135.786919,87.1482315 142.384597,82.4794534 145.491422,71.7794534 C146.553555,68.118746 145.460284,64.1724759 142.70981,61.5232797 L142.70981,61.5232797 L91.5994313,40.7150482 L93.0352133,57.8144051 Z" id="Path" fill="#C8CBCC"></path>
                    <path d="M0.224881517,40.1748875 C23.8962559,39.9168489 48.3633649,2.93475884 75.3906635,0.0619292605 C77.1032227,-0.120418006 78.8296209,0.282122186 80.2550237,1.23514469 C107.341137,19.3632154 129.196161,39.1324116 142.706351,61.5232797 C108.168009,59.2766238 82.963981,113.712444 62.2887204,106.256849 L0.224881517,40.1748875 Z" id="Path" fill="#FFFFFF"></path>
                    <path d="M113.862701,60.9487138 C113.361043,60.8214148 112.925118,60.52209 112.575687,60.1436334 C111.634645,59.1321222 110.697062,58.1206109 109.756019,57.1056592 C105.196114,52.1754019 100.632749,47.2520257 96.0832227,42.3148875 C94.619763,40.7253698 95.0487678,38.5062379 96.9343128,37.9007074 C97.9653081,37.570418 98.9132701,37.7596463 99.6709479,38.5784887 C105.192654,44.5443408 110.71782,50.5067524 116.229147,56.4863666 C117.256682,57.6010932 117.395071,58.7777492 116.727346,59.8615113 C116.163412,60.7732476 114.96981,61.2205145 113.873081,60.9521543 C113.866161,60.9487138 113.862701,60.9487138 113.862701,60.9487138 Z" id="Path" fill="#4C99C9"></path>
                    <g transform="translate(46.360190, 29.244373)" fill="#B2B2B2" id="Path">
                        <path d="M1.87170616,4.65501608 C3.1414218,5.98305466 4.41459716,7.31109325 5.68085308,8.64257235 C9.42080569,12.5750804 13.1572986,16.5075884 16.8937915,20.443537 C20.4849763,24.2315434 24.0727014,28.0229904 27.6604265,31.8109968 C28.1482464,32.327074 28.6153081,32.8637942 29.1169668,33.3695498 C29.6878199,33.9441158 29.5944076,34.4945981 29.0477725,34.9865916 C28.4561611,35.5164309 27.9648815,35.0863666 27.5739336,34.6872669 C26.3872512,33.4830868 25.245545,32.2376206 24.0796209,31.0127974 C20.3016114,27.0355627 16.5132227,23.0686495 12.7421327,19.0879743 C9.13364929,15.2793248 5.53554502,11.4534727 1.93398104,7.63794212 C1.42540284,7.09778135 0.896066351,6.57826367 0.422085308,6.01057878 C0.0691943128,5.59083601 -0.0518957346,5.0644373 0.411706161,4.65157556 C0.851090047,4.25247588 1.38042654,4.20430868 1.87170616,4.65501608 Z"></path>
                        <path d="M23.7544076,21.7234084 C22.4466351,20.3472026 21.1354028,18.9744373 19.8276303,17.5982315 C16.108436,13.6863666 12.3892417,9.77450161 8.66658768,5.86263666 C7.45914692,4.59308682 6.24132701,3.33729904 5.05464455,2.05398714 C4.62563981,1.58951768 4.34886256,0.963344051 4.89549763,0.478231511 C5.39023697,0.0378456592 5.98184834,0.0481672026 6.54232227,0.639935691 C11.022654,5.38440514 15.5306635,10.104791 20.0248341,14.8354984 C21.7200948,16.6211254 23.4015166,18.4205145 25.1036967,20.1992605 C25.5776777,20.6946945 25.7990995,21.2554984 25.3112796,21.7715756 C24.8649763,22.2394855 24.2733649,22.1465916 23.7544076,21.7234084 Z"></path>
                    </g>
                    <g transform="translate(79.919431, 37.157556)" id="Path">
                        <path d="M17.6514692,25.5320579 C16.8591943,24.603119 16.0876777,23.6982637 15.3161611,22.7934084 C15.2435071,22.7073955 15.1846919,22.6007395 15.0981991,22.5284887 C14.6830332,22.1809968 14.7107109,21.9401608 15.1570142,21.5823473 C16.693128,20.3472026 18.1911848,19.0673312 19.6823223,17.7840193 C20.0006161,17.5122186 20.159763,17.5190997 20.4296209,17.8562701 C21.2045972,18.8196141 22.0107109,19.7554341 22.8341232,20.677492 C23.1351185,21.0146624 23.1766351,21.2142122 22.7891469,21.5307395 C21.2288152,22.8071704 19.6996209,24.1180064 18.153128,25.4116399 C18.0043602,25.5354984 17.8521327,25.7350482 17.6514692,25.5320579 Z" fill="#434244"></path>
                        <path d="M5.28990521,10.466045 C6.922891,9.09327974 8.54895735,7.7273955 10.171564,6.35118971 C10.3791469,6.17572347 10.5036967,6.18604502 10.6766825,6.39247588 C11.351327,7.20099678 12.032891,7.99919614 12.7213744,8.79395498 C12.9047393,9.00382637 12.8424645,9.11736334 12.6452607,9.28250804 C11.0295735,10.6311897 9.4242654,11.9901929 7.82241706,13.3526367 C7.60445498,13.5384244 7.44184834,13.5384244 7.25156398,13.30791 C6.59767773,12.5165916 5.93687204,11.7287138 5.26222749,10.9511576 C5.08578199,10.7481672 5.03734597,10.6071061 5.28990521,10.466045 Z" fill="#434244"></path>
                        <path d="M29.6601422,29.2822186 C28.0098578,30.6653055 26.3941706,32.0139871 24.7819431,33.3729904 C24.6020379,33.524373 24.4809479,33.6035048 24.2872038,33.3626688 C23.712891,32.6504823 23.1247393,31.9486174 22.5158294,31.2673955 C22.2805687,31.0024759 22.3463033,30.8854984 22.5919431,30.682508 C24.1764929,29.364791 25.7541232,28.0367524 27.3179147,26.6949518 C27.6016114,26.4506752 27.7780569,26.4988424 27.9925592,26.756881 C28.5495735,27.4243408 29.1065877,28.0918006 29.6809005,28.7454984 C29.8884834,28.9760129 29.8469668,29.1411576 29.6601422,29.2822186 Z" fill="#434244"></path>
                        <path d="M2.02739336,7.14594855 C1.40118483,6.40279743 0.823412322,5.69405145 0.217962085,5.00938907 C0.0172985782,4.78231511 0.0311374408,4.65501608 0.259478673,4.46578778 C1.87516588,3.11710611 3.48393365,1.75810289 5.08924171,0.395659164 C5.32104265,0.199549839 5.48364929,0.258038585 5.66009479,0.467909968 C6.23094787,1.15257235 6.80526066,1.83379421 7.39341232,2.50469453 C7.60791469,2.74897106 7.51796209,2.9003537 7.31729858,3.06893891 C5.70507109,4.42106109 4.09630332,5.78006431 2.48407583,7.1321865 C2.31454976,7.26980707 2.13464455,7.42118971 2.02739336,7.14594855 Z" fill="#434244"></path>
                        <path d="M24.8027014,23.0204823 C25.2074882,23.4918328 25.5638389,23.9115756 25.9236493,24.3244373 C26.1208531,24.5480707 25.9893839,24.6822508 25.8163981,24.8267524 C24.2041706,26.1788746 22.5954028,27.5344373 20.9900948,28.8934405 C20.768673,29.0792283 20.6406635,29.0585852 20.44,28.8349518 C19.1495261,27.4140193 19.1460664,27.4277814 20.6199052,26.2098392 C21.8550237,25.1880064 23.079763,24.1592926 24.3045024,23.1271383 C24.4809479,22.9688746 24.6366351,22.7727653 24.8027014,23.0204823 Z" fill="#434244"></path>
                        <path d="M15.9458294,12.9741801 C14.9355924,13.8308682 13.9253555,14.6875563 12.9116588,15.5408039 C12.2819905,16.0706431 11.6419431,16.5867203 11.022654,17.126881 C10.8012322,17.3195498 10.6870616,17.3126688 10.4725592,17.0890354 C9.52805687,16.1188103 9.51421801,16.1256913 10.548673,15.2483601 C11.8910427,14.1129904 13.2507109,12.9982637 14.5792417,11.8456913 C14.9148341,11.5532476 15.1120379,11.4878778 15.3680569,11.9041801 C15.5202844,12.1518971 15.7451659,12.3617685 15.9458294,12.5785209 C16.0738389,12.719582 16.1222749,12.846881 15.9458294,12.9741801 Z" fill="#464547"></path>
                        <path d="M12.482654,19.4595498 C12.3165877,19.26 12.0605687,18.9365916 11.7907109,18.6269453 C11.6004265,18.4101929 11.7664929,18.3138585 11.9083412,18.1934405 C13.517109,16.8378778 15.1258768,15.4823151 16.7311848,14.1198714 C16.9456872,13.9409646 17.094455,13.9409646 17.3020379,14.157717 C18.2569194,15.1348232 18.2603791,15.1245016 17.191327,16.0155949 C15.8385782,17.1440836 14.4962085,18.2828939 13.1434597,19.4079421 C12.9981517,19.5283601 12.8701422,19.8517685 12.482654,19.4595498 Z" fill="#464547"></path>
                        <path d="M3.90947867,9.36508039 C3.87488152,9.32723473 3.85758294,9.31003215 3.84374408,9.29282958 C2.92345972,8.34324759 2.92691943,8.35012862 3.95791469,7.49 C5.28990521,6.37527331 6.62535545,5.26398714 7.93658768,4.12517685 C8.3171564,3.79144695 8.53511848,3.80864952 8.84649289,4.21118971 C9.51767773,5.06787781 9.54535545,5.05755627 8.70464455,5.76974277 C7.32767773,6.93607717 5.94725118,8.09897106 4.56336493,9.26186495 C4.36270142,9.43045016 4.16203791,9.7022508 3.90947867,9.36508039 Z" fill="#464547"></path>
                        <path d="M8.25834123,14.0992283 C9.96052133,12.6679743 11.5900474,11.30209 13.2091943,9.92588424 C13.5586256,9.63 13.6900948,9.93620579 13.8527014,10.1185531 C14.0187678,10.3077814 14.2678673,10.4763666 13.9115166,10.7722508 C12.28891,12.1106109 10.6870616,13.4764952 9.08521327,14.8389389 C8.8257346,15.0591318 8.62161137,15.0178457 8.48322275,14.7426045 C8.37597156,14.5327331 7.89161137,14.3744695 8.25834123,14.0992283 Z" fill="#464547"></path>
                        <path d="M21.7235545,30.3178135 C21.29109,29.9944051 21.2495735,29.719164 21.7581517,29.3131833 C23.2942654,28.0814791 24.8027014,26.8119293 26.2869194,25.5148553 C26.6674882,25.1811254 26.7954976,25.3703537 27.034218,25.6283923 C27.2833175,25.8967524 27.3525118,26.0825402 27.0272986,26.3474598 C25.4358294,27.6582958 23.8616588,28.9897749 22.277109,30.3109325 C22.1110427,30.4485531 21.9449763,30.7031511 21.7235545,30.3178135 Z" fill="#464547"></path>
                        <path d="M18.9765403,16.7449839 C17.3643128,18.0936656 15.7244076,19.4526688 14.1018009,20.8357556 C13.7143128,21.166045 13.6485782,20.7944695 13.4894313,20.6224437 C13.3164455,20.4332154 13.0396682,20.2921543 13.4167773,19.982508 C15.0428436,18.6441479 16.6550711,17.2851447 18.2534597,15.9123794 C18.602891,15.6096141 18.7205213,15.8676527 18.8969668,16.0672026 C19.0699526,16.2598714 19.3501896,16.4456592 18.9765403,16.7449839 Z" fill="#464547"></path>
                    </g>
                    <g transform="translate(53.971564, 5.848875)">
                        <path d="M13.0223697,26.1375884 C12.859763,26.2580064 12.6729384,26.3543408 12.5345498,26.4988424 C12.2266351,26.8188103 11.9498578,26.7981672 11.7457346,26.4265916 C11.4862559,25.9518006 11.2129384,25.9552412 10.8842654,26.3302572 C10.5417536,26.7155949 10.3064929,26.5470096 10.0366351,26.2201608 C8.93298578,24.8783601 8.9156872,24.8714791 10.3064929,23.8049196 C10.6801422,23.5193569 10.7839336,23.3404502 10.4552607,22.9207074 C10.1092891,22.476881 9.87402844,22.5732154 9.54881517,22.8931833 C9.35161137,23.0892926 9.10943128,23.2372347 8.90184834,23.4230225 C8.48668246,23.8014791 8.0957346,24.0491961 7.73592417,23.3610932 C7.48336493,22.8725402 7.20312796,23.2372347 7.03706161,23.4058199 C6.65649289,23.8014791 6.45582938,23.6466559 6.14791469,23.3026045 C5.78464455,22.8966238 5.97838863,22.7142765 6.31052133,22.4837621 C6.58037915,22.2979743 6.83293839,22.0812219 7.0785782,21.8610289 C7.46260664,21.520418 7.78436019,21.3518328 8.12687204,21.9367203 C8.45208531,22.4872026 8.70118483,21.9436013 8.96758294,21.8128617 C9.34123223,21.633955 9.25819905,21.3827974 9.02985782,21.159164 C8.70464455,20.8426367 8.61123223,20.6430868 9.06099526,20.2818328 C9.53843602,19.9033762 9.74255924,20.0306752 9.98819905,20.457299 C10.147346,20.7359807 10.3341706,20.7531833 10.5901896,20.5364309 C11.0918483,20.1098071 11.6177251,19.7107074 12.1332227,19.2978457 C12.2785308,19.4698714 12.4480569,19.6246945 12.5622275,19.8139228 C12.8528436,20.2887138 13.1019431,20.0203537 13.4029384,19.8208039 C13.7696682,19.5765273 13.773128,19.3563344 13.4894313,19.0466881 C13.236872,18.7680064 13.0258294,18.4962058 12.6556398,18.8953055 C12.5034123,19.0570096 12.3096682,19.1808682 12.1332227,19.3219293 C11.4689573,18.3448232 11.4689573,18.3448232 12.4445972,17.5844695 C12.8666825,17.2576206 13.2853081,16.9273312 13.7039336,16.5970418 C13.9980095,16.3630868 14.2920853,16.2048232 13.918436,15.7231511 C13.5517062,15.2518006 13.2991469,15.3171704 12.9739336,15.6646624 C12.6798578,15.9777492 12.5034123,15.8917363 12.2612322,15.5786495 C11.5346919,14.6359486 10.7839336,13.7070096 10.0158768,12.7952733 C9.71834123,12.4443408 9.70796209,12.1759807 10.1162085,11.9592283 C10.5590521,11.7287138 10.5521327,11.4947588 10.2234597,11.1610289 C9.97436019,10.9098714 9.80483412,10.5830225 9.55227488,10.3353055 C9.16478673,9.95684887 9.0921327,9.66096463 9.62492891,9.35475884 C10.0366351,9.12080386 9.92938389,8.84212219 9.62838863,8.57720257 C9.16478673,8.16778135 9.56265403,7.964791 9.82905213,7.7033119 C10.1750237,7.35581994 10.3722275,7.55536977 10.6178673,7.83061093 C10.901564,8.15057878 11.0053555,8.42926045 10.5659716,8.67353698 C10.1092891,8.92469453 10.1369668,9.14488746 10.4587204,9.54398714 C11.5208531,10.8651447 11.5000948,10.8789068 12.7940284,9.83643087 C13.1296209,9.56463023 13.4998104,9.32723473 13.8008057,9.02446945 C14.1917536,8.6322508 14.4373934,8.67697749 14.7418483,9.1311254 C14.9494313,9.4407717 15.049763,9.62655949 14.6553555,9.83299035 C14.1882938,10.0772669 14.1433175,10.4006752 14.5342654,10.7653698 C14.8490995,11.0578135 14.8490995,11.2745659 14.4512322,11.5154019 C14.1294787,11.7115113 13.87,12.0073955 13.5586256,12.2275884 C13.212654,12.471865 12.9151185,12.6266881 13.3233649,13.1358842 C13.7281517,13.6381994 13.9634123,13.4489711 14.2782464,13.1255627 C14.6034597,12.7987138 14.7868246,13.0017042 14.9874882,13.2907074 C15.1743128,13.5590675 15.4960664,13.8102251 15.0220853,14.0648232 C14.4512322,14.3710289 14.4962085,14.6772347 14.9079147,15.093537 C15.1362559,15.3240514 15.3127014,15.3687781 15.5410427,15.1348232 C15.5756398,15.0969775 15.6171564,15.0660129 15.6552133,15.0316077 C16.0876777,14.6497106 16.862654,14.391672 16.9007109,13.8996785 C16.9318483,13.4868167 16.316019,13.0085852 15.9562085,12.5854019 C15.7036493,12.2895177 15.5929384,12.0486817 15.9908057,11.7872026 C16.2987204,11.5842122 16.5893365,11.2367203 16.8903318,11.7837621 C16.9007109,11.8044051 16.9249289,11.8216077 16.9387678,11.8422508 C17.3089573,12.244791 17.5234597,12.9776206 18.0424171,13.0120257 C18.5440758,13.0429904 18.931564,12.4099357 19.3744076,12.0796463 C20.0248341,11.5945338 20.6752607,11.0990997 21.2807109,10.5623794 C21.6370616,10.2492926 21.8584834,10.2148875 22.0972038,10.6518328 C22.2874882,10.9993248 22.5365877,11.0956592 22.8790995,10.7894534 C23.1766351,10.5210932 23.4949289,10.2905788 23.0347867,9.89836013 C22.6680569,9.58871383 22.8237441,9.34099678 23.1385782,9.11048232 C23.384218,8.92813505 23.6298578,8.7492283 23.8581991,8.54623794 C24.2837441,8.16778135 24.6539336,7.83061093 25.076019,8.58752412 C25.3251185,9.03135048 25.6157346,8.63569132 25.7990995,8.45678457 C26.1381517,8.12649518 26.3215166,8.21938907 26.5706161,8.56688103 C26.8024171,8.88684887 26.9927014,9.06919614 26.536019,9.39604502 C26.0516588,9.74353698 25.2628436,10.0463023 25.2490047,10.572701 C25.2351659,11.0199678 25.8752133,11.5016399 26.255782,11.9420257 C26.5152607,12.23791 26.5463981,12.4340193 26.1727488,12.6507717 C25.7264455,12.9088103 25.5672986,13.2322186 26.0481991,13.6313183 C26.5706161,14.0682637 26.0481991,14.2230868 25.8198578,14.4776849 C25.4150711,14.9283923 25.2593839,14.5464952 25.0102844,14.2953376 C24.6919905,13.9753698 24.7127488,13.7207717 25.0933175,13.5177814 C25.6295735,13.2322186 25.5430806,12.9741801 25.2040284,12.5441158 C24.8027014,12.0383601 24.6158768,12.4477814 24.3633175,12.6301286 C24.138436,12.7952733 23.9204739,12.9707395 23.7094313,13.1530868 C23.3011848,13.5074598 22.9240758,13.8171061 22.557346,13.087717 C22.3393839,12.6507717 22.0556872,12.9328939 21.827346,13.1186817 C21.6024645,13.3010289 21.2495735,13.5005788 21.6232227,13.8308682 C22.1006635,14.2540514 22.0107109,14.5809003 21.5055924,14.866463 C20.9416588,15.1898714 21.4190995,15.4272669 21.5644076,15.695627 C21.7616114,16.0706431 21.9622749,16.0121543 22.2598104,15.7713183 C22.7580095,15.3722186 23.2423697,15.5304823 23.4153555,16.1360129 C23.5399052,16.5832797 23.0209479,16.5763987 22.8445024,16.8241158 C22.6922749,17.0408682 22.4846919,16.9720579 22.3566825,16.751865 C22.0383886,16.1979421 21.6924171,16.0637621 21.2080569,16.5936013 C20.9485782,16.879164 20.7721327,16.6142444 20.6164455,16.4078135 C20.3638863,16.0740836 20.1147867,15.8194855 19.7272986,16.2805145 C19.3744076,16.6968167 19.1287678,16.4490997 18.8450711,16.1325723 C18.506019,15.7541158 18.7032227,15.5339228 19.0111374,15.3550161 C19.4332227,15.1107395 19.4643602,14.8836656 19.1114692,14.5430547 C18.85891,14.2987781 18.6582464,13.9960129 18.4472038,13.7138907 C18.2084834,13.3973633 18.0112796,13.1221222 17.5615166,13.4971383 C17.1601896,13.8274277 17.0598578,14.0854662 17.4923223,14.4501608 C17.7863981,14.7013183 17.7933175,14.9421543 17.4092891,15.1485852 C16.9249289,15.4135048 16.8661137,15.7403537 17.2881991,16.1428939 C17.5061611,16.3527653 17.6583886,16.6245659 17.8590521,16.8516399 C18.1219905,17.1440836 18.4091469,17.3642765 17.8936493,17.7461736 C17.4646445,18.0592605 17.263981,18.0730225 16.9526066,17.6154341 C16.5132227,16.9686174 15.9596682,16.397492 15.4960664,15.7644373 C15.1673934,15.3171704 14.9598104,15.6440193 14.7037915,15.816045 C14.4304739,16.0018328 14.1813744,16.1945016 14.5342654,16.5213505 C14.9182938,16.879164 15.049763,17.1853698 14.4685308,17.4950161 C14.0672038,17.708328 14.1536967,17.962926 14.4304739,18.2760129 C14.6761137,18.5546945 14.856019,18.7989711 15.1916114,18.4342765 C15.5099052,18.0867846 15.7451659,18.0351768 16.0980569,18.4549196 C16.4751659,18.905627 16.2260664,19.0707717 15.9008531,19.3184887 C14.9736493,20.0306752 14.0464455,20.7394212 13.1572986,21.4997749 C12.7940284,21.8094212 12.5449289,21.8369453 12.3235071,21.4275241 C12.0294313,20.8804823 11.752654,21.1832476 11.4343602,21.3896785 C11.022654,21.6545981 11.1679621,21.8988746 11.4066825,22.1741158 C11.607346,22.4046302 11.80109,22.6385852 11.9706161,22.8897428 C12.28891,23.3610932 12.6106635,23.6638585 13.1088626,23.0824116 C13.4098578,22.7349196 13.6001422,23.0239228 13.7558294,23.2441158 C13.9115166,23.4608682 14.2540284,23.6810611 13.8284834,23.9803859 C13.4963507,24.2143408 13.2091943,24.5102251 12.8701422,24.730418 C12.3788626,25.0503859 12.2612322,25.3669132 12.7594313,25.7832154 C12.8701422,25.8761093 12.9324171,26.0309325 13.01891,26.1582315 L13.0223697,26.1375884 Z M12.6556398,12.9363344 C13.1607583,12.4890675 12.6521801,12.2619936 12.4515166,12.0314791 C12.0467299,11.5601286 11.8495261,12.138135 11.631564,12.2895177 C11.1160664,12.6438907 11.6730806,12.8916077 11.8322275,13.1083601 C12.1954976,13.6003537 12.3996209,13.0429904 12.6556398,12.9363344 Z M20.0698104,13.0567524 C19.4920379,13.5281029 20.0421327,13.7723794 20.2358768,13.9925723 C20.6302844,14.4398392 20.8309479,13.8721543 21.0592891,13.7173312 C21.5851659,13.3560772 21.0143128,13.1118006 20.8586256,12.8984887 C20.488436,12.3824116 20.3050711,13.0189068 20.0698104,13.0567524 Z M14.2436493,14.6600322 C14.5688626,14.3090997 14.0741232,14.0854662 13.8803791,13.8618328 C13.4894313,13.4111254 13.2853081,13.9512862 13.0569668,14.1198714 C12.5864455,14.4604823 13.0811848,14.8320579 13.2161137,14.9903215 C13.5586256,15.3928617 13.8596209,14.98 14.2436493,14.6600322 Z" id="Shape" fill="#464547"></path>
                        <path d="M13.0223697,26.1582315 C13.1918957,26.0102894 13.3787204,25.8761093 13.5274882,25.7109646 C13.821564,25.3875563 14.0602844,25.3978778 14.295545,25.7728939 C14.5723223,26.2201608 14.8906161,26.2545659 15.2435071,25.8451447 C15.5064455,25.5423794 15.731327,25.566463 15.9458294,25.920836 C16.2018483,26.3440193 16.509763,26.4609968 16.8903318,26.0240514 C17.0356398,25.8554662 17.2432227,25.7419293 17.4196682,25.5974277 C18.322654,24.8611576 18.322654,24.8611576 17.423128,24.0319936 C19.1772038,22.9619936 19.260237,22.8002894 18.7274408,21.5376206 C18.8935071,21.4206431 19.076872,21.3208682 19.2187204,21.1798071 C19.4747393,20.9286495 19.6684834,20.9011254 19.8656872,21.2451768 C20.1424645,21.7268489 20.4918957,21.7956592 20.8793839,21.3621543 C21.1665403,21.0421865 21.3741232,21.1006752 21.5747867,21.4516077 C21.8308057,21.9057556 22.1075829,21.9091961 22.5262085,21.5720257 C23.007109,21.1832476 22.7061137,20.9492926 22.4673934,20.6602894 C22.2909479,20.443537 22.1352607,20.2061415 21.9311374,20.0169132 C21.450237,19.5662058 21.5367299,19.2565595 22.0833649,18.9262701 C22.3463033,18.7680064 22.4639336,18.7748875 22.6369194,18.9985209 C23.1870142,19.6935048 23.7440284,20.3884887 24.3114218,21.0697106 C24.5328436,21.3346302 24.4636493,21.5032154 24.2180095,21.6821222 C23.9100948,21.9057556 23.5918009,22.1259486 23.3219431,22.3908682 C22.9275355,22.7762058 22.6127014,22.9310289 22.2840284,22.3186174 C22.0176303,21.8266238 21.7408531,22.1981994 21.498673,22.3771061 C21.242654,22.5663344 21.0073934,22.7590032 21.3533649,23.0996141 C21.6059242,23.3473312 21.8377251,23.6260129 22.0280095,23.9218971 C22.325545,24.3794855 22.605782,24.6237621 23.0659242,24.0870418 C23.4049763,23.6913826 23.5814218,24.0113505 23.8166825,24.2693891 C24.1003791,24.5790354 24.1730332,24.8095498 23.785545,25.0503859 C23.4257346,25.2740193 23.1973934,25.4563666 23.5779621,25.913955 C23.9516114,26.3646624 24.1730332,26.2304823 24.5466825,25.9345981 C25.806019,24.9265273 25.8233175,24.9368489 24.8234597,23.667299 C24.563981,23.3370096 24.2975829,23.1133762 24.8234597,22.710836 C25.3493365,22.3082958 25.5465403,22.5422508 25.8094787,22.944791 C25.9582464,23.178746 26.1346919,23.4023794 26.3353555,23.5950482 C26.729763,23.9700643 26.8162559,24.2762701 26.2488626,24.5721543 C25.8959716,24.7579421 25.878673,25.0228617 26.1935071,25.2877814 C26.6398104,25.6627974 26.4737441,25.913955 26.0620379,26.2063987 C25.4219905,26.6639871 24.8269194,27.1835048 24.21109,27.6754984 C24.1315166,27.7374277 24.0346445,27.8578457 23.9654502,27.8440836 C23.1904739,27.6892605 23.0278673,26.8979421 22.5400474,26.4437942 C22.2079147,26.1341479 22.5608057,25.9896463 22.7407109,25.8761093 C23.2285308,25.5699035 23.0832227,25.2877814 22.8064455,24.9230868 C22.557346,24.5962379 22.3705213,24.6065595 22.0902844,24.8611576 C21.8100474,25.1191961 21.4917536,25.332508 21.2011374,25.5802251 C20.9001422,25.8348232 20.6614218,26.0722186 20.2912322,25.6008682 C19.9590995,25.1811254 20.0282938,24.957492 20.4503791,24.723537 C20.8482464,24.5033441 20.7859716,24.2762701 20.5161137,23.9459807 C20.2393365,23.6088103 20.0732701,23.5090354 19.6823223,23.8152412 C18.2223223,24.957492 18.2084834,24.9437299 19.3501896,26.3543408 C19.8276303,26.9461093 20.3154502,27.5309968 20.7859716,28.1296463 C21.0419905,28.4564952 21.2841706,28.6285209 21.6266825,28.2225402 C22.0003318,27.7821543 22.2321327,28.0849196 22.50891,28.3808039 C22.8375829,28.7317363 22.6749763,28.9244051 22.3912796,29.1721222 C22.0453081,29.4748875 21.7477725,29.5746624 21.4952133,29.0998714 C21.2461137,28.6319614 20.9658768,28.6594855 20.6406635,29.003537 C20.3362085,29.3303859 20.1217062,29.2546945 19.8691469,28.9072026 C19.3917062,28.2535048 18.8485308,27.6445338 18.3676303,26.990836 C18.0112796,26.5057235 17.7933175,26.8807395 17.5096209,27.0527653 C17.1532701,27.2660772 17.118673,27.4862701 17.423128,27.7615113 C17.7725592,28.0780386 17.8106161,28.294791 17.3712322,28.642283 C16.9283886,28.9932154 16.693128,28.883119 16.4786256,28.4943408 C16.2295261,28.0401929 15.9908057,28.1984566 15.7105687,28.4324116 C15.3991943,28.6938907 15.1120379,29.003537 14.7591469,29.1893248 C14.2159716,29.4748875 14.3889573,29.8499035 14.6138389,30.1629904 C14.8490995,30.4967203 15.1881517,30.4382315 15.45109,30.1354662 C15.7763033,29.7604502 16.0219431,29.8567846 16.2987204,30.2111576 C16.5547393,30.5380064 16.6654502,30.7857235 16.2364455,31.0644051 C15.9043128,31.2811576 15.6275355,31.5495177 15.3507583,31.0093569 C15.1085782,30.5345659 14.7833649,30.6068167 14.4754502,30.9439871 C14.0810427,31.377492 13.8907583,31.0127974 13.6554976,30.7650804 C13.3683412,30.4623151 13.3545024,30.2214791 13.7558294,30.0047267 C14.1917536,29.7673312 14.222891,29.5127331 13.9115166,29.0757878 C13.541327,28.5631511 13.2783886,28.8418328 13.0258294,29.0929904 C12.6971564,29.4163987 12.458436,29.364791 12.2577725,29.0000965 C12.0225118,28.5700322 11.7941706,28.5769132 11.4447393,28.896881 C11.3063507,29.0241801 11.1264455,29.3957556 10.82891,29.0998714 C10.6005687,28.8762379 10.2269194,28.6181994 10.34109,28.3119936 C10.4379621,28.053955 10.8081517,27.8681672 11.0953081,27.7167846 C11.3132701,27.6032476 11.3893839,27.8784887 11.4689573,28.0057878 C11.7145972,28.3911254 12.0017536,28.4324116 12.3096682,28.1296463 C12.6556398,27.7855949 12.9151185,27.7305466 13.1815166,28.2087781 C13.4029384,28.6044373 13.6520379,28.6009968 14.0291469,28.301672 C14.3924171,28.0126688 14.4443128,27.8096785 14.1398578,27.4690675 C13.7523697,27.0355627 13.3890995,26.5779743 13.0154502,26.1272669 C13.0223697,26.1375884 13.0223697,26.1582315 13.0223697,26.1582315 Z M20.5472512,22.0192926 C20.0732701,21.7818971 19.8691469,22.1637942 19.6511848,22.3805466 C19.1875829,22.838135 19.7895735,23.0961736 19.9798578,23.2613183 C20.3846445,23.6122508 20.6406635,23.07209 20.841327,22.8587781 C21.2080569,22.4734405 20.5472512,22.3392605 20.5472512,22.0192926 Z" id="Shape" fill="#464547"></path>
                        <path d="M28.1759242,23.8806109 C26.6951659,22.0468167 25.1555924,20.1304502 23.6090995,18.2175241 C23.4291943,17.9938907 23.4430332,17.8597106 23.688673,17.6670418 C25.6641706,16.1153698 27.6327488,14.5568167 29.5909479,12.9810611 C29.8642654,12.7608682 29.9957346,12.8021543 30.1963981,13.0533119 C31.6979147,14.9352733 33.2063507,16.8103537 34.7217062,18.6819936 C34.9569668,18.9709968 34.967346,19.1499035 34.638673,19.4079421 C32.6977725,20.9217685 30.7741706,22.4596785 28.8574882,24.0010289 C28.6049289,24.2040193 28.4284834,24.2349839 28.1759242,23.8806109 Z M33.0541232,19.146463 C33.4139336,18.9331511 33.1855924,18.6991961 33.0126066,18.4858842 C32.0127488,17.2438585 30.988673,16.0190354 30.0130332,14.7563666 C29.7535545,14.4191961 29.5944076,14.4398392 29.3072512,14.6703537 C28.0063981,15.7231511 26.7020853,16.7690675 25.3804739,17.7977814 C25.1106161,18.0076527 25.0829384,18.1487138 25.2870616,18.3998714 C26.3388152,19.6969453 27.387109,21.0009003 28.4284834,22.3082958 C28.5980095,22.5216077 28.7363981,22.5938585 28.9854976,22.3943087 C30.3244076,21.3105466 31.6771564,20.2405466 33.0541232,19.146463 Z" id="Shape" fill="#464547"></path>
                        <path d="M4.85398104,21.6752412 C3.26251185,19.6935048 1.72985782,17.7702572 0.179905213,15.8642122 C-0.0207582938,15.6164952 0.038056872,15.4995177 0.262938389,15.3206109 C2.23843602,13.7689389 4.20701422,12.2103859 6.16867299,10.6380707 C6.42815166,10.4316399 6.54924171,10.4281994 6.76720379,10.7 C8.26526066,12.5854019 9.77369668,14.4604823 11.2959716,16.3252412 C11.5450711,16.6314469 11.5173934,16.8137942 11.2129384,17.0546302 C9.27895735,18.5753376 7.35535545,20.1098071 5.43175355,21.647717 C5.18957346,21.8403859 4.99582938,21.9091961 4.85398104,21.6752412 Z M9.66298578,16.7931511 C9.92938389,16.6417685 9.84635071,16.4490997 9.65606635,16.2151447 C8.61815166,14.9387138 7.5871564,13.6588424 6.56654028,12.3686495 C6.36933649,12.117492 6.22056872,12.0796463 5.95763033,12.2895177 C4.61526066,13.3698392 3.26943128,14.4432797 1.90976303,15.5029582 C1.64682464,15.7093891 1.70909953,15.8435691 1.87862559,16.0534405 C2.93037915,17.3505145 3.96829384,18.65791 5.01312796,19.961865 C5.17227488,20.1614148 5.32104265,20.2577492 5.57706161,20.0478778 C6.91597156,18.9675563 8.26872038,17.9009968 9.66298578,16.7931511 Z" id="Shape" fill="#464547"></path>
                        <path d="M19.8864455,0.240836013 C21.4294787,2.1640836 22.9517536,4.0666881 24.4878673,5.95553055 C24.7196682,6.24109325 24.6193365,6.39935691 24.394455,6.57826367 C22.4466351,8.12649518 20.4953555,9.6781672 18.5509953,11.2298392 C18.3088152,11.422508 18.1600474,11.422508 17.9420853,11.1472669 C16.4474882,9.25842444 14.928673,7.38334405 13.4098578,5.51170418 C13.1711374,5.21926045 13.164218,5.05067524 13.492891,4.79607717 C15.3957346,3.30977492 17.2743602,1.79594855 19.1668246,0.299324759 C19.3917062,0.116977492 19.6442654,-0.172025723 19.8864455,0.240836013 Z M18.2603791,9.64376206 C18.4333649,9.9155627 18.6340284,9.66440514 18.8554502,9.48893891 C20.1044076,8.49807074 21.3464455,7.49344051 22.6127014,6.52665595 C23.0174882,6.21700965 23.0140284,6.01745981 22.6888152,5.63212219 C21.6924171,4.45202572 20.7306161,3.24784566 19.7964929,2.01958199 C19.5231754,1.66176849 19.3398104,1.65488746 19.0180569,1.91292605 C17.7172038,2.96228296 16.412891,4.00819936 15.0981991,5.03691318 C14.8767773,5.20893891 14.7937441,5.31903537 14.9944076,5.57019293 C16.0634597,6.88446945 17.1152133,8.21250804 18.2603791,9.64376206 Z" id="Shape" fill="#464547"></path>
                        <path d="M17.447346,24.0423151 C17.3746919,24.1111254 17.2916588,24.1730547 17.2293839,24.248746 C16.7969194,24.7510611 16.4682464,24.7579421 16.0772986,24.1489711 C15.6690521,23.5124759 15.1535545,22.944791 14.6553555,22.3702251 C14.4304739,22.1121865 14.4512322,21.9608039 14.7107109,21.7578135 C16.6862085,20.2061415 18.6582464,18.6510289 20.6164455,17.0787138 C20.9347393,16.8241158 21.0835071,16.9135691 21.2495735,17.2094534 C21.3948815,17.4640514 21.803128,17.6463987 21.3395261,17.9973312 C20.4296209,18.6854341 19.5473934,19.4113826 18.651327,20.1166881 C17.8694313,20.7325402 17.8659716,20.7325402 18.5613744,21.4516077 C18.5094787,21.9263987 18.0735545,22.0536977 17.776019,22.2979743 C16.8280569,23.0892926 16.8211374,23.0789711 17.447346,24.0423151 Z" id="Path" fill="#464547"></path>
                        <path d="M19.758436,31.2157878 C18.9419431,31.8557235 18.2084834,32.3993248 17.5165403,32.9876527 C17.142891,33.3041801 17.0252607,32.9773312 16.8730332,32.7949839 C16.7138863,32.6057556 16.4059716,32.4062058 16.7830806,32.1206431 C17.167109,31.8316399 17.5269194,31.511672 17.9178673,31.2295498 C18.2811374,30.9680707 18.3745498,30.7065916 17.9974408,30.3935048 C17.5372986,30.0081672 17.8625118,29.7914148 18.1565877,29.5230547 C18.5129384,29.1962058 18.7136019,29.3475884 18.9384834,29.6641158 C19.1737441,29.9909646 19.4332227,30.3006109 19.6961611,30.6102572 C19.9002844,30.8545338 20.0213744,31.0816077 19.758436,31.2157878 Z" id="Path" fill="#464547"></path>
                        <path d="M12.4757346,6.33398714 C12.6106635,6.49913183 12.8286256,6.85006431 13.1261611,7.11498392 C13.6589573,7.58977492 13.4098578,7.87189711 12.9704739,8.2021865 C12.6729384,8.42581994 12.5137915,8.39141479 12.313128,8.09209003 C12.0917062,7.75836013 11.7837915,7.48311897 11.5623697,7.14938907 C11.4516588,6.98424437 11.1229858,6.83630225 11.3201896,6.59546624 C11.5208531,6.3477492 11.8045498,6.1585209 12.081327,5.98649518 C12.1851185,5.9211254 12.28891,6.08282958 12.4757346,6.33398714 Z" id="Path" fill="#464547"></path>
                        <path d="M14.174455,32.6780064 C14.4546919,32.6848875 14.6276777,31.9348553 15.0428436,32.5197428 C15.20891,32.7502572 15.779763,32.9670096 15.281564,33.3317042 C15.0532227,33.4968489 14.8456398,34.1471061 14.3993365,33.6241479 C14.2055924,33.3901929 13.6624171,33.17 14.174455,32.6780064 Z" id="Path" fill="#464547"></path>
                        <path d="M29.6912796,16.2667524 C30.3174882,17.0546302 30.8606635,17.7564952 31.4280569,18.4411576 C31.6148815,18.6682315 31.6148815,18.8161736 31.3796209,18.9985209 C30.6565403,19.5558842 29.93,20.1132476 29.2311374,20.698135 C28.9612796,20.925209 28.8263507,20.8701608 28.6291469,20.6155627 C28.0998104,19.9343408 27.5497156,19.2737621 26.9996209,18.6097428 C26.7989573,18.3689068 26.7989573,18.19 27.0653555,17.9835691 C27.788436,17.4296463 28.5045972,16.8585209 29.2103791,16.2805145 C29.4456398,16.0878457 29.6117062,16.1084887 29.6912796,16.2667524 Z" id="Path" fill="#434244"></path>
                        <path d="M7.96080569,16.6417685 C7.2342654,17.2163344 6.49734597,17.7943408 5.77080569,18.3826688 C5.58052133,18.537492 5.45251185,18.5787781 5.27952607,18.3551447 C4.71905213,17.6395177 4.14819905,16.9307717 3.56696682,16.2323473 C3.34900474,15.9674277 3.4285782,15.7988424 3.67075829,15.6130547 C4.36962085,15.0694534 5.06156398,14.5189711 5.74658768,13.9581672 C5.99222749,13.7586174 6.16521327,13.7551768 6.36587678,14.0166559 C6.90559242,14.7150804 7.45222749,15.4100643 8.01616114,16.0912862 C8.20298578,16.3149196 8.21682464,16.4731833 7.96080569,16.6417685 Z" id="Path" fill="#464547"></path>
                        <path d="M18.37109,7.86501608 C18.3088152,7.79276527 18.2707583,7.75491961 18.2430806,7.71363344 C17.7068246,6.92231511 16.9595261,6.28926045 16.5236019,5.4222508 C17.3124171,4.78575563 18.1046919,4.15270096 18.883128,3.50932476 C19.1702844,3.27192926 19.3225118,3.33729904 19.5404739,3.62974277 C20.0352133,4.30064309 20.5783886,4.93713826 21.1181043,5.57707395 C21.3429858,5.84199357 21.3706635,6.01401929 21.0558294,6.24797428 C20.3638863,6.75717042 19.6892417,7.29733119 19.028436,7.85125402 C18.7620379,8.07144695 18.5613744,8.15057878 18.37109,7.86501608 Z" id="Path" fill="#464547"></path>
                    </g>
                    <g opacity="0.5" transform="translate(21.104265, 35.781350)" id="Path">
                        <path d="M37.5448341,51.1466881 C42.1704739,46.832283 49.0207109,44.4067203 53.6532701,40.1026367 C54.0372986,39.7448232 54.0338389,39.4971061 53.6878673,39.1392926 C52.8575355,38.292926 52.0099052,37.456881 51.2453081,36.5554662 C50.7886256,36.018746 50.5464455,36.1254019 50.0863033,36.5554662 C45.9796209,40.4157235 39.6206635,42.3561736 35.4966825,46.1957878 C35.0365403,46.6258521 34.5729384,47.0559164 34.1093365,47.4859807 L37.5448341,51.1466881 Z" fill="#434244"></path>
                        <path d="M27.314455,40.2540193 C29.8054502,37.9351125 34.5279621,37.5050482 37.0189573,35.1861415 C39.1881991,33.1665595 41.3470616,31.1332154 43.5993365,29.0276206 C44.0006635,28.8074277 43.6892891,28.5803537 43.4540284,28.3291961 C42.388436,27.2075884 41.329763,26.0756592 40.2676303,24.9540514 C39.0982464,23.7154662 39.0844076,23.7051447 37.8942654,24.8164309 C33.5177251,28.896881 26.9165877,31.0884887 22.5400474,35.1689389 L27.314455,40.2540193 Z" fill="#434244"></path>
                        <path d="M21.2945498,33.8443408 C25.9167299,29.5368167 32.7635071,27.118135 37.3891469,22.8140514 C37.7212796,22.5044051 37.7939336,22.3117363 37.4756398,21.9436013 C37.0258768,21.4275241 36.7456398,21.2107717 36.0917536,21.8266238 C31.5595261,26.0963023 24.7750237,28.4530547 20.2081991,32.688328 L21.2945498,33.8443408 Z" fill="#464547"></path>
                        <path d="M19.6165877,32.0552733 C23.9723697,27.9954662 30.5562085,25.8176206 34.9085308,21.754373 C36.171327,20.577717 36.1401896,20.6155627 35.0469194,19.3769775 C34.5729384,18.8402572 34.3411374,18.8505788 33.8256398,19.3356913 C29.272654,23.6088103 22.4708531,25.9724437 17.9005687,30.2249196 L19.6165877,32.0552733 Z" fill="#464547"></path>
                        <path d="M16.5305213,28.769582 C20.8932227,24.7097749 27.4770616,22.5319293 31.8293839,18.4618006 C33.106019,17.2679421 33.0679621,17.2885852 31.9400948,16.0706431 C31.4557346,15.5476849 31.1997156,15.6130547 30.7118957,16.0740836 C26.632891,19.9171383 20.2912322,21.8403859 16.1914692,25.6627974 C15.7347867,26.0894212 15.2746445,26.5194855 14.8145024,26.9461093 L16.5305213,28.769582 Z" fill="#464547"></path>
                        <path d="M13.5690047,25.6180707 C18.1116114,21.3896785 24.8822749,19.0466881 29.4283412,14.8182958 C29.8296682,14.4467203 30.1929384,14.1783601 29.6151659,13.5797106 C29.0719905,13.0189068 28.8125118,13.2253376 28.3592891,13.6519614 C23.8236019,17.8975563 17.046019,20.2439871 12.4930332,24.4723794 L13.5690047,25.6180707 Z" fill="#464547"></path>
                        <path d="M11.6454028,23.5709646 C11.9671564,23.2716399 12.2854502,22.9757556 12.6072038,22.6764309 C16.8488152,18.7267203 23.3150237,16.6555305 27.5704739,12.719582 C28.0582938,12.2688746 28.0998104,11.9592283 27.6154502,11.4809968 C26.7020853,10.579582 25.8267773,9.63688103 24.9722275,8.68041801 C24.5501422,8.20906752 24.2802844,8.19186495 23.7959242,8.65633441 C21.4640758,10.8857878 19.0803318,13.0636334 16.7208057,15.2655627 C14.5135071,17.3229904 10.0781517,17.4950161 7.8743128,19.5524437 L11.6454028,23.5709646 Z" fill="#434244"></path>
                        <path d="M6.50080569,18.0936656 C9.21668246,15.5580064 14.1675355,14.9180707 16.886872,12.3858521 C18.8173934,10.586463 20.7375355,8.78019293 22.7926066,6.85694534 C23.1524171,6.26861736 22.3463033,6.09315113 22.1110427,5.68717042 C21.5886256,4.78231511 21.1008057,4.97842444 20.4088626,5.62868167 C15.9562085,9.8192283 11.4827962,13.9891318 7.00938389,18.1555949 L6.50080569,18.0936656 Z" fill="#464547"></path>
                        <path d="M5.80540284,16.8688424 C6.87791469,15.8710932 7.95042654,14.8767846 9.01947867,13.8790354 C12.5137915,10.6243087 16.0046445,7.36614148 19.4954976,4.11141479 C19.8207109,3.80864952 20.1493839,3.55061093 19.6823223,3.07926045 C18.7793365,2.16752412 17.9074882,1.22482315 17.1532701,0.430064309 C16.6239336,-0.220192926 16.3713744,0.168585209 16.084218,0.440385852 C14.3543602,2.06086817 12.5518483,4.96122186 10.8185308,6.57826367 C7.98156398,9.22057878 2.98227488,8.68385852 0.145308057,11.3261736 L5.80540284,16.8688424 Z" fill="#434244"></path>
                        <path d="M33.6388152,46.9871061 C38.1952607,42.7380707 44.9763033,40.3744373 49.5396682,36.132283 C49.9790521,35.7228617 50.273128,35.4820257 49.7230332,34.9040193 C49.2006161,34.360418 48.9238389,34.5462058 48.4740758,34.9693891 C43.92109,39.228746 37.1296682,41.5923794 32.5593839,45.8345338 L33.6388152,46.9871061 Z" fill="#464547"></path>
                        <path d="M31.7394313,44.9640836 C34.2477251,42.6245338 36.7629384,40.2884244 39.2746919,37.9488746 C41.4231754,35.9464952 45.7893365,35.8260772 48.0000948,33.758328 C48.2976303,33.5931833 48.204218,33.3489068 47.9585782,33.0943087 C47.5676303,32.6917685 47.121327,32.327074 46.8134123,31.8694855 C46.270237,31.0609646 45.8481517,31.2364309 45.2288626,31.8178778 C40.7346919,36.0393891 33.9951659,38.3548553 29.480237,42.5557235 L31.7394313,44.9640836 Z" fill="#434244"></path>
                    </g>
                </g>
                <path d="M90,98 L127.184873,28 C152.735279,40.6354413 177.311844,63.572301 188,92.0287628 L90,98 Z" id="Path" fill="url(#linearGradient-8)" fill-rule="nonzero"></path>
            </g>
        </g>
    </g>
</svg>