<svg width="160" height="153" viewBox="0 0 160 153" xmlns="http://www.w3.org/2000/svg" xmlns:xlink="http://www.w3.org/1999/xlink"><title>Group</title><defs><path id="a" d="M.396.117h28.519v69.496H.395z"/><path id="c" d="M.102.37h65.724V92H.102z"/><path id="e" d="M.396.117h28.519v69.496H.395z"/><path id="g" d="M.31.124h39.612v35.732H.31z"/></defs><g fill="none" fill-rule="evenodd"><path d="M153.984 120.612l1.39-6.898c5.574-27.644-3.364-58.939-24.085-84.329l-2.614-3.202c-4.488-5.5-11.869-10.335-20.373-14.101-22.665-10.037-46.481-9.32-63.956 1.604L32.632 21.01c-6.59 4.119-11.48 10.26-13.927 17.816-4.765 14.716.658 30.637 13.77 46.533a54.513 54.513 0 0 0 2.767 3.103l28.266 29.369c14.07 14.62 32.308 24.477 51.035 27.582 19.45 3.226 35.873-7.1 39.441-24.801" fill="#E5E6E6"/><path d="M146 101.327c-2.07 2.061-4.135 4.128-8.318 4.673L134 90.708 146 90v11.327z" fill="#2769A2"/><g transform="translate(131 36)"><mask id="b" fill="#fff"><use xlink:href="#a"/></mask><path d="M19.502 30.4c6.476-6.842 4.454-14.044 3.268-20.73l-2.043 3.021c-.102-4.505-.783-8.104-2.808-11.585-1.044-1.795-3.75-.978-3.665 1.108l1.878 9.436c-2.686-2.501-4.497-3.546-8.169-7.292-.536-.547-1.455-.573-1.94-.313-.722.388-1.349 1.557-.817 2.188l5.923 8.177-9.205-3.906a1.015 1.015 0 0 0-1.264.386c-.28.457-.375 1.088-.1 1.462 1.825 2.49 5.259 4.506 7.846 6.103-1.537-.115-3.768-.026-5.811.366-1.298.249-1.37 2.129-.1 2.503 1.74.513 3.155.698 4.52.833 1.07.105 1.736 1.213 1.382 2.246-.58 1.695-.886 3.364-.332 4.955.299 1.782 1.582 2.729 3.268 3.333l-.665 11.755s-2.878 5.769-2.002-.438l-3.8-.83-1.225 20.555 7.488 4.792c2.693.947 5.701 1.414 9.394.833 4.107-.803 6.216-5.644 7.94-11.262a9.925 9.925 0 0 0 .444-3.338c-.33-7.675-5.002-16.038-9.405-24.358" fill="#C7D5E7" mask="url(#b)"/></g><path d="M103.823 90L126 79.418l-6.824-19.494c-1.588-2.993-1.49-8.284-1.137-13.924l-20.47 7.798c.078 4.163 2.481 10.715 1.078 12.774L97 86.658 103.823 90z" fill="#C7D5E7"/><path d="M98 61c2.31-.283 4.59-.77 6.777-1.53 4.452-1.25 8.642-3.48 12.223-6.47-3.479 3.11-7.618 5.503-12.088 6.922-2.262.618-4.59.952-6.912 1.078" fill="gray"/><path fill="#C7D5E7" d="M88.293 84L75.99 88.25 75 101l14-3.4z"/><path d="M35.127 83.928c-2.146 1-2.799 3.753-1.353 5.638 1.68 2.19 4.414-.623 9.153.249 5.847.824 9.73 3.633 13.775.673 4.306 7.036 8.716 14.007 16.86 18.64 6.008 3.661 10.123 3.531 13.158 1.242L97 97.115 75.206 87.59c-2.94-2.448-9.15-4.35-13.98-7.87-1.792-3.617-7.075-5.897-13.16-7.87a5.36 5.36 0 0 0-2.448-1.66c-1.552-.526-3.308.067-4.076 1.523-1.191 2.257 1.217 3.737 2.125 6.104a2.922 2.922 0 0 1-1.547 3.716c-1.91.844-4.787 1.368-6.993 2.396" fill="#C7D5E7"/><g transform="translate(76 61)"><mask id="d" fill="#fff"><use xlink:href="#c"/></mask><path d="M.102 27.042l2.824-11.128c1.636-6.45 6.618-11.43 12.911-13.08a14.139 14.139 0 0 1 2.862-.43l3.953-.201 3 5.302c1.494 2.64 4.57 4.05 7.468 3.217a6.625 6.625 0 0 0 2.667-1.503l6.316-5.82a8.108 8.108 0 0 1 3.341-1.855l2.902-.8c4.107-1.13 8.5.343 11.078 3.761 2.125 2.818 4.258 7.157 6.402 13.934-3.95 6.12-4.814 15.549-4.125 26.642-3.645-1.715-6.324-1.804-8.937-10.13 2.475 8.881 8.915 34.526 9.762 48.15C48.97 90.22 30.754 98.4 11.376 84.213c-1.478-8.6-1.304-38.413 1.376-48.012C9.89 30.903 5.39 28.32.102 27.042" fill="#237ECA" mask="url(#d)"/></g><path d="M132.647 68.999l12.283-.442a1.593 1.593 0 0 0 1.46-1.128l7.434-24.025c.01-.033.02-.066.028-.1l2.102-8.735a1.615 1.615 0 0 0-.997-1.895l-12.316-4.575a1.586 1.586 0 0 0-2.088 1.115L131.05 66.99c-.262 1.043.537 2.047 1.597 2.009" fill="#222851"/><g transform="translate(131 36)"><mask id="f" fill="#fff"><use xlink:href="#e"/></mask><path d="M10.108 54.358l1.225-21.667c-1.686-.604-2.97-1.551-3.268-3.333-.554-1.591-.248-3.26.332-4.955.354-1.033-.313-2.14-1.38-2.246-1.367-.135-2.782-.32-4.523-.833-1.268-.374-1.197-2.254.1-2.503 2.044-.391 4.275-.481 5.812-.366-2.587-1.597-6.021-3.613-7.846-6.102-.275-.375-.18-1.007.1-1.462.263-.43.806-.581 1.264-.387l9.205 3.906-5.923-8.177c-.532-.631.095-1.8.817-2.188.485-.26 1.404-.234 1.94.313 3.672 3.746 5.483 4.79 8.17 7.292l-1.88-9.436C14.17.128 16.876-.69 17.92 1.106c2.025 3.482 2.706 7.08 2.808 11.585l2.043-3.02c1.186 6.685 3.208 13.887-3.268 20.729 4.403 8.32 9.075 16.683 9.405 24.358a9.93 9.93 0 0 1-.443 3.338c-1.725 5.618-3.834 10.46-7.94 11.262-3.694.581-6.702.114-9.395-.833l-1.021-14.167z" fill="#C7D5E7" mask="url(#f)"/></g><path d="M64.845 79l-51.03-4.157L2 45.476C15.668 42.426 34.683 42.02 54.473 42L72 49.926 64.845 79z" fill="#A27925"/><path d="M56 81.198L18.303 87 0 76.633V47.075c0-.755.746-1.274 1.439-1.002l14.837 5.824L56 81.198zM19 53c4.563 2.577 9.316 2.104 14 1.616" fill="#CA9433"/><path d="M16.698 51.514c5.095-2.11 32.697-1.419 55.247-1.356 1.43.004 2.604 1.106 2.67 2.502.616 13.156.591 24.092-.807 30.278-.322 1.427-1.6 2.454-3.094 2.511-9.256.359-30.866.449-51.948.551-1.161.006-2.12-.882-2.18-2.015-.681-12.663-.916-24.182.112-32.47" fill="#F6B23F"/><path d="M21 57.647c1.34-.246 2.682-.5 4.038-.647 2.71.015 5.47.506 7.962 2-2.553-1.28-5.28-1.528-7.952-1.321-1.343-.08-2.696-.053-4.048-.032M32 61a22.749 22.749 0 0 1-3.4-.43 26.531 26.531 0 0 1-1.654-.675c-.55-.234-1.078-.57-1.61-.495-.536.078-1.063.51-1.635.639-.567.146-1.136.115-1.701.085.565-.03 1.133-.062 1.679-.264.547-.18 1.034-.662 1.628-.822.606-.145 1.178.16 1.721.326.551.184 1.105.347 1.66.491 1.088.463 2.194.846 3.312 1.145M54 63c5.75-.55 10.603-1.437 12.944-3.263.277-2.866-.551-6.1-.705-9.706-4.26-.03-8.421-.047-12.173-.01.31 4.043.221 8.425-.066 12.979" fill="#F1F1F1"/><path d="M75.346 88c-.212.11-.086.113-.346.078 3.31 2.915 5.802 4.869 6.95 14.922.37-10.214-1.257-11.007-6.604-15M140.33 98c-.87-5.942.88-12.12.649-18-.828 6.188-3.607 12.337-.648 18" fill="#000008"/><path d="M90.646 23.606l-1.639-5.062c-.06-1.931.265-3.845 1.103-5.735.683-1.542 1.844-2.803 3.206-3.797 4.64-3.386 9.308-4.419 13.999-3.875 5.693.319 10.83 1.225 14.345 3.83 9.355 6.927 10.96 12.593 11.34 18.06-.128 5.034-1.498 10.044-3.416 15.048L117.015 47l-3.416-17.374-22.953-6.02z" fill="#222851"/><path d="M88.955 18.377c-2.79 7.989-5.97 14.932-5.955 30.5.688 3.088 1.722 6.1 9.694 7.626 8.87 1.315 16.345 1.857 21.74 1.248 5.04-1.766 6.819-4.846 7.617-8.318 8.984-.109 10.291-4.05 7.894-9.844-1.262-2.305-2.77-2.912-4.294-1.664-1.246 1.248-2.494 4.437-4.846 5.823.138-8.18 2.547-13.999 1.246-18.162-2.417-7.202-13.701-8.637-24.357-10.48a7.106 7.106 0 0 0-4.94.937l-3.8 2.334z" fill="#C7D5E7"/><path d="M94.617 31.038l.356 8.178c.133.443-.245.87-.682.769l-3.836-.89c-.437-.1-.604-.654-.3-.996l1.517-2.904c.203-.39.426-.766.669-1.13.68-1.022 2.165-3.394 2.276-3.027" fill="#70B0CD"/><path d="M100.434 52.777c-.348.248-.751.404-1.163.508-4.983 1.25-6.15-.187-11.036-1.968-2.16-.736-4.323-4.046-1.8-5.15 5.943.92 7.991 1.189 13.882 2.804l.294.045c.534.058.946.548.929 1.113-.034 1.086-.162 1.974-1.106 2.648M126 26l-2.882 1.717-4.844 13.005a7.148 7.148 0 0 1-.416.903c-2.031 3.747-6.245 8.676-9.945 4.191-1.112-1.347-2.594-2.32-4.281-2.69L87.436 39.59c-1.857-.45-3.69.83-3.95 2.76l-1.48 10.94c-.056 1.869.237 3.721.988 5.551a9.356 9.356 0 0 0 2.955 3.844c4.716 3.63 9.463 4.74 14.233 4.176 5.652-.322 10.751-1.24 14.242-3.877 6.178-4.664 8.951-8.764 10.227-12.615.841-2.54.593-5.284-.446-7.746-1.93-4.57 1.276-11.818 1.795-16.623" fill="#222851"/><g transform="translate(95)"><mask id="h" fill="#fff"><use xlink:href="#g"/></mask><path d="M27.38 4.37C23.49 1.482 17.81.477 11.512.124c-2.705.091-3.157.48-8.288 4.233C2.558 4.844.863 9.112.31 9.717c12.261 5.722 18.44 7.523 27.797 17.539 2.791 3.055 5.756 5.76 8.53 8.6 1.647-3.841 3.191-7.761 3.285-11.47-.42-6.058-2.195-12.34-12.542-20.016" fill="#F6B23F" mask="url(#h)"/></g><path d="M81.275 7.576C86.412 4.965 92.085 3.244 98.647 3c14.895.266 27.143 17.916 23.797 23l-4.566-3.886a20.282 20.282 0 0 0-11.188-4.738c-7.62-.74-14.243-.817-17.625 1.267-2.685-.253-12.402-4.725-9.545-9.47.416-.691 1.04-1.233 1.755-1.597" fill="#A27925"/><path d="M97.152 4c-6.386.235-11.913 1.88-16.92 4.38-.279.253-.525.54-.722.864-2.799 4.59 6.718 8.914 9.348 9.159 3.311-2.016 9.799-1.941 17.26-1.225a19.989 19.989 0 0 1 10.958 4.582l3.856 3.24c1.056-6.05-10.245-20.76-23.78-21" fill="#CA9433"/></g></svg>