<?xml version="1.0" encoding="utf-8"?>
<!-- Generator: Adobe Illustrator 21.0.0, SVG Export Plug-In . SVG Version: 6.00 Build 0)  -->
<svg version="1.1" id="Capa_1" xmlns="http://www.w3.org/2000/svg" xmlns:xlink="http://www.w3.org/1999/xlink" x="0px" y="0px"
	 viewBox="0 0 254 195" style="enable-background:new 0 0 254 195;" xml:space="preserve">
<style type="text/css">
	.st0{filter:url(#Adobe_OpacityMaskFilter);}
	.st1{fill:#FFFFFF;}
	.st2{mask:url(#mask-2);fill:#E5E5E5;}
	.st3{filter:url(#Adobe_OpacityMaskFilter_1_);}
	.st4{mask:url(#mask-4);fill:#237ECA;}
	.st5{filter:url(#Adobe_OpacityMaskFilter_2_);}
	.st6{mask:url(#mask-6);fill:#FFFFFF;}
	.st7{filter:url(#Adobe_OpacityMaskFilter_3_);}
	.st8{mask:url(#mask-8);fill:#8C8C8C;}
	.st9{filter:url(#Adobe_OpacityMaskFilter_4_);}
	.st10{mask:url(#mask-10);fill:#8C8C8C;}
	.st11{filter:url(#Adobe_OpacityMaskFilter_5_);}
	.st12{mask:url(#mask-12);fill:#8C8C8C;}
	.st13{filter:url(#Adobe_OpacityMaskFilter_6_);}
	.st14{mask:url(#mask-14);fill:#8C8C8C;}
	.st15{filter:url(#Adobe_OpacityMaskFilter_7_);}
	.st16{mask:url(#mask-16);fill:#F5B240;}
	.st17{filter:url(#Adobe_OpacityMaskFilter_8_);}
	.st18{mask:url(#mask-18);fill:#E56B8C;}
	.st19{filter:url(#Adobe_OpacityMaskFilter_9_);}
	.st20{mask:url(#mask-20);fill:#73CCA3;}
	.st21{filter:url(#Adobe_OpacityMaskFilter_10_);}
	.st22{mask:url(#mask-22);fill:#73CCA3;}
	.st23{filter:url(#Adobe_OpacityMaskFilter_11_);}
	.st24{mask:url(#mask-24);fill:#E56B8C;}
	.st25{filter:url(#Adobe_OpacityMaskFilter_12_);}
	.st26{mask:url(#mask-26);fill:#F6B23F;}
	.st27{filter:url(#Adobe_OpacityMaskFilter_13_);}
	.st28{mask:url(#mask-28);fill:#FFFFFF;}
	.st29{filter:url(#Adobe_OpacityMaskFilter_14_);}
	.st30{mask:url(#mask-30);fill:#FFFFFF;}
	.st31{filter:url(#Adobe_OpacityMaskFilter_15_);}
	.st32{mask:url(#mask-32);fill:#7AB2DE;}
	.st33{filter:url(#Adobe_OpacityMaskFilter_16_);}
	.st34{mask:url(#mask-34);fill:#7AB2DE;}
	.st35{filter:url(#Adobe_OpacityMaskFilter_17_);}
	.st36{mask:url(#mask-36);fill:#7AB2DE;}
	.st37{filter:url(#Adobe_OpacityMaskFilter_18_);}
	.st38{mask:url(#mask-38);fill:#7AB2DE;}
	.st39{filter:url(#Adobe_OpacityMaskFilter_19_);}
	.st40{mask:url(#mask-40);fill:#FFFFFF;}
	.st41{filter:url(#Adobe_OpacityMaskFilter_20_);}
	.st42{mask:url(#mask-42);fill:#E56B8C;}
	.st43{filter:url(#Adobe_OpacityMaskFilter_21_);}
	.st44{mask:url(#mask-44);fill:#E56B8C;}
	.st45{filter:url(#Adobe_OpacityMaskFilter_22_);}
	.st46{mask:url(#mask-46);fill:#A27925;}
	.st47{filter:url(#Adobe_OpacityMaskFilter_23_);}
	.st48{mask:url(#mask-48);fill:#CA9433;}
	.st49{filter:url(#Adobe_OpacityMaskFilter_24_);}
	.st50{mask:url(#mask-50);fill:#F6B23F;}
	.st51{filter:url(#Adobe_OpacityMaskFilter_25_);}
	.st52{mask:url(#mask-52);fill:#F1F1F1;}
	.st53{filter:url(#Adobe_OpacityMaskFilter_26_);}
	.st54{mask:url(#mask-54);fill:#F1F1F1;}
	.st55{filter:url(#Adobe_OpacityMaskFilter_27_);}
	.st56{mask:url(#mask-56);fill:#F1F1F1;}
	.st57{fill:#9D979D;}
</style>
<title>Group 92</title>
<desc>Created with Sketch.</desc>
<g id="DS-Pillar">
	<g id="Home" transform="translate(-1002.000000, -22055.000000)">
		<g id="Group-92" transform="translate(1002.000000, 22055.000000)">
			
				<g id="Group-3" transform="translate(135.500000, 108.500000) scale(-1, 1) translate(-135.500000, -108.500000) translate(17.000000, 22.000000)">
				<g id="Clip-2">
				</g>
				<defs>
					<filter id="Adobe_OpacityMaskFilter" filterUnits="userSpaceOnUse">
						<feColorMatrix  type="matrix" values="1 0 0 0 0  0 1 0 0 0  0 0 1 0 0  0 0 0 1 0"/>
					</filter>
				</defs>
				<mask maskUnits="userSpaceOnUse" id="mask-2">
					<g class="st0">
						<path id="path-1" class="st1" d="M53.7,25.1l-6.1,3C15.1,43.9-4.7,72.7,1,95.8l0,0L13,145c7.1,28.9,50.3,36.9,90.8,17l0,0
							c2-1,4.1-2.1,6-3.2l0,0l57.8-33c28.8-16.4,51.6-38.9,63.9-63l0,0c12.8-25,2.8-47.9-23.9-55l0,0L197.2,5
							c-12.7-3.4-26.5-5-40.8-5l0,0C123.5,0,87.5,8.6,53.7,25.1L53.7,25.1z"/>
					</g>
				</mask>
				<polygon id="Fill-1" class="st2" points="176.8,-59 272,68 49.2,207 -46,80 				"/>
			</g>
			<g id="Group-6" transform="translate(85.000000, 12.000000)">
				<g id="Clip-5">
				</g>
				<defs>
					<filter id="Adobe_OpacityMaskFilter_1_" filterUnits="userSpaceOnUse" x="-35.8" y="-29.3" width="198.8" height="217.4">
						<feColorMatrix  type="matrix" values="1 0 0 0 0  0 1 0 0 0  0 0 1 0 0  0 0 0 1 0"/>
					</filter>
				</defs>
				<mask maskUnits="userSpaceOnUse" x="-35.8" y="-29.3" width="198.8" height="217.4" id="mask-4">
					<g class="st3">
						<path id="path-3" class="st1" d="M0.9,18.6c1.1,34.4,20.2,87,43.7,145l0,0l79.1-21.5L85.7,0.8C47.5,2.9,20,5,0.9,18.6
							L0.9,18.6z"/>
					</g>
				</mask>
				<polygon id="Fill-4" class="st4" points="-35.8,34.3 73.6,-29.3 163,124.6 53.6,188.2 				"/>
			</g>
			<g id="Group-9" transform="translate(86.000000, 17.000000)">
				<g id="Clip-8">
				</g>
				<defs>
					<filter id="Adobe_OpacityMaskFilter_2_" filterUnits="userSpaceOnUse" x="-15.1" y="-32.7" width="176.8" height="209.4">
						<feColorMatrix  type="matrix" values="1 0 0 0 0  0 1 0 0 0  0 0 1 0 0  0 0 0 1 0"/>
					</filter>
				</defs>
				<mask maskUnits="userSpaceOnUse" x="-15.1" y="-32.7" width="176.8" height="209.4" id="mask-6">
					<g class="st5">
						<path id="path-5" class="st1" d="M1,11.7C18,68.6,41,114.3,76.3,137.5l0,0l79.2-10.9c-35.3-23.2-58.3-69-75.4-125.8l0,0
							L1,11.7z M0.9,11.6c0,0,0,0.1,0,0.1l0,0l79.1-11L0.9,11.6z M0.6,11.8l0.3,0L0.6,11.8z"/>
					</g>
				</mask>
				<polygon id="Fill-7" class="st6" points="-15.1,15.7 68.2,-32.7 161.7,128.2 78.5,176.6 				"/>
			</g>
			<g id="Group-12" transform="translate(120.000000, 44.000000)">
				<g id="Clip-11">
				</g>
				<defs>
					<filter id="Adobe_OpacityMaskFilter_3_" filterUnits="userSpaceOnUse" x="-5.8" y="-19.3" width="63.2" height="50.9">
						<feColorMatrix  type="matrix" values="1 0 0 0 0  0 1 0 0 0  0 0 1 0 0  0 0 0 1 0"/>
					</filter>
				</defs>
				<mask maskUnits="userSpaceOnUse" x="-5.8" y="-19.3" width="63.2" height="50.9" id="mask-8">
					<g class="st7">
						<path id="path-7" class="st1" d="M46.6,1.6c-1.5,0.2-3,0.4-4.6,0.7l0,0c-1.5,0.3-3.1,0.6-4.5,1.2l0,0c-0.7,0.3-1.4,0.7-2,1
							l0,0c-0.1,0.1-0.2,0.1-0.4,0.2l0,0c-0.1,0.1-0.2,0.1-0.4,0.2l0,0c-0.5,0.3-0.9,0.5-1.4,0.7l0,0c-0.7,0.3-1.3,0.6-2,0.7l0,0
							c-0.7,0.1-1.4,0.2-2,0l0,0c-0.3-0.1-0.6-0.2-0.9-0.3l0,0C28.2,6,28,5.8,27.7,5.5l0,0c-0.3-0.3-0.7-0.6-1.2-0.7l0,0
							c-0.3-0.1-0.6-0.1-0.8-0.1l0,0c-0.3,0-0.5,0.1-0.8,0.2l0,0C24.4,5,24,5.2,23.7,5.4l0,0l-1,0.5c-0.7,0.3-1.4,0.7-2,1l0,0
							c-0.7,0.3-1.4,0.6-2.1,0.9l0,0c-0.4,0.1-0.7,0.3-1.1,0.4l0,0c-0.4,0.1-0.7,0.3-1,0.3l0,0c-0.3,0.1-0.6,0.2-0.8,0.2l0,0
							c-0.3,0-0.5,0-0.7-0.1l0,0C14.5,8.5,14,8,13.4,7.4l0,0c-0.3-0.3-0.7-0.6-1.1-0.8l0,0c-0.4-0.2-1-0.3-1.5-0.3l0,0
							C10,6.3,9.3,6.7,8.6,7.1l0,0c-0.1,0-0.1,0.1-0.2,0.1l0,0l-7.9,4.9l8.4-4c0.7-0.3,1.4-0.6,1.9-0.5l0,0c0.6,0,1,0.4,1.4,0.9l0,0
							c0.2,0.3,0.5,0.6,0.7,0.9l0,0c0.3,0.3,0.6,0.7,1.1,0.9l0,0c0.5,0.3,1,0.4,1.6,0.4l0,0c0.5,0,1-0.1,1.4-0.2l0,0
							c0.4-0.1,0.8-0.3,1.1-0.5l0,0c0.4-0.2,0.7-0.3,1.1-0.5l0,0c0.7-0.3,1.4-0.7,2.1-1.1l0,0c0.6-0.3,1.2-0.6,1.7-1l0,0
							c0.1-0.1,0.2-0.1,0.3-0.2l0,0l1-0.6c0.1-0.1,0.3-0.2,0.4-0.3l0,0c0.2-0.1,0.3-0.2,0.5-0.2l0,0c0.3-0.1,0.5-0.1,0.7-0.1l0,0
							c0.2,0,0.5,0.2,0.8,0.4l0,0c0.3,0.2,0.7,0.5,1.1,0.7l0,0c0.4,0.2,0.8,0.3,1.3,0.4l0,0c1.8,0.3,3.4-0.3,4.8-1.1l0,0
							c0.1,0,0.1-0.1,0.2-0.1l0,0c0.5-0.3,1.1-0.7,1.6-1l0,0c0.5-0.3,1-0.7,1.5-1l0,0c0.2-0.1,0.5-0.3,0.7-0.4l0,0
							c1.3-0.7,2.8-1.1,4.3-1.4l0,0c1.5-0.3,3-0.6,4.5-0.9l0,0c1.5-0.3,3-0.8,4.4-1.4l0,0C49.7,1,48.2,1.4,46.6,1.6L46.6,1.6z"/>
					</g>
				</mask>
				<polygon id="Fill-10" class="st8" points="-5.8,10.2 44.9,-19.3 57.4,2.1 6.6,31.6 				"/>
			</g>
			<g id="Group-15" transform="translate(134.000000, 77.000000)">
				<g id="Clip-14">
				</g>
				<defs>
					<filter id="Adobe_OpacityMaskFilter_4_" filterUnits="userSpaceOnUse" x="-5.8" y="-19.1" width="63.2" height="50.9">
						<feColorMatrix  type="matrix" values="1 0 0 0 0  0 1 0 0 0  0 0 1 0 0  0 0 0 1 0"/>
					</filter>
				</defs>
				<mask maskUnits="userSpaceOnUse" x="-5.8" y="-19.1" width="63.2" height="50.9" id="mask-10">
					<g class="st9">
						<path id="path-9" class="st1" d="M46.7,1.8c-1.5,0.3-3.1,0.4-4.6,0.7l0,0c-1.5,0.2-3.1,0.6-4.5,1.2l0,0
							c-0.7,0.3-1.4,0.7-2,1.1l0,0c-0.1,0.1-0.2,0.1-0.4,0.2l0,0c-0.1,0.1-0.2,0.1-0.4,0.2l0,0c-0.4,0.3-0.9,0.5-1.3,0.7l0,0
							c-0.7,0.3-1.3,0.6-2,0.7l0,0c-0.7,0.1-1.4,0.2-2,0l0,0c-0.3-0.1-0.6-0.2-0.9-0.3l0,0C28.2,6.2,28,6,27.7,5.7l0,0
							C27.4,5.5,27,5.2,26.5,5l0,0c-0.3-0.1-0.6-0.1-0.8-0.1l0,0c-0.3,0-0.5,0.1-0.8,0.1l0,0c-0.5,0.2-0.8,0.4-1.2,0.6l0,0l-1,0.5
							c-0.7,0.3-1.4,0.7-2,1l0,0c-0.7,0.3-1.4,0.6-2.1,0.9l0,0c-0.3,0.1-0.7,0.3-1.1,0.4l0,0c-0.4,0.1-0.7,0.3-1,0.3l0,0
							C16.2,8.9,15.9,9,15.6,9l0,0c-0.3,0-0.5,0-0.7-0.1l0,0c-0.5-0.2-0.9-0.7-1.5-1.3l0,0c-0.3-0.3-0.7-0.6-1.1-0.8l0,0
							c-0.4-0.2-1-0.3-1.5-0.3l0,0C10,6.6,9.3,6.9,8.7,7.3l0,0c-0.1,0-0.1,0.1-0.2,0.1l0,0l-7.9,4.9l8.4-4c0.7-0.3,1.4-0.6,1.9-0.5
							l0,0c0.6,0,1,0.3,1.4,0.9l0,0C12.5,9,12.8,9.3,13,9.6l0,0c0.3,0.3,0.6,0.7,1.1,0.9l0,0c0.5,0.3,1,0.4,1.6,0.4l0,0
							c0.5,0,1-0.1,1.4-0.2l0,0c0.4-0.1,0.8-0.3,1.2-0.5l0,0c0.4-0.2,0.7-0.3,1.1-0.5l0,0c0.7-0.3,1.4-0.7,2.1-1.1l0,0
							c0.6-0.3,1.2-0.6,1.7-1l0,0c0.1-0.1,0.2-0.1,0.3-0.2l0,0l1-0.6c0.1-0.1,0.3-0.2,0.4-0.3l0,0c0.2-0.1,0.3-0.2,0.5-0.2l0,0
							c0.3-0.1,0.5-0.1,0.7-0.1l0,0c0.2,0,0.5,0.2,0.8,0.4l0,0c0.3,0.2,0.6,0.5,1.1,0.7l0,0c0.4,0.2,0.8,0.3,1.3,0.4l0,0
							c1.8,0.3,3.4-0.3,4.8-1.1l0,0c0.1,0,0.1-0.1,0.2-0.1l0,0c0.5-0.3,1-0.6,1.6-1l0,0c0.5-0.3,1-0.7,1.5-1l0,0
							c0.2-0.1,0.5-0.3,0.7-0.4l0,0c1.3-0.7,2.8-1.1,4.3-1.4l0,0c1.5-0.3,3-0.6,4.5-0.9l0,0c1.5-0.3,3-0.8,4.4-1.5l0,0
							C49.7,1.3,48.2,1.6,46.7,1.8L46.7,1.8z"/>
					</g>
				</mask>
				<polygon id="Fill-13" class="st10" points="-5.8,10.4 44.9,-19.1 57.4,2.3 6.6,31.8 				"/>
			</g>
			<g id="Group-18" transform="translate(137.000000, 86.000000)">
				<g id="Clip-17">
				</g>
				<defs>
					<filter id="Adobe_OpacityMaskFilter_5_" filterUnits="userSpaceOnUse" x="-5.8" y="-19.2" width="63.2" height="50.9">
						<feColorMatrix  type="matrix" values="1 0 0 0 0  0 1 0 0 0  0 0 1 0 0  0 0 0 1 0"/>
					</filter>
				</defs>
				<mask maskUnits="userSpaceOnUse" x="-5.8" y="-19.2" width="63.2" height="50.9" id="mask-12">
					<g class="st11">
						<path id="path-11" class="st1" d="M46.7,1.7c-1.5,0.2-3,0.4-4.6,0.7l0,0C40.6,2.6,39,3,37.6,3.6l0,0c-0.7,0.3-1.4,0.7-2,1l0,0
							c-0.1,0.1-0.2,0.1-0.4,0.2l0,0C35.1,4.9,35,5,34.9,5.1l0,0c-0.5,0.3-0.9,0.5-1.4,0.7l0,0c-0.7,0.3-1.3,0.6-2,0.7l0,0
							c-0.7,0.1-1.4,0.2-2,0l0,0c-0.3-0.1-0.6-0.2-0.9-0.3l0,0C28.3,6,28,5.8,27.7,5.6l0,0C27.4,5.3,27,5,26.5,4.8l0,0
							c-0.3-0.1-0.6-0.1-0.8-0.1l0,0c-0.3,0-0.5,0.1-0.8,0.2l0,0C24.4,5,24,5.3,23.7,5.4l0,0l-1,0.5c-0.7,0.4-1.4,0.7-2,1l0,0
							c-0.7,0.3-1.4,0.6-2.1,0.9l0,0c-0.3,0.1-0.7,0.3-1.1,0.4l0,0c-0.4,0.1-0.7,0.3-1,0.3l0,0c-0.3,0.1-0.6,0.2-0.8,0.2l0,0
							c-0.3,0-0.5,0-0.7-0.1l0,0c-0.4-0.2-0.9-0.7-1.5-1.3l0,0c-0.3-0.3-0.7-0.6-1.1-0.8l0,0c-0.4-0.2-1-0.3-1.5-0.3l0,0
							C10,6.4,9.3,6.8,8.7,7.2l0,0c-0.1,0-0.1,0.1-0.2,0.1l0,0l-7.9,4.9l8.4-4c0.7-0.3,1.4-0.6,1.9-0.5l0,0c0.6,0,1,0.4,1.4,0.9l0,0
							c0.2,0.3,0.5,0.6,0.7,0.9l0,0c0.3,0.3,0.6,0.7,1.1,0.9l0,0c0.5,0.3,1,0.4,1.6,0.4l0,0c0.5,0,1-0.1,1.4-0.2l0,0
							c0.4-0.1,0.8-0.3,1.2-0.5l0,0c0.4-0.2,0.7-0.3,1.1-0.5l0,0c0.7-0.3,1.4-0.7,2.1-1.1l0,0c0.6-0.3,1.2-0.6,1.7-1l0,0
							c0.1-0.1,0.2-0.1,0.3-0.2l0,0l1-0.6c0.1-0.1,0.3-0.2,0.4-0.2l0,0c0.2-0.1,0.3-0.2,0.5-0.2l0,0c0.3-0.1,0.5-0.1,0.7-0.1l0,0
							c0.2,0,0.5,0.2,0.8,0.4l0,0c0.3,0.2,0.6,0.5,1.1,0.7l0,0c0.4,0.2,0.8,0.3,1.3,0.4l0,0c1.8,0.3,3.4-0.3,4.8-1.1l0,0
							c0.1,0,0.1-0.1,0.2-0.1l0,0c0.5-0.3,1.1-0.6,1.6-1l0,0c0.5-0.3,1-0.7,1.5-1l0,0c0.2-0.1,0.5-0.3,0.7-0.4l0,0
							c1.3-0.7,2.8-1.1,4.3-1.4l0,0c1.5-0.3,3-0.6,4.5-0.9l0,0c1.5-0.3,3-0.8,4.4-1.4l0,0C49.7,1.1,48.2,1.5,46.7,1.7L46.7,1.7z"/>
					</g>
				</mask>
				<polygon id="Fill-16" class="st12" points="-5.8,10.3 44.9,-19.2 57.4,2.2 6.6,31.7 				"/>
			</g>
			<g id="Group-21" transform="translate(126.000000, 63.000000)">
				<g id="Clip-20">
				</g>
				<defs>
					<filter id="Adobe_OpacityMaskFilter_6_" filterUnits="userSpaceOnUse" x="-6.1" y="-19.4" width="63.2" height="50.9">
						<feColorMatrix  type="matrix" values="1 0 0 0 0  0 1 0 0 0  0 0 1 0 0  0 0 0 1 0"/>
					</filter>
				</defs>
				<mask maskUnits="userSpaceOnUse" x="-6.1" y="-19.4" width="63.2" height="50.9" id="mask-14">
					<g class="st13">
						<path id="path-13" class="st1" d="M42.3,4.1c-0.7,0.3-1.4,0.6-1.9,0.5l0,0c-0.6,0-1-0.4-1.4-0.9l0,0c-0.2-0.3-0.5-0.6-0.7-0.9
							l0,0c-0.3-0.3-0.6-0.7-1.1-0.9l0,0c-0.5-0.3-1-0.4-1.6-0.4l0,0c-0.5,0-1,0.1-1.4,0.2l0,0C33.7,1.8,33.3,2,33,2.1l0,0
							c-0.4,0.2-0.7,0.3-1.1,0.5l0,0c-0.7,0.3-1.4,0.7-2.1,1.1l0,0c-0.6,0.3-1.1,0.6-1.7,1l0,0c-0.1,0.1-0.2,0.1-0.3,0.2l0,0l-1,0.6
							c-0.1,0.1-0.3,0.2-0.4,0.3l0,0C26.2,5.8,26,5.9,25.9,6l0,0c-0.3,0.1-0.5,0.1-0.7,0.1l0,0c-0.2,0-0.5-0.2-0.8-0.4l0,0
							c-0.3-0.2-0.6-0.5-1.1-0.7l0,0c-0.4-0.2-0.8-0.3-1.3-0.4l0,0c-1.8-0.3-3.4,0.3-4.8,1.1l0,0c-0.1,0-0.1,0.1-0.2,0.1l0,0
							c-0.5,0.3-1.1,0.7-1.6,1l0,0c-0.5,0.3-1,0.7-1.5,1l0,0c-0.2,0.1-0.5,0.3-0.7,0.4l0,0C12,8.7,10.6,9.1,9.1,9.4l0,0
							c-1.5,0.3-3,0.6-4.5,0.9l0,0c-1.5,0.3-3,0.8-4.4,1.4l0,0c1.4-0.6,2.9-1,4.4-1.2l0,0c1.5-0.2,3-0.4,4.6-0.7l0,0
							c1.5-0.2,3.1-0.6,4.5-1.3l0,0c0.7-0.3,1.4-0.7,2-1l0,0c0.1-0.1,0.2-0.1,0.4-0.2l0,0c0.1-0.1,0.2-0.1,0.4-0.2l0,0
							c0.5-0.3,0.9-0.5,1.3-0.7l0,0c0.7-0.3,1.3-0.6,2-0.7l0,0c0.7-0.1,1.4-0.2,2,0l0,0c0.3,0.1,0.6,0.2,0.9,0.3l0,0
							c0.3,0.2,0.5,0.4,0.8,0.6l0,0c0.3,0.3,0.7,0.6,1.2,0.7l0,0c0.3,0.1,0.6,0.1,0.8,0.1l0,0c0.3,0,0.5-0.1,0.8-0.2l0,0
							c0.5-0.2,0.8-0.4,1.2-0.6l0,0l1-0.5c0.7-0.3,1.4-0.7,2-1l0,0C31.3,5,32,4.7,32.7,4.4l0,0c0.3-0.2,0.7-0.3,1.1-0.4l0,0
							c0.4-0.1,0.7-0.3,1-0.3l0,0c0.3-0.1,0.6-0.2,0.8-0.2l0,0c0.3,0,0.5,0,0.7,0.1l0,0c0.5,0.2,0.9,0.7,1.5,1.3l0,0
							c0.3,0.3,0.6,0.6,1.1,0.8l0,0c0.4,0.2,1,0.4,1.5,0.3l0,0c0.9-0.1,1.6-0.4,2.2-0.8l0,0c0.1,0,0.1-0.1,0.2-0.1l0,0l7.9-4.9
							L42.3,4.1z"/>
					</g>
				</mask>
				<polygon id="Fill-19" class="st14" points="-6.1,10.1 44.6,-19.4 57.1,2 6.3,31.5 				"/>
			</g>
			<g id="Group-24" transform="translate(112.000000, 0.000000)">
				<g id="Clip-23">
				</g>
				<defs>
					<filter id="Adobe_OpacityMaskFilter_7_" filterUnits="userSpaceOnUse" x="-13.6" y="-13.4" width="67" height="64.7">
						<feColorMatrix  type="matrix" values="1 0 0 0 0  0 1 0 0 0  0 0 1 0 0  0 0 0 1 0"/>
					</filter>
				</defs>
				<mask maskUnits="userSpaceOnUse" x="-13.6" y="-13.4" width="67" height="64.7" id="mask-16">
					<g class="st15">
						<path id="path-15" class="st1" d="M18.4,0.2c-5.2,0.5-9.1,5.1-8.6,10.4l0,0c0.1,1.2,0.4,2.3,0.9,3.3l0,0
							c-3.4,0.8-7,1.8-10.5,3.2l0,0l4.9,18.6l36.9-8.9c-0.3-10,0.8-10.9-2.6-15.9l0,0c-3,0-6.7,0.1-10.8,0.4l0,0
							c0.1-0.8,0.2-1.6,0.1-2.4l0,0c-0.5-4.9-4.6-8.7-9.5-8.7l0,0C19,0.1,18.7,0.1,18.4,0.2L18.4,0.2z M14.5,6.4
							c1.1-1.9,2.5-2.8,4.9-3.2l0,0c3.9-0.6,6.9,3.6,4.9,7l0,0c-1,1.7-2.5,1.1-5.8,1.7l0,0C18.2,12,18,12,17.7,12l0,0
							C14.9,12,12.9,8.9,14.5,6.4L14.5,6.4z"/>
					</g>
				</mask>
				<polygon id="Fill-22" class="st16" points="-13.6,12.4 30.8,-13.4 53.4,25.5 9,51.3 				"/>
			</g>
			<g id="Group-27" transform="translate(117.000000, 70.000000)">
				<g id="Clip-26">
				</g>
				<defs>
					<filter id="Adobe_OpacityMaskFilter_8_" filterUnits="userSpaceOnUse" x="-7" y="-5.8" width="24.9" height="26.5">
						<feColorMatrix  type="matrix" values="1 0 0 0 0  0 1 0 0 0  0 0 1 0 0  0 0 0 1 0"/>
					</filter>
				</defs>
				<mask maskUnits="userSpaceOnUse" x="-7" y="-5.8" width="24.9" height="26.5" id="mask-18">
					<g class="st17">
						<path id="path-17" class="st1" d="M4.5,1.5c0,1.5,0,3,0.1,4.6l0,0l0,0L4.4,6C3.3,5.5,1.9,5,0.5,5.1l0,0
							c-0.7,0.1-0.7,0.6,0,0.7l0,0c1.2,0,2.3,0.7,3.3,1.3l0,0L4,7.1c0.2,0.1,0.3,0.2,0.5,0.2l0,0l0.1,0c0,0.7,0.1,1.3,0.1,2l0,0
							c0,0.2,0,0.4,0.1,0.6l0,0c0.2,1.2,0.5,2.4,0.8,3.7l0,0c0.1,0.5,0.7,0.4,0.6-0.1l0,0C6.1,12.3,6,11,6,9.8l0,0
							c0-0.2,0-0.3,0-0.5l0,0C5.9,8.9,5.8,8.4,5.7,8l0,0c1.7,0.9,3.4,1.8,5.1,2.8l0,0c0.5,0.3,0.8-0.2,0.3-0.6l0,0
							C9.3,9,7.5,7.8,5.6,6.6l0,0C5.4,4.9,5.2,3.2,5.2,1.5l0,0C5.1,1.2,5,1,4.8,1l0,0C4.7,1,4.5,1.2,4.5,1.5L4.5,1.5z"/>
					</g>
				</mask>
				<polygon id="Fill-25" class="st18" points="-7,2.5 7.3,-5.8 17.9,12.5 3.6,20.8 				"/>
			</g>
			<g id="Group-30" transform="translate(104.000000, 42.000000)">
				<g id="Clip-29">
				</g>
				<defs>
					<filter id="Adobe_OpacityMaskFilter_9_" filterUnits="userSpaceOnUse" x="-9.4" y="-6.2" width="37.2" height="36.8">
						<feColorMatrix  type="matrix" values="1 0 0 0 0  0 1 0 0 0  0 0 1 0 0  0 0 0 1 0"/>
					</filter>
				</defs>
				<mask maskUnits="userSpaceOnUse" x="-9.4" y="-6.2" width="37.2" height="36.8" id="mask-20">
					<g class="st19">
						<path id="path-19" class="st1" d="M12.1,0.5C10.9,1.6,9.9,3.2,9.3,5l0,0c-0.5,1.6-0.8,3.4-0.8,5.3l0,0c0,1.9,0.2,3.8,0.4,5.4
							l0,0l0.5,4c0,0.1,0,0.3,0.1,0.5l0,0c0,0-0.1,0-0.1-0.1l0,0l-8.3-4.6c-0.4-0.2-0.7,0.4-0.3,0.6l0,0l7.8,5.1
							c0.1,0,0.1,0.1,0.2,0.1l0,0c0.1,0.1,0.3,0.2,0.5,0.3l0,0c0.2,0.1,0.4,0.1,0.6,0.1l0,0h0c0.3,0,0.6-0.2,0.8-0.4l0,0
							c0.3-0.4,0.2-0.8,0.2-1l0,0l0-0.1l-0.8-4.6c-0.3-1.6-0.5-3.4-0.6-5.2l0,0c-0.1-1.8,0.1-3.5,0.6-5.1l0,0
							c0.5-1.7,1.3-3.2,2.4-4.3l0,0c0.4-0.4,0.3-0.8,0-0.8l0,0C12.5,0.2,12.3,0.3,12.1,0.5L12.1,0.5z"/>
					</g>
				</mask>
				<polygon id="Fill-28" class="st20" points="-9.4,7.7 14.4,-6.2 27.7,16.8 3.9,30.7 				"/>
			</g>
			<g id="Group-33" transform="translate(128.000000, 87.000000)">
				<g id="Clip-32">
				</g>
				<defs>
					<filter id="Adobe_OpacityMaskFilter_10_" filterUnits="userSpaceOnUse" x="-10.7" y="-6.1" width="28.2" height="29.5">
						<feColorMatrix  type="matrix" values="1 0 0 0 0  0 1 0 0 0  0 0 1 0 0  0 0 0 1 0"/>
					</filter>
				</defs>
				<mask maskUnits="userSpaceOnUse" x="-10.7" y="-6.1" width="28.2" height="29.5" id="mask-22">
					<g class="st21">
						<path id="path-21" class="st1" d="M3.8,1.4C3.2,5.2,3.1,9.1,3.4,13l0,0c0,0.2,0.1,0.3,0.1,0.5l0,0c0.1,0.4,0.2,0.8,0.1,1.2
							l0,0c-0.7-0.5-1.5-0.8-2.4-1l0,0c-0.6-0.2-0.8,0.4-0.2,0.6l0,0c0.8,0.3,1.5,0.7,2.1,1.3l0,0l0.2,0.1c0,0,0.1,0.1,0.1,0.1l0,0
							l0.4,0.4l0.4-0.4c0.1-0.1,0.1-0.1,0.2-0.2l0,0l0.1-0.3c0.1-0.3,0.2-0.7,0.2-1.1l0,0c0-0.3,0-0.7,0-1l0,0c0-0.1,0-0.3,0-0.4
							l0,0C4.2,9.1,4.1,5.3,4.4,1.5l0,0c0.1-0.8,0-1.3-0.2-1.3l0,0C4.1,0.2,3.9,0.6,3.8,1.4L3.8,1.4z"/>
					</g>
				</mask>
				<polygon id="Fill-31" class="st22" points="-10.7,3.6 5.9,-6.1 17.5,13.7 0.8,23.4 				"/>
			</g>
			<g id="Group-36" transform="translate(156.000000, 102.000000)">
				<g id="Clip-35">
				</g>
				<defs>
					<filter id="Adobe_OpacityMaskFilter_11_" filterUnits="userSpaceOnUse" x="-10.7" y="-14.6" width="65.7" height="66">
						<feColorMatrix  type="matrix" values="1 0 0 0 0  0 1 0 0 0  0 0 1 0 0  0 0 0 1 0"/>
					</filter>
				</defs>
				<mask maskUnits="userSpaceOnUse" x="-10.7" y="-14.6" width="65.7" height="66" id="mask-24">
					<g class="st23">
						<path id="path-23" class="st1" d="M8.1,3.8c-5,2.8-7.7,8.2-7.2,13.9l0,0c0.6,5.9,4.5,10.7,10.2,12.6l0,0
							c3.6,1.2,6.5,2.5,8.8,3.5l0,0c3.5,1.6,6.2,2.8,9.1,2.5l0,0c1.4-0.1,2.8-0.6,4.3-1.5l0,0c6-3.5,9.3-9.8,8.6-16.8l0,0
							c-0.6-7.3-5.3-13.3-12-15.7l0,0c-3.6-1.3-6.8-2-9.8-2l0,0C16.1,0.2,12.3,1.4,8.1,3.8L8.1,3.8z M21,31.3
							c-2.4-1-5.3-2.3-9.1-3.6l0,0c-4.7-1.5-7.9-5.5-8.4-10.4l0,0C3.1,12.6,5.3,8.4,9.4,6l0,0c3.2-1.8,6.1-2.9,9.1-3.1l0,0
							c3.2-0.3,6.6,0.3,10.6,1.7l0,0c5.8,2.1,9.8,7.3,10.3,13.5l0,0c0.5,6-2.2,11.3-7.3,14.3l0,0c-1.4,0.8-2.6,1.2-3.9,1.2l0,0
							c0,0,0,0,0,0l0,0C26.2,33.6,24.1,32.7,21,31.3L21,31.3z"/>
					</g>
				</mask>
				<polygon id="Fill-34" class="st24" points="-10.7,9.4 30.5,-14.6 55,27.5 13.7,51.4 				"/>
			</g>
			<g id="Group-39" transform="translate(159.000000, 101.000000)">
				<g id="Clip-38">
				</g>
				<defs>
					<filter id="Adobe_OpacityMaskFilter_12_" filterUnits="userSpaceOnUse" x="-7" y="-8.8" width="57.1" height="55.8">
						<feColorMatrix  type="matrix" values="1 0 0 0 0  0 1 0 0 0  0 0 1 0 0  0 0 0 1 0"/>
					</filter>
				</defs>
				<mask maskUnits="userSpaceOnUse" x="-7" y="-8.8" width="57.1" height="55.8" id="mask-26">
					<g class="st25">
						<path id="path-25" class="st1" d="M0.7,13.7l11.6,23.1L39,26.4c-2.4-10.2-4.8-20.6-8.7-25.7l0,0C23,1.1,11.9,7.2,0.7,13.7
							L0.7,13.7z"/>
					</g>
				</mask>
				<polygon id="Fill-37" class="st26" points="-7,12.8 30.3,-8.8 50.1,25.3 12.9,46.9 				"/>
			</g>
			<g id="Group-42" transform="translate(164.000000, 104.000000)">
				<g id="Clip-41">
				</g>
				<defs>
					<filter id="Adobe_OpacityMaskFilter_13_" filterUnits="userSpaceOnUse" x="-6" y="-8.3" width="22.6" height="22.6">
						<feColorMatrix  type="matrix" values="1 0 0 0 0  0 1 0 0 0  0 0 1 0 0  0 0 0 1 0"/>
					</filter>
				</defs>
				<mask maskUnits="userSpaceOnUse" x="-6" y="-8.3" width="22.6" height="22.6" id="mask-28">
					<g class="st27">
						<path id="path-27" class="st1" d="M1.8,0.8C1.6,0.9,1.4,1,1.2,1.2l0,0C1,1.4,0.9,1.7,0.9,1.9l0,0c0,0.3,0,0.5,0.1,0.8l0,0
							C1,3,1.1,3.2,1.3,3.4l0,0c0.3,0.4,0.6,0.8,1,1l0,0C3.1,5,4,5.3,4.9,5.4l0,0c0.9,0.1,1.9,0,2.8-0.1l0,0
							c0.9-0.2,1.7-0.5,2.5-0.9l0,0l0,0l0,0c0,0-0.1,0-0.1-0.1l0,0C9.2,4.4,8.4,4.5,7.6,4.6l0,0c-0.4,0-0.9,0-1.3,0l0,0
							c-0.4,0-0.8-0.1-1.2-0.1l0,0C4.3,4.3,3.5,4.1,2.8,3.7l0,0C2.4,3.5,2.1,3.2,1.9,3l0,0C1.6,2.7,1.4,2.3,1.4,2l0,0
							c0-0.2,0-0.4,0.1-0.5l0,0C1.6,1.3,1.8,1.2,2,1.1l0,0c0.4-0.2,0.8-0.2,1.2-0.1l0,0C3.6,1,4,1.1,4.4,1.3l0,0
							c0.4,0.2,0.8,0.4,1.2,0.6l0,0c0.4,0.2,0.8,0.4,1.1,0.6l0,0c0.4,0.2,0.8,0.4,1.1,0.6l0,0c0.7,0.4,1.4,0.8,2.2,1.2l0,0
							c0,0,0.1,0,0.1,0l0,0l0,0l0,0C9.7,3.6,9,3,8.2,2.5l0,0C8.1,2.4,7.9,2.2,7.7,2.1l0,0C7.5,2,7.3,1.9,7.1,1.8l0,0
							C6.7,1.5,6.3,1.3,5.9,1.2l0,0C5,0.9,4.1,0.7,3.2,0.6l0,0c-0.1,0-0.2,0-0.3,0l0,0C2.5,0.6,2.2,0.7,1.8,0.8L1.8,0.8z"/>
					</g>
				</mask>
				<polygon id="Fill-40" class="st28" points="-6,0 8.3,-8.3 16.6,6 2.3,14.3 				"/>
			</g>
			<g id="Group-45" transform="translate(174.000000, 99.000000)">
				<g id="Clip-44">
				</g>
				<defs>
					<filter id="Adobe_OpacityMaskFilter_14_" filterUnits="userSpaceOnUse" x="-8.7" y="-6.3" width="23.2" height="21.9">
						<feColorMatrix  type="matrix" values="1 0 0 0 0  0 1 0 0 0  0 0 1 0 0  0 0 0 1 0"/>
					</filter>
				</defs>
				<mask maskUnits="userSpaceOnUse" x="-8.7" y="-6.3" width="23.2" height="21.9" id="mask-30">
					<g class="st29">
						<path id="path-29" class="st1" d="M4.3,0.7C3.9,0.9,3.5,1.2,3.1,1.5l0,0C2.5,2.2,1.9,2.9,1.4,3.7l0,0C1.2,4.1,1,4.5,0.8,5l0,0
							C0.8,5.2,0.7,5.4,0.6,5.6l0,0C0.6,5.8,0.5,6.1,0.4,6.3l0,0C0.2,7.2,0.1,8.1,0.1,8.9l0,0l0,0l0,0c0,0,0.1-0.1,0.1-0.1l0,0
							c0,0,0,0.1-0.1,0.1l0,0l0,0l0,0C1,8.8,1.9,8.4,2.7,7.9l0,0C3.6,7.4,4.3,6.9,5,6.1l0,0c0.7-0.7,1.2-1.6,1.4-2.5l0,0
							c0.1-0.5,0.2-1,0.1-1.5l0,0c0-0.2-0.1-0.5-0.2-0.7l0,0C6.2,1.2,6,1,5.8,0.8l0,0C5.6,0.7,5.4,0.6,5.1,0.5l0,0c0,0-0.1,0-0.1,0
							l0,0C4.7,0.5,4.5,0.6,4.3,0.7L4.3,0.7z M1.1,6.5C1.3,6,1.5,5.6,1.6,5.2l0,0C1.8,4.8,2,4.4,2.1,4l0,0c0.2-0.4,0.3-0.8,0.5-1.2
							l0,0C2.8,2.4,3.1,2,3.4,1.7l0,0C3.7,1.4,4,1.1,4.4,0.9l0,0c0.2-0.1,0.4-0.1,0.6,0l0,0c0.2,0,0.3,0.1,0.4,0.3l0,0
							c0.2,0.3,0.3,0.7,0.3,1l0,0c0,0.4-0.1,0.8-0.2,1.2l0,0C5.3,4.2,4.8,4.9,4.2,5.5l0,0C3.9,5.8,3.6,6.2,3.3,6.5l0,0
							C3,6.8,2.7,7.1,2.3,7.3l0,0c-0.7,0.5-1.4,1-2.1,1.5l0,0C0.6,8,0.8,7.2,1.1,6.5L1.1,6.5z"/>
					</g>
				</mask>
				<polygon id="Fill-43" class="st30" points="-8.7,2.9 7.1,-6.3 14.5,6.4 -1.4,15.6 				"/>
			</g>
			<g id="Group-48" transform="translate(165.000000, 113.000000)">
				<g id="Clip-47">
				</g>
				<defs>
					<filter id="Adobe_OpacityMaskFilter_15_" filterUnits="userSpaceOnUse" x="-5.9" y="-6.2" width="19.8" height="17.8">
						<feColorMatrix  type="matrix" values="1 0 0 0 0  0 1 0 0 0  0 0 1 0 0  0 0 0 1 0"/>
					</filter>
				</defs>
				<mask maskUnits="userSpaceOnUse" x="-5.9" y="-6.2" width="19.8" height="17.8" id="mask-32">
					<g class="st31">
						<path id="path-31" class="st1" d="M6.8,0.6C6.8,0.6,6.8,0.6,6.8,0.6L6.8,0.6C6.4,0.9,5.7,1.5,5.3,2l0,0
							C4.3,2.1,3.2,3.3,2.3,2.6l0,0c0,0-0.1,0-0.1,0l0,0c-0.1,0-0.1,0.1-0.1,0.1l0,0C1.7,3.3,1.3,3.8,0.8,4.4l0,0
							C0.7,4.5,0.9,4.5,1,4.5l0,0c0,0,0.1,0,0.1-0.1l0,0C1.5,3.9,1.8,3.5,2.2,3l0,0c0.3,0.2,0.5,0.3,0.9,0.2l0,0
							C3.5,3,4.7,2.2,5,2.5l0,0C5,2.7,5,2.8,5.1,3l0,0c0,0,0.1,0,0.2,0l0,0c0.1,0,0.1-0.1,0.1-0.2l0,0c0-0.2,0-0.4,0-0.5l0,0
							c0.2-0.5,0.9-1,1.3-1.3l0,0c0,0.3,0,0.6-0.1,0.8l0,0c0,0.1,0.1,0.1,0.1,0.1l0,0c0.1,0,0.2-0.1,0.3-0.1l0,0
							c0,0,0.1-0.1,0.2-0.1l0,0c0.2-0.1,0.1-0.3-0.1-0.2l0,0c0,0,0,0,0,0l0,0c-0.1,0-0.1-0.8-0.1-0.9l0,0c0,0,0,0-0.1,0l0,0
							C7,0.6,6.9,0.6,6.8,0.6L6.8,0.6z"/>
					</g>
				</mask>
				<polygon id="Fill-46" class="st32" points="-5.9,2 8.4,-6.2 13.9,3.3 -0.4,11.6 				"/>
			</g>
			<g id="Group-51" transform="translate(169.000000, 116.000000)">
				<g id="Clip-50">
				</g>
				<defs>
					<filter id="Adobe_OpacityMaskFilter_16_" filterUnits="userSpaceOnUse" x="-6.1" y="-6.9" width="17.4" height="16.4">
						<feColorMatrix  type="matrix" values="1 0 0 0 0  0 1 0 0 0  0 0 1 0 0  0 0 0 1 0"/>
					</filter>
				</defs>
				<mask maskUnits="userSpaceOnUse" x="-6.1" y="-6.9" width="17.4" height="16.4" id="mask-34">
					<g class="st33">
						<path id="path-33" class="st1" d="M4.4,0.2C3.9,0.4,3.3,0.7,2.7,0.9l0,0C2.5,1,2.1,1,1.8,1.1l0,0c0,0-0.1,0.1-0.1,0.1l0,0
							C1.5,1.4,1.4,1.7,1.4,2.1l0,0C1.3,1.8,1.1,1.6,0.9,1.3l0,0c0,0-0.1,0-0.1,0l0,0c-0.1,0-0.1,0.1-0.1,0.1l0,0
							C0.5,1.7,0.4,1.8,0.4,2.2l0,0c0,0,0.1,0,0.2,0l0,0C0.6,2.1,0.7,2,0.7,2l0,0c0-0.1,0-0.1,0.1-0.2l0,0C1,2.2,1.3,2.6,1.5,3l0,0
							c0,0,0.1,0,0.1,0l0,0c0.1-0.1,0.2-0.2,0.2-0.2l0,0c0-0.5-0.1-1.2,0.3-1.5l0,0l0,0c0.1-0.1,0.4-0.1,0.5-0.1l0,0
							c0.6-0.2,1.2-0.5,1.7-0.7l0,0c0,0,0,0,0,0l0,0C4.5,0.3,4.6,0.2,4.4,0.2L4.4,0.2C4.5,0.2,4.5,0.2,4.4,0.2L4.4,0.2z"/>
					</g>
				</mask>
				<polygon id="Fill-49" class="st34" points="-6.1,0 5.8,-6.9 11.3,2.6 -0.6,9.6 				"/>
			</g>
			<g id="Group-54" transform="translate(166.000000, 118.000000)">
				<g id="Clip-53">
				</g>
				<defs>
					<filter id="Adobe_OpacityMaskFilter_17_" filterUnits="userSpaceOnUse" x="-5.5" y="-6.1" width="14.6" height="14.2">
						<feColorMatrix  type="matrix" values="1 0 0 0 0  0 1 0 0 0  0 0 1 0 0  0 0 0 1 0"/>
					</filter>
				</defs>
				<mask maskUnits="userSpaceOnUse" x="-5.5" y="-6.1" width="14.6" height="14.2" id="mask-36">
					<g class="st35">
						<path id="path-35" class="st1" d="M2.1,0.4c-0.1,0-0.3,0.1-0.4,0.1l0,0C1.3,0.8,1,1.1,1,1.4l0,0c0,0.1,0,0.1,0.1,0.1l0,0
							c0.3,0,0.5-0.1,0.8-0.3l0,0l0,0C2,1.2,2.1,1.1,2.1,1l0,0c0-0.1-0.2-0.1-0.2,0l0,0C1.7,1.1,1.6,1.1,1.4,1.2l0,0
							c0-0.1,0.1-0.3,0.3-0.4l0,0c0.1,0,0.1-0.1,0.2,0l0,0c0.1,0,0.2,0.1,0.2,0.2l0,0c0,0.1,0,0.1,0,0.2l0,0c0,0.1,0.1,0.1,0.2,0
							l0,0c0.1,0,0.2-0.1,0.2-0.2l0,0c0-0.1,0.1-0.2,0.1-0.2l0,0c0,0,0,0,0,0l0,0c0-0.1,0-0.1,0-0.1l0,0C2.5,0.5,2.4,0.4,2.1,0.4
							L2.1,0.4C2.1,0.4,2.1,0.4,2.1,0.4L2.1,0.4z"/>
					</g>
				</mask>
				<polygon id="Fill-52" class="st36" points="-5.5,-0.6 4,-6.1 9.1,2.6 -0.5,8.1 				"/>
			</g>
			<g id="Group-57" transform="translate(167.000000, 118.000000)">
				<g id="Clip-56">
				</g>
				<defs>
					<filter id="Adobe_OpacityMaskFilter_18_" filterUnits="userSpaceOnUse" x="-5.6" y="-7.3" width="19.8" height="17.8">
						<feColorMatrix  type="matrix" values="1 0 0 0 0  0 1 0 0 0  0 0 1 0 0  0 0 0 1 0"/>
					</filter>
				</defs>
				<mask maskUnits="userSpaceOnUse" x="-5.6" y="-7.3" width="19.8" height="17.8" id="mask-38">
					<g class="st37">
						<path id="path-37" class="st1" d="M6,0.1c-0.1,0-0.2,0.1-0.1,0.2l0,0C5.9,0.6,6,1,6,1.3l0,0c0,0.1,0,0.1,0,0.2l0,0
							c0,0,0-0.1-0.1-0.2l0,0C5.7,1.1,5.6,1,5.4,0.9l0,0c0,0-0.1,0-0.2,0l0,0C5.2,1,5.2,1,5.2,1l0,0C5,1.2,4.9,1.4,4.7,1.5l0,0
							c-0.3,0.2-0.6,0.2-1,0.3l0,0C3.4,1.9,3,1.9,2.7,2.1l0,0c0,0,0,0,0,0l0,0C2.5,2.2,2.4,2.4,2.2,2.6l0,0C2.1,2.6,2.1,2.7,2,2.7
							l0,0c-0.1,0.1-0.2,0-0.4-0.1l0,0C1.5,2.6,1.4,2.4,1.3,2.4l0,0c0,0-0.1,0-0.1,0l0,0C1.1,2.4,1,2.5,1,2.6l0,0
							C0.9,2.9,0.9,3,1.1,3.4l0,0c0,0.1,0.1,0.1,0.2,0l0,0c0.1,0,0.1-0.1,0.1-0.2l0,0c0-0.1-0.1-0.2-0.1-0.3l0,0
							c0.1,0.2,0.3,0.4,0.5,0.4l0,0c0,0,0.1,0,0.1,0l0,0c0.1,0,0.1-0.1,0.2-0.1l0,0c0.3-0.3,0.3-0.5,0.6-0.6l0,0
							c0.1-0.1,0.2-0.1,0.3-0.1l0,0C3.6,2.1,4.2,2,4.7,1.8l0,0c0.2-0.1,0.4-0.3,0.6-0.5l0,0C5.5,1.4,5.7,1.6,6,1.7l0,0
							c0,0,0.1,0,0.1,0l0,0c0,0,0.1-0.1,0.1-0.1l0,0c0.2-0.3,0.1-0.7,0-1.1l0,0C6.5,0.6,6.7,0.7,7,0.9l0,0c0,0,0.1,0,0.2,0l0,0
							c0,0,0.1,0,0.1-0.1l0,0c0,0,0.3-0.3,0.3-0.3l0,0c0,0,0.1,0,0.2,0l0,0c0.1-0.1,0.2-0.2,0.1-0.2l0,0c0,0,0-0.1-0.1-0.1l0,0
							c0,0-0.1,0-0.1,0l0,0c-0.1,0-0.2,0-0.2,0.1l0,0C7.3,0.3,7.2,0.4,7.1,0.5l0,0c-0.3-0.2-0.6-0.4-1-0.5l0,0c0,0,0,0,0,0l0,0
							C6,0,6,0.1,6,0.1L6,0.1z"/>
					</g>
				</mask>
				<polygon id="Fill-55" class="st38" points="-5.6,1 8.7,-7.3 14.2,2.2 -0.1,10.5 				"/>
			</g>
			<g id="Group-60" transform="translate(165.000000, 108.000000)">
				<g id="Clip-59">
				</g>
				<defs>
					<filter id="Adobe_OpacityMaskFilter_19_" filterUnits="userSpaceOnUse" x="-12" y="-12.8" width="52.9" height="51.2">
						<feColorMatrix  type="matrix" values="1 0 0 0 0  0 1 0 0 0  0 0 1 0 0  0 0 0 1 0"/>
					</filter>
				</defs>
				<mask maskUnits="userSpaceOnUse" x="-12" y="-12.8" width="52.9" height="51.2" id="mask-40">
					<g class="st39">
						<path id="path-39" class="st1" d="M9,0.5l0.7,1.5l0.7,1.5l1.4,3l1.4,3l1.4,3c0.1,0.2,0.2,0.4,0.3,0.6l0,0l-0.1,0
							c-0.6,0.2-1.2,0.5-1.8,0.7l0,0c-0.6,0.2-1.2,0.5-1.8,0.8l0,0c-1.2,0.5-2.4,1.1-3.5,1.7l0,0c-1.1,0.6-2.3,1.3-3.4,2l0,0
							c-0.6,0.3-1.1,0.7-1.6,1.1l0,0C2,19.9,1.5,20.3,1,20.7l0,0L1,20.8c0.6-0.2,1.3-0.4,1.9-0.6l0,0c0.6-0.2,1.2-0.5,1.8-0.7l0,0
							c1.2-0.5,2.4-1,3.6-1.6l0,0c1.2-0.6,2.3-1.2,3.4-1.9l0,0c0.6-0.3,1.1-0.6,1.7-1l0,0c0.6-0.3,1.1-0.7,1.6-1.1l0,0l0,0
							c0.3,0.6,0.5,1.1,0.8,1.7l0,0c0.5,1,1,2,1.5,3l0,0c0.5,1,1.1,1.9,1.7,2.9l0,0c0.6,0.9,1.2,1.9,1.9,2.7l0,0l0.1-0.1
							c-0.3-1.1-0.7-2.1-1.1-3.2l0,0c-0.4-1-0.8-2.1-1.3-3.1l0,0c-0.5-1-1-2-1.5-3l0,0c-0.3-0.6-0.7-1.1-1-1.7l0,0
							c0.7-0.4,1.4-0.8,2.2-1.2l0,0c1.2-0.6,2.4-0.9,3.7-1.4l0,0c0.6-0.3,1.2-0.5,1.8-0.9l0,0c0.6-0.3,1.1-0.6,1.7-1l0,0
							c0.6-0.3,1.1-0.7,1.6-1.1l0,0c0.5-0.4,1.1-0.8,1.6-1.2l0,0l-0.1-0.1c-0.6,0.2-1.3,0.4-1.9,0.6l0,0c-0.6,0.2-1.2,0.5-1.8,0.7
							l0,0c-0.6,0.3-1.2,0.5-1.8,0.8l0,0c-0.6,0.3-1.2,0.6-1.7,0.9l0,0c-1.1,0.7-2.1,1.5-3.3,2.1l0,0c-0.7,0.4-1.5,0.8-2.2,1.1l0,0
							c-0.1-0.2-0.2-0.4-0.4-0.6l0,0L14,9.2l-1.6-2.9l-1.6-2.9L9.9,1.9L9.1,0.5L9,0.5z"/>
					</g>
				</mask>
				<polygon id="Fill-58" class="st40" points="-12,7.4 22.8,-12.8 40.8,18.1 5.9,38.4 				"/>
			</g>
			<g id="Group-63" transform="translate(173.000000, 99.000000)">
				<g id="Clip-62">
				</g>
				<defs>
					<filter id="Adobe_OpacityMaskFilter_20_" filterUnits="userSpaceOnUse" x="-21.3" y="-5.7" width="54.6" height="55.4">
						<feColorMatrix  type="matrix" values="1 0 0 0 0  0 1 0 0 0  0 0 1 0 0  0 0 0 1 0"/>
					</filter>
				</defs>
				<mask maskUnits="userSpaceOnUse" x="-21.3" y="-5.7" width="54.6" height="55.4" id="mask-42">
					<g class="st41">
						<path id="path-41" class="st1" d="M10.4,0.9c-2.1,3.4-4,7-5.5,10.7l0,0c-1.1,2.7-2.1,5.6-2.9,8.4l0,0l0,0.1
							c-1.6,5.6-2.2,11.5-1.8,17.3l0,0c0.1,1.7,0.2,3.4,0.4,5.1l0,0c0.1,0.8,1.1,0.9,1.3,0.2l0,0c0.7-2.8,1.5-5.5,2.3-8.3l0,0
							c0.9-3.2,1.5-6.4,1.8-9.7l0,0c0.1-1.2,0.2-2.5,0.4-3.7l0,0c0.4-2.8,0.8-5.7,1.4-8.5l0,0c0.8-3.8,2-7.6,3.5-11.2l0,0
							c0.2-0.4-0.2-0.7-0.5-0.7l0,0C10.7,0.7,10.5,0.7,10.4,0.9L10.4,0.9z"/>
					</g>
				</mask>
				<polygon id="Fill-61" class="st42" points="-21.3,14 12.6,-5.7 33.3,30 -0.6,49.7 				"/>
			</g>
			<g id="Group-66" transform="translate(172.000000, 101.000000)">
				<g id="Clip-65">
				</g>
				<defs>
					<filter id="Adobe_OpacityMaskFilter_21_" filterUnits="userSpaceOnUse" x="-7.2" y="-12.8" width="45.2" height="52.5">
						<feColorMatrix  type="matrix" values="1 0 0 0 0  0 1 0 0 0  0 0 1 0 0  0 0 0 1 0"/>
					</filter>
				</defs>
				<mask maskUnits="userSpaceOnUse" x="-7.2" y="-12.8" width="45.2" height="52.5" id="mask-44">
					<g class="st43">
						<path id="path-43" class="st1" d="M0.1,1.2c0,0.9,0,1.8,0.1,2.6l0,0c0.5-0.1,0.9-0.2,1.4-0.2l0,0C5,3.2,8.4,3.8,12.5,5.2l0,0
							c6,2,10,7.2,10.5,13.5l0,0c0.4,5.1-1.6,9.7-5.3,12.9l0,0c1.4-0.1,2.8-0.4,4.2-0.6l0,0c2.8-3.5,4.1-7.9,3.8-12.5l0,0
							c-0.5-7.3-5.2-13.4-12.2-15.7l0,0C9.9,1.5,6.8,0.9,3.8,0.9l0,0C2.5,0.9,1.3,1,0.1,1.2L0.1,1.2z"/>
					</g>
				</mask>
				<polygon id="Fill-64" class="st44" points="-7.2,0.1 15,-12.8 38,26.9 15.8,39.8 				"/>
			</g>
			<g id="Group-69" transform="translate(3.000000, 93.000000)">
				<g id="Clip-68">
				</g>
				<defs>
					<filter id="Adobe_OpacityMaskFilter_22_" filterUnits="userSpaceOnUse" x="-4.9" y="-5" width="132" height="74">
						<feColorMatrix  type="matrix" values="1 0 0 0 0  0 1 0 0 0  0 0 1 0 0  0 0 0 1 0"/>
					</filter>
				</defs>
				<mask maskUnits="userSpaceOnUse" x="-4.9" y="-5" width="132" height="74" id="mask-46">
					<g class="st45">
						<path id="path-45" class="st1" d="M0.1,6l20.6,50.8l88.9,7.2l12.5-50.3L91.5,0C57,0,23.9,0.7,0.1,6L0.1,6z"/>
					</g>
				</mask>
				<polygon id="Fill-67" class="st46" points="-4.9,69 127.1,69 127.1,-5 -4.9,-5 				"/>
			</g>
			<g id="Group-72" transform="translate(0.000000, 99.000000)">
				<g id="Clip-71">
				</g>
				<defs>
					<filter id="Adobe_OpacityMaskFilter_23_" filterUnits="userSpaceOnUse" x="-4.9" y="-5" width="108" height="81">
						<feColorMatrix  type="matrix" values="1 0 0 0 0  0 1 0 0 0  0 0 1 0 0  0 0 0 1 0"/>
					</filter>
				</defs>
				<mask maskUnits="userSpaceOnUse" x="-4.9" y="-5" width="108" height="81" id="mask-48">
					<g class="st47">
						<path id="path-47" class="st1" d="M0.1,1.9V53l32,18l66-10L28.5,10.2L2.6,0.1C2.4,0,2.1,0,1.9,0l0,0C0.9,0,0.1,0.8,0.1,1.9
							L0.1,1.9z"/>
					</g>
				</mask>
				<polygon id="Fill-70" class="st48" points="-4.9,76 103.1,76 103.1,-5 -4.9,-5 				"/>
			</g>
			<g id="Group-75" transform="translate(28.000000, 106.000000)">
				<g id="Clip-74">
				</g>
				<defs>
					<filter id="Adobe_OpacityMaskFilter_24_" filterUnits="userSpaceOnUse" x="-4.9" y="-4" width="112" height="73">
						<feColorMatrix  type="matrix" values="1 0 0 0 0  0 1 0 0 0  0 0 1 0 0  0 0 0 1 0"/>
					</filter>
				</defs>
				<mask maskUnits="userSpaceOnUse" x="-4.9" y="-4" width="112" height="73" id="mask-50">
					<g class="st49">
						<path id="path-49" class="st1" d="M1.3,3.7c-1.8,14.5-1.4,34.7-0.2,56.8l0,0c0.1,2,1.8,3.5,3.8,3.5l0,0
							c36.4-0.2,73.8-0.3,89.8-1l0,0c2.6-0.1,4.8-1.9,5.3-4.4l0,0c2.4-10.8,2.5-30,1.4-53l0,0c-0.1-2.4-2.1-4.4-4.6-4.4l0,0
							C80.8,1.2,63.3,1,47.6,1l0,0C25.2,1,6.4,1.5,1.3,3.7L1.3,3.7z"/>
					</g>
				</mask>
				<polygon id="Fill-73" class="st50" points="-4.9,69 107.1,69 107.1,-4 -4.9,-4 				"/>
			</g>
			<g id="Group-78" transform="translate(37.000000, 118.000000)">
				<g id="Clip-77">
				</g>
				<defs>
					<filter id="Adobe_OpacityMaskFilter_25_" filterUnits="userSpaceOnUse" x="-4.9" y="-5" width="30" height="13">
						<feColorMatrix  type="matrix" values="1 0 0 0 0  0 1 0 0 0  0 0 1 0 0  0 0 0 1 0"/>
					</filter>
				</defs>
				<mask maskUnits="userSpaceOnUse" x="-4.9" y="-5" width="30" height="13" id="mask-52">
					<g class="st51">
						<path id="path-51" class="st1" d="M0.1,1c2.3,0,4.5-0.1,6.7,0l0,0c4.5-0.3,9,0.1,13.3,2l0,0c-4.2-2.2-8.8-3-13.3-3l0,0
							C4.5,0.2,2.3,0.6,0.1,1L0.1,1z"/>
					</g>
				</mask>
				<polygon id="Fill-76" class="st52" points="-4.9,8 25.1,8 25.1,-5 -4.9,-5 				"/>
			</g>
			<g id="Group-81" transform="translate(39.000000, 122.000000)">
				<g id="Clip-80">
				</g>
				<defs>
					<filter id="Adobe_OpacityMaskFilter_26_" filterUnits="userSpaceOnUse" x="-4.9" y="-5" width="28" height="13">
						<feColorMatrix  type="matrix" values="1 0 0 0 0  0 1 0 0 0  0 0 1 0 0  0 0 0 1 0"/>
					</filter>
				</defs>
				<mask maskUnits="userSpaceOnUse" x="-4.9" y="-5" width="28" height="13" id="mask-54">
					<g class="st53">
						<path id="path-53" class="st1" d="M6,0.1C4.9,0.3,4.1,1,3.1,1.3l0,0c-1,0.3-2,0.4-3,0.4l0,0c1,0,2,0.1,3.1-0.1l0,0
							c1-0.2,2-0.8,2.9-1l0,0C7,0.5,8,1,9,1.3l0,0c1,0.4,2,0.7,3,1l0,0C14,2.7,16,2.9,18.1,3l0,0c-2-0.4-4-1-6-1.7l0,0
							c-1-0.2-2-0.5-3-0.7l0,0C8.3,0.3,7.5,0,6.6,0l0,0C6.4,0,6.2,0,6,0.1L6,0.1z"/>
					</g>
				</mask>
				<polygon id="Fill-79" class="st54" points="-4.9,8 23.1,8 23.1,-5 -4.9,-5 				"/>
			</g>
			<g id="Group-84" transform="translate(94.000000, 106.000000)">
				<g id="Clip-83">
				</g>
				<defs>
					<filter id="Adobe_OpacityMaskFilter_27_" filterUnits="userSpaceOnUse" x="-4.9" y="-4" width="32" height="32">
						<feColorMatrix  type="matrix" values="1 0 0 0 0  0 1 0 0 0  0 0 1 0 0  0 0 0 1 0"/>
					</filter>
				</defs>
				<mask maskUnits="userSpaceOnUse" x="-4.9" y="-4" width="32" height="32" id="mask-56">
					<g class="st55">
						<path id="path-55" class="st1" d="M0.2,1c0.5,6.8,0.4,14.3-0.1,22l0,0C9.8,22.1,18,20.6,22,17.5l0,0
							c0.5-4.9-0.9-10.3-1.2-16.4l0,0C16.4,1,12.2,1,8.1,1l0,0C5.4,1,2.7,1,0.2,1L0.2,1z"/>
					</g>
				</mask>
				<polygon id="Fill-82" class="st56" points="-4.9,28 27.1,28 27.1,-4 -4.9,-4 				"/>
			</g>
			<g id="Group-91" transform="translate(98.000000, 111.000000)">
				<path id="Fill-85" class="st57" d="M0.2,1.3C0.6,2.4,1.9,3,3,3c0.6,0,1.1-0.2,1.5-0.5c0.4-0.3,0.8-0.9,1.3-1.3
					C6.1,1,6.5,0.7,7,0.8C7.5,0.9,7.9,1.2,8,1.5c0.4,0.6,0.6,1.1,0.8,1.1C9.1,2.7,9.6,2.2,10,1.8c0.3-0.2,0.6-0.4,0.9-0.5
					c0.3-0.1,0.8,0,0.9,0.4l-0.1,0.1c-0.2-0.2-0.5-0.1-0.7,0c-0.2,0.1-0.4,0.3-0.6,0.5c-0.2,0.2-0.4,0.5-0.6,0.8
					C9.7,3.3,9.3,3.6,8.8,3.6c-0.5,0-0.9-0.4-1.1-0.7C7.5,2.5,7.4,2.3,7.2,2C7,1.6,6.8,1.6,6.3,1.8C5.8,2.1,5.5,2.6,4.9,3
					C4.3,3.4,3.6,3.5,3,3.5C1.7,3.4,0.4,2.5,0.2,1.3L0.2,1.3z"/>
				<path id="Fill-87" class="st57" d="M0.2,6.5c0.9,0.8,2.2,1.2,3.3,1.1c0.6-0.1,1.1-0.2,1.7-0.5c0.5-0.3,1-0.7,1.5-1
					c0.5-0.4,1.2-0.7,1.9-0.8c0.7-0.1,1.4,0.1,2,0.4c0.6,0.3,1.1,0.5,1.7,0.7c0.5,0.2,1.1,0.2,1.7,0L14,6.4
					c-0.5,0.5-1.2,0.7-1.9,0.6c-0.7,0-1.3-0.3-1.9-0.5C9.7,6.4,9.2,6.2,8.7,6.2c-0.5,0-1,0.2-1.6,0.5C6.6,7,6.1,7.4,5.5,7.7
					C4.9,8,4.2,8.1,3.5,8.1C2.2,8.1,0.9,7.6,0.2,6.5L0.2,6.5z"/>
				<path id="Fill-89" class="st57" d="M0.1,11.4c0.5,0.5,1.1,0.9,1.8,1.1c0.7,0.2,1.4,0.2,2-0.1C5.3,12,6.3,11,7.6,10.1
					c0.6-0.4,1.3-0.8,2.1-1c0.4-0.1,0.9-0.1,1.3,0.1c0.4,0.2,0.7,0.4,1,0.6c0.5,0.3,1.2,0.4,1.9,0.4c0.7,0,1.4-0.1,2.1-0.2l0,0.1
					c-0.6,0.4-1.3,0.7-2.1,0.8c-0.7,0.2-1.6,0.2-2.4-0.2c-0.4-0.2-0.7-0.4-0.9-0.5c-0.2-0.1-0.5-0.1-0.8-0.1
					c-0.6,0.1-1.3,0.3-1.9,0.7c-1.2,0.7-2.4,1.7-3.9,2.1c-0.7,0.2-1.6,0.1-2.3-0.1C1.2,12.5,0.6,12,0.1,11.4L0.1,11.4z"/>
			</g>
		</g>
	</g>
</g>
</svg>
