<?xml version="1.0" encoding="UTF-8"?>
<svg width="190px" height="199px" viewBox="0 0 190 199" version="1.1" xmlns="http://www.w3.org/2000/svg" xmlns:xlink="http://www.w3.org/1999/xlink">
    <!-- Generator: Sketch 55.2 (78181) - https://sketchapp.com -->
    <title>Group 39</title>
    <desc>Created with Sketch.</desc>
    <g id="DS-Pillar" stroke="none" stroke-width="1" fill="none" fill-rule="evenodd">
        <g id="Home" transform="translate(-488.000000, -1926.000000)">
            <g id="Group-39" transform="translate(488.000000, 1926.000000)">
                <path d="M83.5757338,197.829027 C63.6399467,201.490719 45.0603355,196.553678 34.1446957,183.172779 L31.0286448,179.354631 C7.63460886,150.682179 -8.8334678,150.563653 5.14302971,112.416949 C7.04325305,107.231791 8.33635109,102.495455 9.09959433,98.1684327 L11.3262461,85.5476863 C12.9252722,76.4795868 22.0715754,61.7632845 37.494135,44.0111127 C60.0334647,18.0679406 136.802488,-54.2018731 186.473222,72.9775114 C186.812266,73.8498696 186.689264,73.5543425 186.57257,73.2603957 C186.503184,73.0833955 186.436952,72.9079757 186.473222,72.9775114 C195.226865,90.3108881 187.510854,111.291733 165.267991,133.914571 C158.819847,140.474641 152.42532,147.491435 145.559285,154.367577 C123.57031,176.385137 96.300134,195.491676 83.5757338,197.829027" id="Fill-1" fill="#E6E6E6"></path>
                <path d="M20.9859132,77.7944056 C21.5384328,78.5810196 22.8723729,79.9924841 23.846386,79.2169716 C24.3436536,78.8220787 24.2931375,78.1512366 24.4241636,77.5644479 C24.6404355,76.5859382 24.9577396,75.8104257 25.7880976,75.2141215 C25.9491176,75.0983497 26.2190629,75.1713018 26.3090446,75.3425807 C26.8205199,76.3068171 27.3635677,77.2234761 28.2112906,77.8943183 C28.4259839,76.7191551 28.9532454,75.1110371 30.3566451,75.6565919 C32.0915566,76.3306059 32.0268329,78.8680702 32.8303542,80.2224418 C33.225011,80.8901122 33.9085567,81.1264135 34.5794733,81.454698 C35.6592544,81.9812218 36.7169347,82.5822837 37.8061876,83.0834329 C40.33357,84.2443229 40.7361199,80.2367151 42.6352086,79.7054335 C43.8381227,79.3692195 44.8437083,80.818746 45.1168108,81.8178726 C45.5809273,83.5195596 44.9621054,85.5796635 44.5311401,87.2194999 C43.9659915,89.3747587 43.4071574,91.3634964 43.2429802,93.5996368 C43.129319,95.1348028 42.9493555,96.9744645 43.6739454,98.3906868 C44.2122574,99.4437345 45.1562765,100.212903 45.912439,101.09943 C47.5652619,103.035832 48.7287102,105.356026 50.2678719,107.382826 C52.4590066,110.269192 54.9090363,111.593431 58.2083674,112.920842 C59.6812267,113.512389 61.7255492,114.12931 62.8621609,115.318746 C64.3397561,116.868185 64.4534172,119.635607 64.8875397,121.611658 C65.6105511,124.904018 66.7424269,127.849062 68.2531732,130.857543 C69.5397545,133.417211 70.7284609,136.038729 70.859487,138.942539 C70.9431542,140.83295 70.884745,142.651995 71.8477077,144.364783 C72.5470396,145.609727 73.5905123,146.623127 74.3166809,147.847453 C75.8274273,150.397605 76.1747253,153.483796 77.7059938,156.026018 C79.2341051,158.563483 81.594153,159.277144 84.1010132,160.445964 C85.8564468,161.264296 87.52032,162.266595 89.2804895,163.075411 C90.0997971,163.451273 91.0895965,163.998414 92.0178293,164 C93.582249,164 94.1174037,162.904133 93.1260257,161.752758 C92.0904462,160.550634 90.396579,159.410361 88.8321593,159.06939 C88.6316737,159.02657 88.5085407,158.798198 88.5606354,158.604716 C88.8795182,157.408936 89.8519526,155.772272 88.6648248,154.796934 C88.096519,154.330675 87.401923,154.283097 87.1635502,153.491726 C86.906234,152.635331 87.5534712,151.639377 87.8786684,150.901926 C88.914248,148.557943 86.918863,148.343845 85.846975,147.01009 C85.7475215,146.887975 85.6764833,146.697665 85.7806727,146.550175 C87.0877761,144.718443 89.6719891,144.815183 90.2387163,142.388733 C90.2860751,142.18415 90.5055043,142.069964 90.7012541,142.115956 C93.6075071,142.796313 94.0874098,140.059024 92.3067181,138.630114 C92.2025287,138.649145 92.0920248,138.630114 91.9909927,138.544475 C91.8757529,138.446148 91.7889284,138.338306 91.6942107,138.232049 L91.6831603,138.227292 C91.5900213,138.179714 91.5395052,138.11152 91.5126686,138.038568 C90.5970647,136.83803 90.8101794,135.291762 91.4889892,133.897743 C91.5884427,133.696332 91.8268154,133.677301 92.0067789,133.755011 C93.612243,134.441712 94.2468512,134.300565 95.268223,133.000115 C95.9280893,132.161166 96.6432075,131.44116 97.4562005,130.751287 C99.5352528,128.982992 102.188925,127.284476 102.16051,124.203043 C102.141567,122.103291 101.710601,120.29852 102.566217,118.257447 C103.393418,116.282982 104.919951,114.722442 106.568038,113.414062 C108.25559,112.073963 110.099427,110.879769 111.491776,109.208215 C113.20143,107.15604 113.794994,104.639193 113.802887,102.00023 C113.815516,97.7848672 112.663118,93.7391974 114.30489,89.6633952 C114.792686,88.451756 115.840895,87.2036407 115.982971,85.8968466 C116.153463,84.3156891 115.015273,83.3229061 113.843931,82.5109175 C112.386858,81.5054473 110.768765,80.9091431 109.158565,80.2145123 C107.881456,79.6641997 106.654862,78.9806702 105.286192,78.666659 C103.925415,78.3542337 102.610419,78.4953802 101.243328,78.630183 C99.4547428,78.8046336 97.4388356,78.9251632 95.8223212,77.9752 C94.8372578,77.3979268 94.1395045,76.4432058 93.1197112,75.9087524 C92.0588736,75.3520962 90.9159474,75.3520962 89.7730212,75.1284821 C88.1486137,74.8112991 87.2156449,74.0659189 86.2574181,72.7480234 C84.6235388,70.5007815 82.7370792,69.2146042 79.8087254,69.9457111 C78.2032614,70.3469477 76.7493456,70.8147927 75.0696861,70.5943505 C71.4593654,70.1185759 68.5357475,67.3685989 64.8180801,67.3463961 C63.7746075,67.3416383 62.8321669,67.7143284 61.9007768,68.0870185 C60.8257316,68.5168015 59.7633154,68.9481705 58.574609,68.7959226 C57.718993,68.6849085 57.0054534,68.4311621 56.1072144,68.4866691 C54.6438269,68.5770663 53.2056974,69.1035901 51.7944045,69.4604211 C51.5670822,69.517514 51.3002942,69.3557507 51.3097659,69.0988324 C51.4218485,66.1188977 46.9859056,69.236807 46.3291966,70.4801646 C45.366234,72.3071389 45.9629551,74.7621357 43.8160219,75.8167693 C43.5650202,75.9404707 43.2445588,75.804082 43.2414015,75.4948285 C43.222458,73.3506711 40.346199,75.9039947 39.6373953,76.4114875 C39.0296238,76.8492001 38.3587072,77.4803944 37.575708,77.1727269 C35.4856054,76.3543946 37.6972623,72.3309276 37.724099,70.4214857 C36.1865159,71.0986715 34.7436505,71.1478349 33.0276826,70.8576124 C32.8619267,70.8306518 32.7498442,70.6498575 32.7435297,70.4944378 C32.704064,69.5825365 32.7940458,66.3298244 31.66217,66.038016 C30.7481447,65.8017146 29.586275,67.0593454 29.0400699,67.6493059 C28.0407988,68.7261423 27.2704287,69.9917027 26.1148735,70.9131194 C25.904916,71.0796405 25.6318135,70.8940884 25.5528821,70.6926772 C23.5196101,65.4591569 29.958831,61.6878505 32.7182717,58.3336398 C33.7822665,57.0411189 35.021489,54.4893813 36.8874265,54.2435644 C37.6641111,54.1420658 38.3618644,54.5766066 38.9712146,54.9952882 C39.2932546,55.2173164 39.7652641,55.7263951 40.17255,55.7803163 C41.3470487,55.9404937 42.2358159,54.1325503 42.5168116,53.2301646 C42.9019967,51.986807 42.8862104,50.6530523 43.3661131,49.4318976 C43.8223364,48.2773513 44.6763738,47.2671233 45.6282861,46.4884389 C47.8557293,44.6693941 50.5472889,43.7781098 52.6200266,41.6910453 C54.5380588,39.7594006 56.1024786,37.486784 58.2162606,35.7517928 C59.7759444,34.4735451 61.4903337,33.7693987 63.3610071,33.1144157 C66.4851106,32.0233061 73.0206278,30.2010895 72.9843194,26 C47.7515399,32.3896525 36.1391571,30.2454951 19,75.5408201 C19.8935031,76.0498989 20.3655127,76.9110508 20.9859132,77.7944056" id="Fill-3" fill="#247DC9"></path>
                <path d="M107.9592,32.0322974 C109.934315,33.4377993 112.296177,34.2124853 114.307898,35.5658144 C116.004492,36.7088716 117.27455,38.20449 117.901621,40.1617581 C118.753101,42.8162436 118.878833,45.4391092 120.287356,47.9354955 C123.083712,52.8855814 127.931577,56.7969555 132.155554,60.4948957 C134.278684,62.3541422 135.836812,64.6244467 137.772139,66.6496974 C139.795001,68.7666456 141.91813,69.272563 144.717669,68.88522 C146.912418,68.5816695 149.096026,68.2338513 151.211198,69.0970729 C153.04944,69.8480441 154.553456,71.2203451 155.86012,72.6748577 C158.761518,75.9016623 161.511718,79.3719397 162.630579,83.620065 C165.083159,92.9210407 162.240649,102.574578 162.409353,111.98148 C162.453917,114.495257 161.879367,116.76398 161.064492,119.132306 C160.192322,121.660313 159.060729,124.47764 159.700533,127.18746 C160.160491,129.143148 161.422591,130.619794 162.856579,132 C166.650837,122.706929 167.176049,112.439967 168.535234,101.867874 C173.755523,61.2885536 133.861697,39.2716596 106,27 C106.035014,28.9414581 106.203719,30.7833138 107.9592,32.0322974" id="Fill-5" fill="#247DC9"></path>
                <path d="M128.004654,166.628157 C124.359563,169.615067 119.211572,171.038084 114.633978,171.861186 C111.190768,172.480095 103.929425,173.404502 103.169964,168.559281 C103.061012,167.861227 103.113886,167.017547 102.72294,166.392306 C101.750381,164.831578 100.135326,165.623023 99.3181841,166.776948 C98.4882248,167.948286 98.603586,169.322233 97.9851221,170.548971 C96.7834435,172.939133 93.199237,173.969593 90.7862665,174.510941 C89.3041963,174.843347 87.8493642,174.984224 86.3288403,174.954149 C83.6515005,174.901914 81.9691506,175.22324 80.363708,177.489936 C80.2387335,177.664054 80.1185656,177.833423 80,177.998044 C84.0744914,178.586878 88.2835707,179.36091 92.4974568,178.813231 C133.77912,173.436159 129.475509,171.384736 143,159.722015 C137.92411,156.768345 131.65295,163.638081 128.004654,166.628157" id="Fill-7" fill="#247DC9"></path>
                <path d="M101.088058,155 L101.063447,155.005486 C99.242181,155.036574 96.2969812,154.963426 96,157.444999 C97.7572752,157.247497 98.6498595,158.125283 100.133124,159.282862 C100.858349,159.847937 101.755856,160.268542 102.650081,159.794904 C103.732996,159.222515 104.530415,157.338933 103.568918,156.323993 C102.953625,155.674798 101.97572,155.281623 101.088058,155" id="Fill-9" fill="#247DC9"></path>
                <path d="M58.5898655,58.9074623 C57.8169051,58.3294239 55.6932161,59.7284444 54.9249404,60.0652146 C53.3524736,60.7538343 51.745653,61.4608841 50.0685633,61.7926279 C47.3983366,62.3220776 45.8446082,61.1190875 46.1194386,58.3528805 C43.7053038,58.3260729 44.4548412,55.9401985 45.0654017,54.031834 L44.9139327,54 C42.6387747,54.9684238 43.798996,58.6795979 41.5847379,60.0936976 C40.7992853,60.5946643 39.8014637,60.70357 38.9426189,60.993427 C38.1431124,61.2631782 37.3685906,61.6083258 36.6752685,62.1193453 C35.5978087,62.9101688 35.74147,64.7548653 37.602821,64.3058384 C37.8807744,64.2388194 38.1743432,64.0193324 38.4257505,63.8769171 C39.6359409,63.1966748 41.133454,62.553293 41.8423913,64.3359969 C41.9954219,64.7213558 41.9829296,65.1301714 42.0094757,65.5373115 C42.0172834,65.6696739 41.9688758,65.8791081 42.0094757,66.0030932 C41.9220297,66.5409202 42.1828062,66.7838639 42.7918053,66.7319242 C43.0400895,66.8223998 43.2899353,66.9111999 43.5382195,67 C44.5485333,66.9195773 45.5369856,64.9894316 46.4223766,64.4348499 C47.7731053,63.5904111 49.3174644,63.6255961 50.8680697,63.6591056 C52.1828831,63.6892641 53.502381,63.7177471 54.7125715,63.2117541 C55.6416854,62.8213687 60.409055,60.2696224 58.5898655,58.9074623" id="Fill-11" fill="#247DC9"></path>
                <path d="M168.99394,100.562902 C168.205935,161.674867 135.348677,178.414451 92.5495868,178.992767 C49.7520787,179.571084 14.5877712,145.395092 14.0086354,102.656535 C13.4294995,59.9195587 42.011279,14.9546405 90.4529884,24.2266699 C132.489392,32.2741214 169.544594,57.8259256 168.99394,100.562902" id="Fill-13" fill="#247DC9"></path>
                <path d="M72.9843197,26 C47.75154,32.3896525 36.1391572,30.2454951 19,75.5408201 C19.8919245,76.0498989 20.363934,76.9110508 20.9859132,77.7944056 C21.4247716,78.4192562 22.359319,79.4421716 23.214935,79.4421716 C23.4327856,79.4421716 23.6474789,79.3755631 23.846386,79.2169716 C24.3436536,78.8220787 24.2931375,78.1512366 24.4241636,77.5644479 C24.6388569,76.5859382 24.9577396,75.8104257 25.7880976,75.2125356 C25.841771,75.1744737 25.9064947,75.1570286 25.972797,75.1570286 C26.108559,75.1570286 26.2490568,75.2283948 26.3090447,75.3425807 C26.8205199,76.3068171 27.3635677,77.2234761 28.2112906,77.8943183 C28.39599,76.8809185 28.8143263,75.5471637 29.8230691,75.5471637 C29.9856678,75.5471637 30.162474,75.5820539 30.3550666,75.6565919 C32.089978,76.3306059 32.0268329,78.8664843 32.8303543,80.2224418 C33.2250111,80.8885262 33.9069781,81.1264135 34.5794734,81.454698 C35.6592545,81.9812218 36.7169348,82.5822837 37.8061877,83.0834329 C38.1234918,83.2293371 38.4076447,83.2927737 38.664961,83.2927737 C40.4582816,83.2927737 40.9744928,80.1701066 42.6352088,79.7054335 C42.7551844,79.6721293 42.8751601,79.6562701 42.9903999,79.6562701 C44.032294,79.6562701 44.8705451,80.9186586 45.116811,81.8178726 C45.5809274,83.5195596 44.9605269,85.5796635 44.5311402,87.2179139 C43.9659916,89.3747587 43.4055789,91.3619105 43.2429803,93.5996368 C43.1293191,95.1348028 42.9493556,96.9744645 43.6739456,98.3906868 C44.2122575,99.4437345 45.1562767,100.212903 45.9124392,101.09943 C47.565262,103.035832 48.7287104,105.356026 50.267872,107.382826 C52.4590068,110.269192 54.9090365,111.593431 58.206789,112.919256 C59.6812269,113.512389 61.7255494,114.127724 62.8621611,115.318746 C64.3397563,116.868185 64.4534174,119.635607 64.88754,121.611658 C65.6105513,124.904018 66.7424271,127.847476 68.2531735,130.857543 C69.5381762,133.417211 70.7268826,136.038729 70.8579086,138.942539 C70.9431545,140.83295 70.8831667,142.651995 71.847708,144.364783 C72.5470399,145.609727 73.5905126,146.623127 74.3166812,147.847453 C75.8274275,150.397605 76.1747256,153.483796 77.7059941,156.026018 C79.2341054,158.563483 81.5941533,159.277144 84.1010135,160.445964 C85.8564471,161.264296 87.5203204,162.266595 89.2804899,163.075411 C90.0997975,163.451273 91.0895968,163.998414 92.0162511,164 C93.5822494,164 94.1158255,162.904133 93.1260261,161.752758 C92.0904466,160.550634 90.3965794,159.410361 88.8305811,159.06939 C88.631674,159.02657 88.5085411,158.796612 88.5590572,158.604716 C88.8779399,157.408936 89.851953,155.772272 88.6648252,154.796934 C88.0965193,154.330675 87.4019233,154.283097 87.1635506,153.491726 C86.9062343,152.635331 87.5534715,151.639377 87.8786688,150.901926 C88.9142483,148.557943 86.9188633,148.343845 85.8469754,147.01009 C85.7475218,146.886389 85.674905,146.697665 85.780673,146.550175 C87.0877765,144.718443 89.6719894,144.815183 90.237138,142.388733 C90.2781824,142.214282 90.4439382,142.10644 90.6128514,142.10644 C90.6412666,142.10644 90.6712606,142.109612 90.7012545,142.115956 C91.0138227,142.188908 91.2979756,142.222212 91.5552919,142.222212 C93.6832816,142.222212 93.8948176,139.90519 92.3067185,138.630114 C92.2814605,138.634872 92.2577811,138.636458 92.232523,138.636458 C92.152013,138.636458 92.0683458,138.609497 91.990993,138.544475 C91.8757532,138.444562 91.7873501,138.33672 91.6926325,138.232049 L91.6831607,138.227292 C91.5900217,138.179714 91.5395056,138.11152 91.5126689,138.038568 C90.5970651,136.83803 90.8101798,135.291762 91.4889895,133.897743 C91.5537133,133.766112 91.6784248,133.712191 91.8062936,133.712191 C91.8757532,133.712191 91.9436342,133.72805 92.0067793,133.753425 C92.6240226,134.018273 93.0991894,134.161005 93.5064753,134.161005 C94.1584484,134.161005 94.6399297,133.799416 95.2682234,133.000115 C95.9280897,132.161166 96.6432078,131.44116 97.4546223,130.751287 C99.5352532,128.982992 102.188926,127.284476 102.16051,124.203043 C102.139988,122.103291 101.710602,120.29852 102.566218,118.257447 C103.39184,116.282982 104.919951,114.722442 106.568038,113.414062 C108.255591,112.073963 110.097849,110.879769 111.491777,109.208215 C113.20143,107.15604 113.794994,104.639193 113.802887,102.00023 C113.815516,97.7848672 112.663118,93.7391974 114.303312,89.6633952 C114.791108,88.451756 115.840895,87.2036407 115.982972,85.8968466 C116.153463,84.3156891 115.015273,83.3229061 113.842353,82.5109175 C112.386858,81.5054473 110.768765,80.9075572 109.158566,80.2145123 C107.881456,79.6641997 106.654863,78.9806702 105.286193,78.666659 C104.68,78.5286844 104.083279,78.479521 103.488136,78.479521 C102.744603,78.479521 102.002648,78.5556449 101.241749,78.630183 C100.589776,78.6936196 99.9078092,78.7507125 99.2258422,78.7507125 C98.0371358,78.7507125 96.8484294,78.5778478 95.820743,77.9752 C94.8372582,77.3963409 94.1395049,76.4432058 93.1197116,75.9087524 C92.058874,75.3520962 90.9143692,75.3520962 89.7730216,75.1284821 C88.1486141,74.8097132 87.2156453,74.0659189 86.2574185,72.7480234 C84.9345288,70.9305645 83.4474618,69.7395422 81.3763027,69.7395422 C80.8885068,69.7395422 80.3675598,69.8061506 79.8087257,69.9457111 C78.4874146,70.2755815 77.2718716,70.6514434 75.9458246,70.6514434 C75.660093,70.6514434 75.368047,70.6339983 75.0696864,70.5943505 C71.4593656,70.11699 68.5357478,67.367013 64.8180804,67.3463961 L64.7959796,67.3463961 C63.7604,67.3463961 62.824274,67.7175002 61.900777,68.0870185 C60.97728,68.4565367 60.0616761,68.826055 59.0702982,68.826055 C58.9076995,68.826055 58.7419437,68.8165395 58.5746092,68.7943367 C57.8026604,68.6960099 57.1443728,68.4787395 56.3629522,68.4787395 C56.2777064,68.4787395 56.1940391,68.4819114 56.105636,68.4866691 C54.6438271,68.5770663 53.2056975,69.1035901 51.7944047,69.4604211 C51.7628321,69.4683506 51.7312596,69.4715225 51.699687,69.4715225 C51.4992014,69.4715225 51.3002943,69.3208605 51.3097661,69.0988324 C51.3444959,68.190103 50.9529963,67.8475453 50.3767973,67.8475453 C49.064958,67.8475453 46.7854201,69.6158408 46.3291968,70.4801646 C45.3662341,72.305553 45.9629552,74.7621357 43.816022,75.8167693 C43.7544556,75.8469017 43.6881532,75.861175 43.6234295,75.861175 C43.4261011,75.861175 43.2429803,75.7279581 43.2414017,75.4948285 C43.2350872,74.8794934 42.9935572,74.6511216 42.6352088,74.6511216 C41.7464416,74.6495357 40.1425562,76.0498989 39.6373954,76.4114875 C39.1417064,76.7683185 38.6033945,77.2536085 37.9972016,77.2536085 C37.859861,77.2536085 37.7193632,77.2282339 37.5757081,77.1727269 C35.4856055,76.3543946 37.6972624,72.3309276 37.7240991,70.4214857 C36.7548219,70.8480969 35.8234317,71.0257194 34.8367896,71.0257194 C34.259012,71.0257194 33.6607122,70.9654546 33.0261041,70.8576124 C32.8603482,70.8306518 32.7498443,70.6498575 32.7435298,70.4944378 C32.7040641,69.5825365 32.7940458,66.3298244 31.66217,66.038016 C31.5848173,66.0173991 31.5058859,66.0078836 31.4253759,66.0078836 C30.5555522,66.0078836 29.5389162,67.1085088 29.0384914,67.6493059 C28.0407989,68.7261423 27.2704287,69.9917027 26.1132949,70.9131194 C26.0564643,70.959111 25.9948978,70.978142 25.93491,70.978142 C25.7707327,70.978142 25.6097127,70.8385814 25.5528822,70.6926772 C23.5196101,65.4591569 29.9588311,61.6878505 32.7182717,58.3336398 C33.7822666,57.0411189 35.021489,54.4893813 36.8858479,54.2435644 C36.9647793,54.2340489 37.042132,54.2292912 37.1194848,54.2292912 C37.8030304,54.2292912 38.423431,54.6178404 38.969636,54.9937023 C39.2932547,55.2173164 39.7652642,55.7263951 40.1725501,55.7803163 C40.2214875,55.7866599 40.270425,55.7914177 40.3177838,55.7914177 C41.4196657,55.7914177 42.2484451,54.0944884 42.5168117,53.2301646 C42.9019968,51.986807 42.8862105,50.6530523 43.3661132,49.4318976 C43.8223365,48.2773513 44.6747953,47.2671233 45.6282862,46.4884389 C47.8557294,44.6693941 50.5457104,43.7765239 52.6200268,41.6910453 C54.538059,39.7594006 56.1009001,37.486784 58.2162608,35.7517928 C59.7759446,34.4735451 61.4903339,33.7693987 63.3610073,33.1144157 C66.4851109,32.0233061 73.0206281,30.2010895 72.9843197,26" id="Fill-15" fill="#54ABB3"></path>
                <path d="M106,27 C106.015916,27.9470817 106.066845,28.8719909 106.315127,29.7145451 C141.197148,40.7849481 169.015866,64.9482009 168.535218,102 C168.851937,99.5372709 169.003134,97.1442267 169,94.8177 C168.969711,58.7129825 132.174646,38.548695 106,27" id="Fill-17" fill="#54ABB3"></path>
                <path d="M107,29 C107.257431,29.8828439 107.730168,30.6774034 108.611674,31.3158887 C110.549427,32.7174034 112.863186,33.4898918 114.835264,34.8393818 C116.499984,35.9791963 117.743454,37.4705719 118.359728,39.4222875 C119.194429,42.0692427 119.316123,44.6846677 120.69845,47.1739722 C123.43814,52.1100155 128.190472,56.0102937 132.331211,59.6977434 C134.414061,61.5517156 135.939925,63.8155796 137.838674,65.835085 C139.423825,67.523524 141.069823,68.1825039 143.068424,68.1825039 C143.570804,68.1825039 144.095027,68.1415147 144.645773,68.0642658 C145.78315,67.9034621 146.915847,67.7316229 148.037622,67.7316229 C149.039263,67.7316229 150.033102,67.8703555 151.01134,68.2755178 C152.813357,69.0243586 154.287735,70.3927666 155.570209,71.843153 C158.414432,75.0608037 161.110436,78.5212365 162.207248,82.7573107 C164.609938,92.0319011 161.823442,101.658053 161.990382,111.038269 C162.034067,113.544915 161.47084,115.807202 160.670463,118.16881 C159.81704,120.689645 158.707747,123.49898 159.333382,126.201113 C159.785837,128.151252 161.023066,129.623709 162.427235,131 C166.146723,121.733292 166.661585,111.495456 167.993985,100.953354 C168.465162,64.0725502 141.194638,40.0197836 107,29" id="Fill-19" fill="#54ABB3"></path>
                <path d="M81,178.218 C83.9190515,178.485 86.9018806,178.782 89.9026983,178.782 C90.9329518,178.782 91.9664759,178.747 93,178.664 C92.6320523,178.667 92.2591987,178.668 91.8945217,178.668 C88.2019624,178.668 84.5617334,178.515 81,178.218" id="Fill-21" fill="#54ABB3"></path>
                <path d="M140.31632,159 C135.860609,159 131.029984,164.195656 128.005035,166.698451 C124.360037,169.712346 119.212177,171.148219 114.634699,171.978757 C113.349737,172.211947 111.531243,172.488261 109.719158,172.488261 C106.676585,172.488261 103.64683,171.71043 103.170977,168.647021 C103.062028,167.941064 103.1149,167.089762 102.723964,166.458872 C102.336233,165.831177 101.84596,165.580418 101.344472,165.580418 C100.589837,165.580418 99.8095674,166.149018 99.319295,166.848586 C98.4893568,168.030506 98.604715,169.415269 97.9862669,170.654688 C96.7846189,173.064846 93.2005035,174.104616 90.7875944,174.650854 C89.4353399,174.957515 88.1055161,175.102859 86.7276265,175.102859 C86.5962463,175.102859 86.4632639,175.101262 86.3302815,175.099665 C86.1620508,175.09647 85.9986267,175.093276 85.838407,175.093276 C83.4415198,175.093276 81.8697642,175.513337 80.365301,177.658361 C80.2403296,177.834052 80.1201648,178.004951 80,178.171059 C80.2483406,178.206197 80.495079,178.242932 80.7434195,178.279668 C84.2330053,178.754033 87.7978943,179 91.4156558,179 C91.774548,179 92.1398489,178.996806 92.4987411,178.992014 C133.779355,173.566363 129.475853,171.496406 143,159.728318 C142.134813,159.220412 141.232776,159 140.31632,159" id="Fill-23" fill="#54ABB3"></path>
                <path d="M101.088058,155 L101.063447,155.005484 C99.242181,155.036563 96.2969812,154.963437 96,157.444241 C96.1673595,157.42596 96.3265152,157.416819 96.4807485,157.416819 C97.9328387,157.416819 98.7909665,158.235832 100.133124,159.281536 C100.638485,159.674589 101.227525,160 101.839536,160 C102.106983,160 102.377711,159.937843 102.650081,159.793419 C103.732996,159.221207 104.530415,157.338208 103.568918,156.323583 C102.953625,155.674589 101.97572,155.281536 101.088058,155" id="Fill-25" fill="#54ABB3"></path>
                <path d="M44.9138126,54 C42.6386352,54.9684238 43.7988664,58.6795979 41.5845893,60.0936976 C40.79913,60.5946643 39.8013,60.70357 38.9424478,60.993427 C38.1429345,61.2631782 37.3684061,61.6083258 36.6750781,62.1193453 C35.7116022,62.8263952 35.7256561,64.3745328 37.067027,64.3745328 C37.2263051,64.3745328 37.4043217,64.3527516 37.6026385,64.3058384 C37.8805942,64.237144 38.1741655,64.0176569 38.425575,63.8769171 C39.0533178,63.5233922 39.7575766,63.1815956 40.3900041,63.1815956 C40.9771466,63.1815956 41.5002657,63.4764789 41.842245,64.3343214 C41.9952768,64.7213558 41.9827844,65.1301714 42.0093308,65.5373115 C42.0171385,65.6696739 41.9687305,65.8791081 42.0093308,66.0030932 C41.9296918,66.494007 42.1389394,66.7386261 42.6386352,66.7386261 C42.6870432,66.7386261 42.7385743,66.7369506 42.791667,66.7319242 C43.0415149,66.8223998 43.2898013,66.9111999 43.5380876,67 C44.5484101,66.9195773 45.5368708,64.9894316 46.4222693,64.4348499 C47.504423,63.7579585 48.7130622,63.6457018 49.9482478,63.6457018 C50.2527499,63.6457018 50.5603751,63.6524037 50.8680003,63.6591056 C51.1756256,63.6658074 51.4848123,63.6741848 51.7924376,63.6741848 C52.7965138,63.6741848 53.7865361,63.5987885 54.7125349,63.2117541 C55.6416568,62.8213687 60.409067,60.2696224 58.589862,58.9074623 C58.4602534,58.8102848 58.2916061,58.768398 58.0995355,58.768398 C57.1423057,58.768398 55.5635793,59.783735 54.9249056,60.0652146 C53.3524254,60.7538343 51.7455911,61.4608841 50.0684871,61.7926279 C49.6577996,61.8747261 49.2720969,61.9149375 48.9176252,61.9149375 C46.9625654,61.9149375 45.8866579,60.6935172 46.1193287,58.3528805 C43.7051734,58.3260729 44.4547171,55.938523 45.0652829,54.031834 L44.9138126,54 Z" id="Fill-27" fill="#54ABB3"></path>
                <path d="M135.993441,84 C118.004331,84 103.247873,69.3814124 103.003691,51.2010321 C102.852456,39.8998004 107.358004,28.9937943 114.765378,22.7416101 C120.613138,17.8036703 127.881879,16.0005524 135.787068,17.5274885 C152.003891,20.659136 169.244702,30.9223051 168.99737,50.3328054 C168.839833,62.6324184 165.690676,71.3099231 159.36873,76.8637166 C154.06132,81.5254747 146.564151,83.8587346 136.447147,83.9968255 C136.295912,83.9984127 136.143101,84 135.993441,84 M130.449727,19.3274318 C125.159646,19.3274318 120.316969,21.0861067 116.246222,24.5225065 C109.35872,30.3381965 105.168245,40.5489863 105.310028,51.1708743 C105.540031,68.2211314 119.493053,81.9032406 136.41564,81.6730891 C145.963936,81.5429345 152.975892,79.3969702 157.853227,75.1113908 C163.650576,70.0179003 166.541374,61.9022826 166.689458,50.3026476 L167.844202,50.3169329 L166.689458,50.3026476 C166.919461,32.3270228 150.652227,22.7654189 135.352267,19.8099563 C133.683954,19.4877443 132.045573,19.3274318 130.449727,19.3274318" id="Fill-29" fill="#E66B8C"></path>
                <path d="M136.495591,71 C125.321075,71 116.15489,62.2720949 116.002358,51.417984 C115.907026,44.6716657 118.708202,38.1607377 123.307978,34.428339 C126.941721,31.4805748 131.457287,30.4036254 136.366892,31.3144169 C146.441911,33.1852317 157.152476,39.311535 156.998356,50.8995099 C156.899846,58.2427658 154.943949,63.4244307 151.016264,66.7398961 C147.72095,69.5230409 143.062386,70.9153826 136.77682,70.9984615 C136.683077,71 136.589334,71 136.495591,71 M133.052511,32.3898277 C129.765141,32.3898277 126.757412,33.4390841 124.229522,35.4914418 C119.949109,38.9638342 117.346541,45.0593674 117.435518,51.399522 C117.576927,61.5797703 126.245797,69.7476618 136.757754,69.6107354 C142.689002,69.5338104 147.045681,68.2522407 150.075654,65.6937168 C153.67762,62.6521041 155.473042,57.8073706 155.565196,50.8825864 L156.281776,50.8902789 L155.565196,50.8825864 C155.708195,40.150017 145.601399,34.4421855 136.098373,32.6775271 C135.060842,32.4852147 134.043966,32.3898277 133.052511,32.3898277" id="Fill-31" fill="#E66B8C"></path>
                <path d="M136.49786,64 C130.228963,64 125.086244,58.981781 125.001278,52.7415881 C124.948754,48.8610161 126.518296,45.1169003 129.099697,42.9703966 C131.138865,41.2761919 133.670832,40.6567723 136.425253,41.1811325 C142.077765,42.2559175 148.085587,45.77925 147.999077,52.4426108 C147.945008,56.6650902 146.846638,59.6441307 144.643718,61.5499193 C142.794564,63.1505978 140.182266,63.9524703 136.655432,63.9984668 C136.602908,64 136.550384,64 136.49786,64 M134.56683,41.7990189 C132.72231,41.7990189 131.035362,42.4031064 129.615668,43.5821502 C127.215011,45.5783986 125.755152,49.0833325 125.804587,52.7293224 C125.884918,58.5831446 130.748024,63.2809213 136.644618,63.201194 C139.97217,63.1567307 142.416082,62.4192533 144.115389,60.9488983 C146.136019,59.201031 147.143244,56.4151759 147.195768,52.4318783 L147.597422,52.4364779 L147.195768,52.4318783 C147.276099,46.2622134 141.606594,42.9795959 136.273861,41.9646063 C135.693007,41.8542147 135.122967,41.7990189 134.56683,41.7990189" id="Fill-33" fill="#E66B8C"></path>
                <path d="M143.836668,36.8395323 C141.790435,27.531253 129.720231,27.7243252 128.089991,37.4171794 C127.871555,38.7137458 128.057868,40.0432757 128.571835,41.2550787 L135.121708,56.6914395 C135.29196,57.0932809 135.871779,57.1058384 136.059699,56.7102758 L143.297002,41.4465812 C143.979615,40.0071728 144.177172,38.390389 143.836668,36.8395323 M136.001877,41.0102066 C134.289723,41.0102066 132.902011,39.6539919 132.902011,37.9822688 C132.902011,36.3105458 134.289723,34.9543311 136.001877,34.9543311 C137.712425,34.9543311 139.100137,36.3105458 139.100137,37.9822688 C139.100137,39.6539919 137.712425,41.0102066 136.001877,41.0102066" id="Fill-35" fill="#5C52BA"></path>
                <path d="M59.9087279,94.052625 C58.7584861,88.5370597 51.9683984,88.6517056 51.0500356,94.3949921 C50.927994,95.1629623 51.0332549,95.9513489 51.3215781,96.6690634 L55.0057079,105.817175 C55.1018156,106.05589 55.4282768,106.062172 55.5335377,105.828168 L59.6051495,96.7837093 C59.9880549,95.9309325 60.0994178,94.9713624 59.9087279,94.052625 M55.5015018,96.5245782 C54.5388989,96.5245782 53.7578329,95.7204867 53.7578329,94.7295067 C53.7578329,93.7385267 54.5388989,92.9360057 55.5015018,92.9360057 C56.4625791,92.9360057 57.2436452,93.7385267 57.2436452,94.7295067 C57.2436452,95.7204867 56.4625791,96.5245782 55.5015018,96.5245782" id="Fill-37" fill="#5C52BA"></path>
            </g>
        </g>
    </g>
</svg>