<svg xmlns="http://www.w3.org/2000/svg" xmlns:xlink="http://www.w3.org/1999/xlink" version="1.1" id="Capa_1" x="0px" y="0px" viewBox="0 0 3555.8 492.2" style="enable-background:new 0 0 3555.8 492.2;" xml:space="preserve">
  <style type="text/css">
    .st0{fill:#2D3232;}
    .st1{fill:url(#SVGID_1_);}
    .st2{opacity:0.21;fill:url(#SVGID_2_);}
    .st3{fill:none;stroke:#4E4E4E;stroke-width:1.4326;stroke-miterlimit:10;}
    .st4{opacity:0.32;fill:#7BADA1;}
  </style>
  <path class="st0" d="M488,102c-6.7-62.4-58.1-95.3-148.8-95.3C293,7,246,18.3,206.8,38.3c-46.9,24-80.5,59.7-97.2,103.2  c-14.3,37.2-14.5,66.6-0.7,89.6c22.5,37.6,78.5,49.2,130.3,55.7c39.2,4.4,63.3,13.6,71.6,27.2c4.5,7.4,4.6,16.6,0.1,28.2  c-22.1,57.6-98.4,62-121.2,62c-26.7,0-49.2-5.4-65-15.7C108,377.6,99.3,361.6,99,341c0-2.5-1.3-4.9-3.5-6.2  c-2.1-1.4-4.8-1.6-7.1-0.6l-84,36.3c-2.8,1.2-4.6,4-4.6,7.1c0.9,41.5,16.4,72.3,46.1,91.5c26.3,17.1,63.5,25.4,113.7,25.4  c54,0,105-12,147.5-34.7c48-25.6,83.1-64.5,101.5-112.3c15.3-39.8,15.7-70.9,1.3-95.1c-22.8-38.2-79.8-50.4-132.5-57.2  c-28.7-3.6-62.9-9.6-71.8-24.6c-3.3-5.5-3.3-12.4,0.1-21.2c12.9-33.6,54.3-54.4,108.1-54.4c45.4,0,74.7,22.5,79.3,43.7  c0.5,2.2,1.9,4.1,3.9,5.1c2,1,4.4,1.1,6.5,0.2l80.1-34.4C486.5,108.5,488.3,105.3,488,102z"/>
  <path class="st0" d="M947.2,6c-1.5-2.2-4-3.5-6.6-3.5H585.7c-3.3,0-6.3,2.1-7.5,5.2L396.1,481.7c-1,2.5-0.6,5.3,0.9,7.4  c1.5,2.2,4,3.5,6.6,3.5h354.9c3.3,0,6.3-2.1,7.5-5.2l33.8-88c1-2.5,0.6-5.3-0.9-7.4c-1.5-2.2-4-3.5-6.6-3.5H537.9l34.9-90.9h251.1  c3.3,0,6.3-2.1,7.5-5.2l32-83.3c1-2.5,0.6-5.3-0.9-7.4c-1.5-2.2-4-3.5-6.6-3.5h-245l35.7-92.9h260.6c3.3,0,6.3-2.1,7.5-5.2  l33.3-86.7C949,11,948.7,8.2,947.2,6z"/>
  <path class="st0" d="M1394.6,8.4c-1.5-2.2-3.9-3.5-6.6-3.5h-88.5c-3.3,0-6.3,2-7.4,5.1l-104.8,272.7L1076.8,10.6c-1.2-3-4.1-5-7.4-5  h-71.7c-3.3,0-6.3,2-7.4,5.1L810.1,479.9c-0.9,2.4-0.6,5.2,0.9,7.4c1.5,2.2,3.9,3.5,6.6,3.5H906c3.3,0,6.3-2,7.4-5.1l114.2-297.2  l117.4,298c1.2,3,4.1,5,7.4,5c0,0,0,0,0,0c1.1,0,2.2-0.2,3.2-0.7h52c3.3,0,6.3-2,7.4-5.1l180.5-469.8  C1396.4,13.3,1396.1,10.6,1394.6,8.4z"/>
  <path class="st0" d="M1792.6,248.3c12.7-34.7,18.9-67.7,18.5-98.1c-0.5-33-8.8-61.3-24.8-84.2c-13.7-19.6-32.8-34.8-56.8-45.1  c-25.3-10.9-56.3-16.4-92-16.4h-186.2c-3.3,0-6.3,2.1-7.5,5.2l-182.1,474.1c-1,2.5-0.6,5.3,0.9,7.4c1.5,2.2,4,3.5,6.6,3.5h186.2  c78.3,0,152.8-26.8,215.6-77.4C1725.5,373.3,1768.7,313.3,1792.6,248.3C1792.6,248.3,1792.6,248.3,1792.6,248.3z M1488.4,392.5  h-85.8L1513,105.2h92c39,0,66.5,10.9,81.6,32.3c17,24.1,17.9,61.3,2.5,104.6C1664.1,311.5,1596.7,392.5,1488.4,392.5z"/>
  <path class="st0" d="M2022.4,8.4c-1.5-2.2-4-3.5-6.6-3.5h-88.6c-3.3,0-6.3,2.1-7.5,5.2l-181.9,473.6c-1,2.5-0.6,5.3,0.9,7.4  c1.5,2.2,4,3.5,6.6,3.5h88.6c3.3,0,6.3-2.1,7.5-5.2l181.9-473.6C2024.2,13.4,2023.9,10.6,2022.4,8.4z"/>
  <path class="st0" d="M2305.6,6h-222.1c-3.3,0-6.2,2-7.4,5.1l-179.8,468.2c-0.9,2.4-0.6,5.2,0.9,7.4c1.5,2.2,3.9,3.4,6.6,3.4h222.1  c54.4,0,101.2-10.3,139.2-30.7c44.6-23.9,77-61.6,96.4-112.2c8.2-21.4,11.2-54.4-0.6-79.8c-5.3-11.3-12.9-20.3-22.7-26.9  c39.9-19.3,69.5-50,84-88c16.6-43.1,16.1-77.9-1.5-103.4C2401.2,20.9,2361.5,6,2305.6,6z M2145.1,102.1h129.7  c20.7,0,35.2,5.3,42.1,15.3c6.6,9.7,5.4,22.6,2,31.4c-7.9,20.6-29.1,45.1-85.4,45.1h-123.6L2145.1,102.1z M2157.4,391.9h-123.6  l40.1-104.5h129.7c18.9,0,42.8,6.9,53.4,22.3c6,8.7,6.7,19.2,2.1,31.1C2244.7,378.5,2195.3,391.9,2157.4,391.9z"/>
  <path class="st0" d="M3554.2,10c-1.5-2.2-4-3.5-6.6-3.5h-97.8c-2.1,0-4,0.8-5.5,2.2l-176,166.9l-46.8-163.3c-1-3.4-4.1-5.8-7.7-5.8  H3116c-3.3,0-6.3,2-7.5,5.1l-1.6,4c-0.6,1.7-0.7,3.5-0.2,5.2l69.6,224.4l-250.8,232.6c-0.9,0.8-1.6,1.9-2,3l-1,2.7  c-0.9,2.5-0.6,5.2,0.9,7.4c1.5,2.2,4,3.5,6.6,3.5h99.8c2,0,4-0.8,5.5-2.2l179.3-168.4l48.9,164.9c1,3.4,4.1,5.7,7.7,5.7h99.8  c3.3,0,6.3-2,7.5-5.1l1-2.7c0.6-1.7,0.7-3.5,0.2-5.3l-72.4-231.2l244.1-225.8c0.9-0.8,1.6-1.9,2-3l1.6-4  C3556,14.9,3555.6,12.1,3554.2,10z"/>
  <g>
    <linearGradient id="SVGID_1_" gradientUnits="userSpaceOnUse" x1="2423.1526" y1="251.0596" x2="2983.4988" y2="251.0596">
      <stop offset="0" style="stop-color:#82C0DB"/>
      <stop offset="0.8359" style="stop-color:#59B0D5"/>
      <stop offset="0.8639" style="stop-color:#53AFD7"/>
      <stop offset="0.9923" style="stop-color:#38A9E0"/>
    </linearGradient>
    <polygon class="st1" points="2624.5,492.9 2844,494.7 2983.5,251 2933.7,166.3 2653.8,165 2562.6,324.8 2521,251.1 2613.3,93.4    2892.5,93.4 2844,7.4 2563.8,7.4 2423.2,253.3 2562.6,493.6 2703.3,251.1 2884.5,251.1 2796.7,411.4 2672.9,411.4  "/>
    <linearGradient id="SVGID_2_" gradientUnits="userSpaceOnUse" x1="2423.1526" y1="372.8969" x2="2983.4988" y2="372.8969">
      <stop offset="0" style="stop-color:#87C5EF"/>
      <stop offset="0.5481" style="stop-color:#66A48C"/>
      <stop offset="1" style="stop-color:#4D8B3F"/>
    </linearGradient>
    <polygon class="st2" points="2796.7,411.5 2672.9,411.5 2624.5,493 2844,494.7 2983.5,251.1 2887.3,251.1 2887.3,251.1    2884.5,251.1  "/>
    <path class="st3" d="M2537.3,244.3"/>
    <polygon class="st4" points="2653.8,165 2562.6,324.8 2521,251.1 2613.1,93.6 2563.9,7.4 2563.8,7.4 2423.2,253.3 2562.6,493.6    2703.3,251.2 2654,165  "/>
    <polygon class="st4" points="2672.9,411.4 2624.5,493 2842.5,494.7 2794.9,411.4  "/>
  </g>
</svg>