<svg width="191" height="146" viewBox="0 0 191 146" xmlns="http://www.w3.org/2000/svg" xmlns:xlink="http://www.w3.org/1999/xlink"><title>Group</title><defs><path id="a" d="M.336.514h177.602V146H.336z"/></defs><g fill="none" fill-rule="evenodd"><g transform="translate(13)"><mask id="b" fill="#fff"><use xlink:href="#a"/></mask><path d="M173.955 79.067l-3.547-8.074c-14.213-32.352-43.282-57.517-78.33-67.811l-4.42-1.3c-7.592-2.23-17.19-1.609-27.011.946-26.174 6.809-45.952 25.439-53.335 49.7l-4.95 16.266c-2.783 9.15-2.734 19.082.365 28.619 6.036 18.574 21.57 30.718 43.63 37.059 1.482.425 2.978.786 4.484 1.082l44.199 8.678c22.002 4.32 44.284.656 62.353-10.254 18.766-11.332 25.662-34.197 16.562-54.911" fill="#E5E6E6" mask="url(#b)"/></g><path d="M148.86 129l-79.461-6.404L51 77.355c21.283-4.7 50.893-5.322 81.709-5.355L160 84.21 148.86 129z" fill="#A27925"/><path d="M138 130.944L78.088 140 49 123.818v-46.14a1.68 1.68 0 0 1 2.287-1.564l23.58 9.09L138 130.945z" fill="#CA9433"/><path d="M136.464 60l-58.028-4.729L65 21.87c14.29-3.19 50.965-3.595 74.274-3.867a25.912 25.912 0 0 1 10.984 2.308L165 25.68 136.464 60z" fill="#A27925"/><path d="M129 74.466L85.244 81 64 69.324V23.21c0-.85.866-1.434 1.67-1.127l25.436 5.043L129 74.466zM78 88c7.17 2.577 14.64 2.104 22 1.616" fill="#CA9433"/><path d="M90.55 27.48c15.51-1.052 44.62-1.863 74.667-1.29a3.292 3.292 0 0 1 3.213 3.027c1.53 18.9 2.184 36.066.846 49.296a4.534 4.534 0 0 1-4.464 4.078c-28.024.3-57.204.962-79.519-.523-.867-20.334.341-39.51 1.633-51.11a3.911 3.911 0 0 1 3.623-3.478" fill="#F6B23F"/><path d="M142.415 34.68c-.718 1.008-3.186 27.763-2.175 27.287 3.248 3.913 12.386 1.004 20.253.837.697-10.928 1.962-25.257 1.34-28.292-3.984-2.389-11.151-1.65-19.418.167" fill="#F3F5F7"/><path d="M152 36.305c0 3.697-2.933 6.695-6.551 6.695-3.618 0-6.449-1.535-6.449-5.232 0-3.698 3.658-7.768 7.276-7.768S152 32.608 152 36.305" fill="#F3F5F7"/><g fill="#7491BD"><path d="M143.586 53.572c.971-1.32 2.607-2.215 4.408-2.308 1.852.24 3.195 1.446 4.429 2.393.322.235.637.53.849.497.256-.017.635-.33 1.01-.479a5.264 5.264 0 0 1 2.369-.465 5.121 5.121 0 0 0-2.212.772c-.35.185-.549.508-1.079.683-.28.072-.564-.031-.757-.13l-.546-.296c-1.399-.806-2.763-1.647-4.166-1.596-1.374-.338-3.014-.063-4.305.929M143.242 60.365c.94-.312 1.471-1.137 2.112-1.885a6.552 6.552 0 0 1 2.511-1.85 6.603 6.603 0 0 1 3.12.003c1.023.245 1.926.781 2.711 1.364.794.584 1.516 1.219 2.31 1.742.764.508 1.716.972 2.64.593-.878.5-1.963.141-2.806-.291-.876-.44-1.682-.994-2.505-1.459-.82-.47-1.664-.83-2.534-.927a5.441 5.441 0 0 0-2.56.305 5.43 5.43 0 0 0-2.431 1.032c-.751.547-1.573 1.303-2.568 1.373M151.502 35.677c-.26-1.152-.806-2.266-1.675-3.054-.851-.788-2.003-1.277-3.145-1.161 1.146-.066 2.253.467 3.05 1.266.812.8 1.291 1.89 1.498 3.009.376 2.229-.035 4.716-1.44 6.419-.697.853-1.682 1.355-2.75 1.548-1.057.197-2.224.199-3.313.19-.537-.025-1.016-.125-1.424-.387-.417-.257-.784-.644-1.125-1.075a10.178 10.178 0 0 1-1.606-2.866 9.982 9.982 0 0 1-.718-2.408c.067-.043.134-.084.197-.135-.064.042-.132.074-.199.108a3.552 3.552 0 0 1-.052-.713c.013-.484.235-.952.524-1.442.294-.494.587-.988.911-1.446.635-.922 1.483-1.693 2.579-1.934 1.083-.262 2.24-.134 3.363 0-1.11-.226-2.25-.458-3.416-.28-1.183.15-2.227.945-2.962 1.86-.381.456-.718.933-1.055 1.408-.334.473-.695 1.057-.774 1.75-.044.36-.035.7-.004 1.03-.502.03-1.018-.076-1.49-.23-.844-.27-1.64-.733-2.566-.966-.46-.116-.955-.183-1.467-.109-.509.064-1.026.35-1.386.629-.38.279-.665.442-1.032.487-.36.053-.75.007-1.134-.098-.8-.068-1.67-.43-2.608-.597-.467-.08-.986-.104-1.45.093-.453.194-.821.63-.82 1.108.096-.465.509-.757.904-.836.408-.079.825.028 1.222.186.808.32 1.552.85 2.528 1.162.5.08 1.03.095 1.557-.041.534-.118 1.024-.488 1.342-.787.337-.309.622-.503 1.01-.606.378-.098.8-.093 1.225-.032.856.118 1.698.492 2.605.683.503.11 1.055.16 1.573.075a11.116 11.116 0 0 0 .56 2.503c.078.19.168.374.256.558-.736-.07-1.394-.447-1.786-1.029-.133-.165-.3-.4-.642-.504-.327-.11-.732.056-.93.255-.412.38-.611.823-.834 1-.339.507-1.091.796-1.82.79-.758-.006-1.544-.264-2.343-.525-.8-.26-1.652-.517-2.528-.472-.441.01-.854.17-1.25.234-.382.07-.87-.04-1.037-.458.117.44.63.63 1.049.6.435-.022.835-.13 1.238-.09.81.05 1.572.374 2.33.72.762.342 1.56.725 2.483.844.916.1 1.972-.081 2.732-.913.314-.482.395-.885.572-1.126.085-.114.109-.147.2-.16.078-.016.227.069.383.204.605.57 1.453.805 2.21.692.432.894.971 1.73 1.617 2.473.393.454.842.906 1.415 1.23.577.339 1.258.44 1.852.437 1.18-.04 2.302-.082 3.478-.347 1.157-.253 2.304-.898 3.034-1.88.747-.964 1.174-2.127 1.367-3.3.188-1.178.176-2.384-.083-3.544"/><path d="M136.404 43.093c-.505.235-.835.66-1.093.78-.398.403-1.351.437-2.076.41-.156-.033-.164-.015-.264-.148-.083-.127-.24-.431-.482-.606-.502-.372-1.06-.3-1.495-.213-.45.095-.865.273-1.256.405a9.447 9.447 0 0 1-3.776.453 9.603 9.603 0 0 0 3.883-.04c.437-.097.835-.216 1.236-.255.392-.043.786.003.97.204.103.1.14.203.265.457.102.262.483.547.754.58.288.067.49.07.712.092.223.018.454.03.694.022.472-.01 1.021-.111 1.5-.447.428-.408.577-.762.84-.95.267-.206.634-.328 1.04-.377.81-.104 1.732.001 2.565-.264-.87.075-1.669-.218-2.572-.306-.448-.045-.956-.02-1.445.203"/></g><path d="M75.076 85.398c7.859-3.343 50.432-2.247 85.212-2.148a4.143 4.143 0 0 1 4.117 3.962c.952 20.831.913 38.145-1.243 47.94a5.087 5.087 0 0 1-4.773 3.977c-14.276.567-47.606.71-80.122.871a3.357 3.357 0 0 1-3.364-3.19c-1.05-20.05-1.412-38.288.173-51.412" fill="#F6B23F"/><path d="M82 94.647c2.01-.246 4.022-.5 6.058-.647 4.064.015 8.205.506 11.942 2-3.83-1.28-7.92-1.528-11.928-1.321-2.015-.08-4.044-.053-6.072-.032M100 100a57.548 57.548 0 0 1-5.44-.43c-.887-.205-1.77-.43-2.645-.675-.881-.235-1.727-.57-2.579-.495-.856.078-1.7.51-2.614.639-.907.147-1.819.115-2.722.086.903-.03 1.814-.062 2.686-.265.876-.18 1.655-.662 2.605-.822.97-.146 1.886.161 2.755.326.882.184 1.767.347 2.655.49 1.74.465 3.51.848 5.299 1.146M133 102c8.847-.804 16.313-2.1 19.913-4.768.426-4.19-.846-8.916-1.083-14.187-6.555-.043-12.956-.068-18.729-.014.476 5.908.34 12.314-.101 18.969" fill="#F1F1F1"/><path d="M36.365 16.858c1.129.369 1.464.186 2.458-2.587.233-.651.31-1.67-.239-2.407a1.79 1.79 0 0 0-.408-.397c-.453-.32-1.09-.476-1.902-.467-1.262.016-2.092 1.537-2.259 3.032-.205 1.844 1.747 2.63 2.35 2.826M40.27 15.185c-.934 1.661.81 3.033 1.367 3.413 1.04.712 1.465.651 3.589-1.625.497-.533.976-1.464.686-2.333-.23-.69-.933-1.216-2.09-1.56-1.331-.397-2.795.758-3.552 2.105M52.912 16.64c-.135-.406-.434-.756-.893-1.044a4.856 4.856 0 0 0-1.197-.517c-1.332-.397-2.795.759-3.552 2.106-.934 1.66.81 3.032 1.367 3.413 1.043.713 1.466.65 3.589-1.626.497-.532.976-1.463.686-2.332" fill="#F6B23F"/><path d="M55.714 22.515c.61-.428 1.313-1.264 1.285-2.207-.022-.752-.53-1.443-1.512-2.052-1.13-.703-2.811.139-3.89 1.332-1.328 1.472-.086 3.254.327 3.765.772.956 1.183.99 3.79-.838M13.925 19.453a2.393 2.393 0 0 0-.993-.426c-.788-.132-1.609.215-2.438 1.032-.954.94-.407 2.726.625 4.005 1.275 1.576 3.378.75 3.992.458 1.15-.545 1.264-.933-.128-3.809a3.445 3.445 0 0 0-1.058-1.26M19.88 17.446c-.066-.662-.393-1.568-1.095-2.075a2.198 2.198 0 0 0-.196-.126c-.666-.374-1.52-.32-2.537.16-1.17.554-1.269 2.364-.76 3.867.626 1.85 2.794 1.77 3.444 1.7 1.215-.129 1.448-.447 1.143-3.526M24.88 15.447c-.072-.722-.452-1.73-1.291-2.202-.666-.374-1.52-.32-2.537.16-1.17.554-1.269 2.364-.76 3.867.626 1.85 2.794 1.77 3.444 1.7 1.215-.129 1.448-.447 1.143-3.525M31.258 11.547c-.557-.51-1.405-.665-2.521-.458-1.284.24-1.838 1.915-1.722 3.447.143 1.888 2.284 2.332 2.937 2.423 1.22.17 1.528-.072 2.01-3.035.113-.695-.003-1.734-.704-2.377M5.909 44.368c.147-.62.157-1.004-.285-1.34-.398-.303-1.161-.566-2.518-.928-.673-.179-1.706-.168-2.402.453-.554.494-.782 1.308-.68 2.42.118 1.28 1.716 1.988 3.233 2.026 1.872.048 2.503-2.002 2.652-2.631M1.441 35.126c-.668.25-1.138.887-1.397 1.892-.298 1.157.952 2.297 2.34 2.827 1.712.652 2.947-.932 3.284-1.433.631-.938.54-1.291-1.866-2.897-.565-.376-1.52-.704-2.361-.389M3.441 30.126c-.668.251-1.138.888-1.396 1.892-.3 1.157.95 2.298 2.34 2.827 1.711.653 2.946-.932 3.283-1.433.547-.812.551-1.185-1.021-2.314a29.806 29.806 0 0 0-.845-.583c-.564-.376-1.52-.704-2.36-.389M6.787 29.523c1.54 1.208 3.186-.205 3.654-.666.875-.864.875-1.281-1.11-3.745a3.404 3.404 0 0 0-.516-.511c-.473-.38-1.095-.667-1.741-.588-.733.09-1.368.665-1.889 1.708-.6 1.202.343 2.818 1.602 3.802M2.869 49.838c-.69.284-1.58.972-1.814 1.976-.186.798.102 1.664.853 2.576.865 1.048 2.675.622 4.015-.342 1.652-1.187.976-3.405.73-4.056-.144-.384-.28-.661-.492-.823-.46-.354-1.272-.161-3.292.669M24.165 61.754c-.226.654-.29 1.677.269 2.407.444.581 1.227.864 2.327.837 1.266-.03 2.079-1.562 2.227-3.062.103-1.037-.472-1.733-1.103-2.178a4.834 4.834 0 0 0-1.288-.624c-1.136-.356-1.47-.169-2.432 2.62M31.165 62.754c-.226.654-.29 1.677.269 2.407.444.581 1.227.864 2.327.837 1.266-.03 2.079-1.562 2.227-3.062.103-1.037-.472-1.733-1.103-2.178a4.824 4.824 0 0 0-1.288-.624c-1.136-.356-1.47-.169-2.432 2.62M21.786 62.786c.76-1.668-.712-3.02-1.181-3.394a7.2 7.2 0 0 0-.118-.092c-.796-.598-1.194-.439-2.861 1.752-.41.538-.798 1.473-.546 2.337.2.688.793 1.205 1.764 1.537 1.116.383 2.325-.786 2.942-2.14M15.786 60.787c.76-1.67-.712-3.02-1.181-3.396a7.065 7.065 0 0 0-.118-.09c-.796-.6-1.194-.44-2.861 1.751-.41.538-.798 1.473-.546 2.337.2.688.793 1.205 1.764 1.537 1.116.383 2.325-.786 2.942-2.14M10.566 54.161c-.583-.397-1.273-.102-3.304 1.35-.607.434-1.3 1.274-1.26 2.216.032.75.551 1.432 1.541 2.029 1.14.687 2.813-.171 3.877-1.374 1.313-1.482.045-3.243-.374-3.748-.168-.203-.32-.364-.48-.473M60.714 27.515c.61-.428 1.313-1.263 1.285-2.207-.022-.752-.53-1.443-1.512-2.052-1.13-.703-2.811.14-3.89 1.332-1.328 1.472-.086 3.254.327 3.766.772.955 1.183.988 3.79-.84M63.714 33.515c.61-.428 1.313-1.263 1.285-2.208-.022-.751-.53-1.441-1.512-2.051-1.13-.702-2.811.14-3.89 1.333-1.328 1.471-.086 3.253.327 3.764.772.957 1.183.989 3.79-.838" fill="#F6B23F"/><path d="M49.334 43.996C33.217 52.888 24.999 73.628 33.25 96.169c8.252 22.541 39.238 36.326 57.472 34.702 24.345-2.167 17.25-24.373 12.617-51.813-3.984-23.593-23.95-51.643-54.005-35.062" fill="#2B689D"/><path d="M63.53 33.181c-3.875 1.87-4.235 6.81-2.64 10.881 1.595 4.072 5.972 5.368 10.235 4.818 5.692-.734 5.143-4.897 4.46-9.928-.587-4.324-4.827-9.26-12.054-5.77" fill="#2B689D"/><path d="M58.504 42.966c-16.419 8.837-16.325 35.295-7.918 57.7 8.406 22.404 28.114 30.753 46.691 29.14 24.803-2.153 20.969-24.717 16.249-51.992-4.06-23.45-24.4-51.329-55.022-34.848" fill="#237ECA"/><path d="M60.039 98.328c-5.978-16.372-6.481-37.275 6.54-44.477 8.176-4.523 16.26-5.073 23.376-1.591 11.068 5.415 16.911 18.681 18.547 28.392 2.438 14.479 4.544 26.982-1.062 34.329-2.635 3.452-6.648 5.374-12.271 5.876-7.502.67-16.155-.95-23.34-6.24-4.88-3.592-9.084-8.878-11.79-16.29" fill="#E5E5E5"/><path d="M88.167 55.991c-5.956-2.915-12.556-2.41-19.62 1.496-7.632 4.222-12.347 18.354-4.662 39.405 5.893 16.133 19.837 20.824 30.923 19.835 4.419-.394 7.489-1.794 9.385-4.279 4.508-5.908 2.448-18.145.266-31.1-1.391-8.265-5.905-18.117-13.091-23.408a20.89 20.89 0 0 0-3.2-1.949m-28.13 42.336c-5.977-16.372-6.48-37.274 6.542-44.477 8.175-4.522 16.258-5.072 23.374-1.59 11.07 5.415 16.912 18.681 18.548 28.392 2.438 14.478 4.544 26.982-1.062 34.328-2.635 3.452-6.648 5.375-12.272 5.877-7.502.67-16.154-.949-23.34-6.24-4.88-3.592-9.084-8.879-11.79-16.29" fill="#F6B23F"/><path d="M90.132 107c-.057.42.11.791.322 1.111.216.327.487.613.75.957a8.747 8.747 0 0 1 .699 4.932 8.293 8.293 0 0 0-1.376-4.537c-.128-.37-.312-.765-.428-1.186-.119-.415-.156-.9.033-1.277M81 57c.677.537 1.315 1.15 1.895 1.835.213.397.407.804.581 1.22.173.412.342.85.407 1.324.075.482-.02.941-.073 1.37-.053.426-.077.89.19 1.251-.32-.313-.373-.823-.376-1.262-.008-.449.015-.888-.107-1.274-.246-.778-.762-1.506-1.245-2.189A13.633 13.633 0 0 0 81 57M64 88.613c.667.19 1.337.064 1.924-.13.64-.066 1.29-.254 1.984-.375.68-.123 1.448-.176 2.092.034-.685-.124-1.363.018-1.977.211-.619.192-1.213.462-1.923.632-.732.052-1.567-.023-2.1-.372M98 87.939c.601-.057 1.075-.265 1.526-.497.53-.12 1.091-.296 1.696-.383.591-.09 1.265-.094 1.778.11-.57-.124-1.152-.029-1.657.126-.514.154-.963.384-1.49.595-.598.1-1.27.164-1.853.049M67 68l2.23 1.304L73 73l-4.23-2.97zM98 102c.767.395 1.53.804 2.288 1.236A66.91 66.91 0 0 1 104 107a63.844 63.844 0 0 0-4.17-3.074A66.269 66.269 0 0 0 98 102M95 66l-.141.87L94 68l.475-1.536zM77 98l-.703 1.93L74 103l1.703-3.596zM86.918 84.324a.952.952 0 0 0 .08-.325.77.77 0 0 0-.083-.41.91.91 0 0 0-.417-.412c-.1-.056-.2-.09-.306-.12a1.936 1.936 0 0 0-.304-.053 1.859 1.859 0 0 0-.623.066l-.006.002a1.29 1.29 0 0 0-.734.548c-.152.238-.332.523-.357.567a1.222 1.222 0 0 0-.125.94c.084.302.305.58.59.722.137.071.261.106.404.132.14.024.286.026.428.003.25-.05.462-.158.616-.293.31-.27.752-1.176.837-1.367M86 83a10.334 10.334 0 0 1-2.953-1.642c-.913-.712-1.758-1.534-2.533-2.369-.77-2.097-1.29-4.123-2.037-6.029-.727-1.906-1.73-3.715-3.477-4.96.983.362 1.966.89 2.795 1.623.83.72 1.588 1.552 2.245 2.426 1.347 1.742 2.458 3.606 3.66 5.222.4 2.047.922 3.999 2.3 5.729M88 85.062A45.557 45.557 0 0 0 91.53 84 51.274 51.274 0 0 0 98 85.767c-2.22.543-4.528.966-6.912 1.233A42.148 42.148 0 0 1 88 85.062" fill="#1A1A1A"/></g></svg>