<?xml version="1.0" encoding="UTF-8"?>
<svg width="60px" height="35px" viewBox="0 0 60 35" version="1.1" xmlns="http://www.w3.org/2000/svg" xmlns:xlink="http://www.w3.org/1999/xlink">
    <!-- Generator: Sketch 55.1 (78136) - https://sketchapp.com -->
    <title>Visa</title>
    <desc>Created with Sketch.</desc>
    <g id="Page-1" stroke="none" stroke-width="1" fill="none" fill-rule="evenodd">
        <g id="Sendiroo_4" transform="translate(-1074.000000, -3128.000000)">
            <g id="Visa" transform="translate(1074.000000, 3128.000000)">
                <g id="visa-(1)" transform="translate(14.000000, 13.000000)" fill-rule="nonzero">
                    <path d="M12.9629348,0.025 L11.3713043,9.92956522 L13.9153261,9.92956522 L15.5059783,0.025 C15.5059783,0.025 12.9629348,0.025 12.9629348,0.025 Z M20.6366304,4.05956522 C19.7476087,3.62054348 19.2026087,3.32423913 19.2026087,2.87521739 C19.2134783,2.46695652 19.6634783,2.04869565 20.6683696,2.04869565 C21.4948913,2.02793478 22.1023913,2.22217391 22.5632609,2.41543478 L22.7941304,2.51847826 L23.14,0.446195652 C22.6375,0.251956522 21.8407609,0.0379347826 20.8566304,0.0379347826 C18.3443478,0.0379347826 16.5753261,1.34413043 16.5643478,3.21228261 C16.543587,4.59086957 17.8308696,5.35586957 18.7942391,5.81478261 C19.7783696,6.28554348 20.1133696,6.59076087 20.1133696,7.00902174 C20.1025,7.65119565 19.3176087,7.9475 18.5852174,7.9475 C17.5704348,7.9475 17.0253261,7.7948913 16.1978261,7.43706522 L15.8628261,7.28445652 L15.5070652,9.43804348 C16.1046739,9.70369565 17.2036957,9.9375 18.3444565,9.94945652 C21.0143478,9.94945652 22.7516304,8.66304348 22.7734783,6.67206522 C22.7821739,5.5798913 22.1033696,4.74336957 20.6366304,4.05956522 Z M29.6620652,0.0556521739 L27.6938043,0.0556521739 C27.0872826,0.0556521739 26.626413,0.230108696 26.3638043,0.8525 L22.5848913,9.92956522 L25.2547826,9.92956522 L25.9901087,7.96434783 L28.9771739,7.96434783 L29.3586957,9.9375 L31.7134783,9.9375 L29.6620652,0.0556521739 Z M26.7305435,5.98109279 C26.7820652,5.98608696 27.7553261,2.77304348 27.7553261,2.77304348 L28.5303261,5.98109279 C28.5303261,5.98109279 27.2330435,5.98109279 26.7305435,5.98109279 Z M9.24554348,0.025 L6.75304348,6.75423913 L6.48152174,5.42717391 C6.02065217,3.89597826 4.57576087,2.23206522 2.96326087,1.40554348 L5.24565217,9.91967391 L7.9373913,9.91967391 L11.9372826,0.0260869565 L9.24554348,0.0260869565 L9.24554348,0.025 Z" id="Shape" fill="#005098"></path>
                    <path d="M5.64304348,1.3023913 C5.44880435,0.547173913 4.82934783,0.037826087 3.98804348,0.0269565217 L0.0406521739,0.0269565217 L0,0.210217391 C3.07923913,0.969347826 5.66380435,3.30521739 6.50228261,5.5023913 L5.64304348,1.3023913 Z" id="Path" fill="#EFC75E"></path>
                </g>
                <rect id="Rectangle" stroke="#D4E5F1" x="0.5" y="0.5" width="59" height="34" rx="3"></rect>
            </g>
        </g>
    </g>
</svg>