<?xml version="1.0" encoding="UTF-8"?>
<svg width="60px" height="35px" viewBox="0 0 60 35" version="1.1" xmlns="http://www.w3.org/2000/svg" xmlns:xlink="http://www.w3.org/1999/xlink">
    <!-- Generator: Sketch 55.1 (78136) - https://sketchapp.com -->
    <title>Master</title>
    <desc>Created with Sketch.</desc>
    <g id="Page-1" stroke="none" stroke-width="1" fill="none" fill-rule="evenodd">
        <g id="Sendiroo_4" transform="translate(-1145.000000, -3128.000000)">
            <g id="Master" transform="translate(1145.000000, 3128.000000)">
                <g id="Group-22" stroke="#D4E5F1">
                    <rect id="Rectangle" x="0.5" y="0.5" width="59" height="34" rx="3"></rect>
                </g>
                <g id="mastercard-(1)" transform="translate(13.000000, 8.000000)" fill-rule="nonzero">
                    <path d="M9.81900452,0.0864253394 C4.40751131,0.120633484 0.0260633484,4.53285068 0.0260633484,9.96361991 C0.0260633484,15.4157466 4.44135747,19.840181 9.88226244,19.840181 C12.4344796,19.840181 14.7621719,18.8652489 16.5134842,17.2666968 L16.5131222,17.2663348 L16.5144796,17.2663348 C16.8737557,16.938914 17.2083258,16.5847059 17.5154751,16.2085068 L15.4966516,16.2085068 C15.2267873,15.8824434 14.981629,15.5417195 14.7615385,15.1905882 L18.2436199,15.1905882 C18.4562896,14.8513122 18.6472398,14.4988235 18.8182805,14.1337557 L14.1873303,14.1337557 C14.0292308,13.7944796 13.8920362,13.4486878 13.7752036,13.0961991 L19.2304072,13.0961991 C19.5599095,12.1114932 19.7376471,11.0577376 19.7376471,9.96361991 C19.7376471,9.23692308 19.658733,8.52986425 19.5107692,7.8478733 L13.4857014,7.8478733 C13.560905,7.49674208 13.6546606,7.15031674 13.7664253,6.81067873 L19.2243439,6.81067873 C19.1024434,6.44832579 18.960543,6.0958371 18.7993665,5.75312217 L14.1866968,5.75312217 C14.3529412,5.39656109 14.5415385,5.05085973 14.7518552,4.71556561 L18.2318552,4.71556561 C17.9999095,4.34542986 17.7438914,3.9919457 17.4672398,3.65873303 L15.5269683,3.65873303 C15.8273303,3.3041629 16.1571041,2.97067873 16.5150226,2.66153846 C14.7643439,1.06226244 12.4363801,0.0866968326 9.88280543,0.0866968326 C9.86063348,0.0864253394 9.83963801,0.0864253394 9.81900452,0.0864253394 Z" id="Path" fill="#931B1D"></path>
                    <path d="M32.958371,9.96669683 C32.959276,15.420905 28.5491403,19.8436199 23.1044344,19.8452494 C17.6620814,19.8469683 13.2485068,15.4258824 13.2468773,9.97076923 L13.2468773,9.96669683 C13.2451584,4.51085973 17.6567421,0.0877828054 23.1000905,0.0864246672 C28.5430769,0.0844343891 32.9570136,4.50579186 32.958371,9.96126697 C32.958371,9.96126697 32.958371,9.96371041 32.958371,9.96669683 Z" id="Path" fill="#F16622"></path>
                    <path d="M32.958371,10.0757466 C32.959276,15.5302262 28.5491403,19.9536652 23.1044344,19.9546613 C17.6620814,19.9566516 13.2485068,15.5350226 13.2468773,10.0808145 L13.2468773,10.0757466 C13.2451584,4.62090498 17.6567421,0.197466063 23.1000905,0.196107925 C28.5430769,0.194117647 32.9570136,4.61547511 32.958371,10.0705882 C32.958371,10.0706787 32.958371,10.0737557 32.958371,10.0757466 Z" id="Path" fill="#F7981D"></path>
                    <path d="M9.81900452,0.198461538 C4.40751131,0.233393665 0.0260633484,4.64461538 0.0260633484,10.0757466 C0.0260633484,15.5282353 4.44135747,19.9529412 9.88226244,19.9529412 C12.4344796,19.9529412 14.7621719,18.9773756 16.5134842,17.379095 L16.5131222,17.3780995 L16.5144796,17.3780995 C16.8737557,17.0509502 17.2083258,16.6978281 17.5154751,16.3202715 L15.4966516,16.3202715 C15.2267873,15.9948416 14.981629,15.6548416 14.7615385,15.3037104 L18.2436199,15.3037104 C18.4562896,14.9640724 18.6472398,14.6105882 18.8182805,14.2458824 L14.1873303,14.2458824 C14.0292308,13.9062443 13.8920362,13.560543 13.7752036,13.2086878 L19.2304072,13.2086878 C19.5599095,12.2232579 19.7376471,11.1698643 19.7376471,10.0757466 C19.7376471,9.34941176 19.658733,8.64199095 19.5107692,7.96036199 L13.4857014,7.96036199 C13.560905,7.60959276 13.6546606,7.26244344 13.7664253,6.92316742 L19.2243439,6.92316742 C19.1024434,6.56054299 18.960543,6.2079638 18.7993665,5.86497738 L14.1866968,5.86497738 C14.3529412,5.50977376 14.5415385,5.16271493 14.7518552,4.82778281 L18.2318552,4.82778281 C17.9999095,4.45800905 17.7438914,4.10479638 17.4672398,3.77022624 L15.5269683,3.77022624 C15.8273303,3.41638009 16.1571041,3.08280543 16.5150226,2.77303167 C14.7643439,1.17402715 12.4363801,0.198461538 9.88280543,0.198461538 C9.86063348,0.198461538 9.83963801,0.198461538 9.81900452,0.198461538 Z" id="Path" fill="#CB2026"></path>
                    <g id="Group" transform="translate(0.904977, 7.511312)" fill="#FFFFFF">
                        <path d="M12.5209955,5.07900452 L12.6527602,4.18533937 C12.5809955,4.18533937 12.4752941,4.2158371 12.3821719,4.2158371 C12.0171041,4.2158371 11.9764706,4.02144796 12.000181,3.87755656 L12.2951131,2.05339367 L12.8501357,2.05339367 L12.9842534,1.06425339 L12.461086,1.06425339 L12.5677828,0.449954751 L11.5180995,0.449954751 C11.4953846,0.472941176 10.8984615,3.90832579 10.8984615,4.32579186 C10.8984615,4.94515837 11.2448869,5.22108597 11.7344796,5.21705797 C12.1170136,5.21348416 12.4160181,5.10751131 12.5209955,5.07900452 Z" id="Path"></path>
                        <path d="M12.8538462,3.37475113 C12.8538462,4.86099548 13.8321267,5.21447964 14.6661538,5.21447964 C15.4361991,5.21447964 15.7744796,5.04144796 15.7744796,5.04144796 L15.9597285,4.02696833 C15.9597285,4.02696833 15.3742986,4.28705882 14.8453394,4.28705882 C13.718733,4.28705882 13.9161991,3.44461538 13.9161991,3.44461538 L16.0491403,3.44461538 C16.0491403,3.44461538 16.1862443,2.76262443 16.1862443,2.48497738 C16.1862443,1.79248869 15.8415385,0.947963801 14.6898643,0.947963801 C13.6343891,0.948235294 12.8538462,2.08696833 12.8538462,3.37475113 Z M14.6942986,1.88923077 C15.2862443,1.88923077 15.1768326,2.55628959 15.1768326,2.61013575 L14.0119448,2.61013575 C14.0115837,2.54144796 14.1217195,1.88923077 14.6942986,1.88923077 Z" id="Shape"></path>
                        <path d="M21.338733,5.07900452 L21.5266968,3.93140271 C21.5266968,3.93140271 21.0116742,4.19149321 20.6584615,4.19149321 C19.9142081,4.19149321 19.6158371,3.62054299 19.6158371,3.00968326 C19.6158371,1.76760181 20.2561991,1.08425339 20.9696833,1.08425339 C21.5040724,1.08425339 21.9333937,1.38561086 21.9333937,1.38561086 L22.1044344,0.272217195 C22.1044344,0.272217195 21.4681448,0.0134841629 20.9229864,0.0134841629 C19.7114027,0.0134841629 18.5323077,1.06561086 18.5323077,3.04515837 C18.5323077,4.35565611 19.1692308,5.2228056 20.421448,5.2228056 C20.7752036,5.22298643 21.338733,5.07900452 21.338733,5.07900452 Z" id="Path"></path>
                        <path d="M6.74959276,0.964162896 C6.03004525,0.964162896 5.47837104,1.19547511 5.47837104,1.19547511 L5.32633484,2.10162896 C5.32633484,2.10162896 5.78208145,1.91674208 6.46986425,1.91674208 C6.86063348,1.91674208 7.14606335,1.96045249 7.14606335,2.27909502 C7.14606335,2.4721267 7.11122172,2.54352941 7.11122172,2.54352941 C7.11122172,2.54352941 6.80343891,2.51746606 6.66054299,2.51746606 C5.75339367,2.51746606 4.799819,2.90552036 4.799819,4.07647059 C4.799819,4.99819005 5.42488688,5.21013575 5.81266968,5.21013575 C6.55321267,5.21013575 6.87149321,4.72895928 6.88914027,4.72687783 L6.85457014,5.12914027 L7.77837104,5.12914027 L8.19076923,2.23221719 C8.19076923,1.00371041 7.12099548,0.964162896 6.74959276,0.964162896 Z M6.97475113,3.32162896 C6.99475113,3.49873303 6.86371041,4.32832579 6.2318552,4.32832579 C5.90606335,4.32832579 5.82108597,4.07846154 5.82108597,3.93076923 C5.82108597,3.64325792 5.97719457,3.29755656 6.74651584,3.29755656 C6.92497738,3.29755656 6.94425339,3.31719457 6.97475113,3.32162896 Z" id="Shape"></path>
                        <path d="M9.17303167,5.1880543 C9.40904977,5.1880543 10.760181,5.24868778 10.760181,3.85149321 C10.760181,2.54506787 9.50968326,2.80280543 9.50968326,2.27791855 C9.50968326,2.01755656 9.71357466,1.93420814 10.0859729,1.93420814 C10.2339367,1.93420814 10.8031674,1.98199095 10.8031674,1.98199095 L10.9359276,1.05285068 C10.9359276,1.05285068 10.5675113,0.970859729 9.9681448,0.970859729 C9.19104072,0.970859729 8.40371041,1.28036199 8.40371041,2.34325792 C8.40371041,3.54841629 9.71755656,3.42651584 9.71755656,3.93375566 C9.71755656,4.27239819 9.35013575,4.300181 9.06705882,4.300181 C8.57809955,4.300181 8.13755656,4.1318552 8.13547511,4.13963801 L7.99565611,5.05828054 C8.0200905,5.06687783 8.29230769,5.1880543 9.17303167,5.1880543 Z" id="Path"></path>
                        <path d="M30.0307692,0.130769231 L29.8048869,1.53809955 C29.8048869,1.53809955 29.4096833,0.991945701 28.7917647,0.991945701 C27.8297738,0.991945701 27.0285973,2.15339367 27.0285973,3.48859729 C27.0285973,4.35040724 27.4555656,5.19393665 28.3299548,5.19393665 C28.958733,5.19393665 29.3065158,4.75475113 29.3065158,4.75475113 L29.2608145,5.12959276 L30.281448,5.12959276 L31.0836199,0.128506787 L30.0307692,0.130769231 Z M29.5438009,2.8760181 C29.5438009,3.43104072 29.2688688,4.17221719 28.7002715,4.17221719 C28.3223529,4.17221719 28.1459729,3.85457014 28.1459729,3.3561086 C28.1459729,2.54135747 28.5110407,2.00226244 28.9714932,2.00226244 C29.3497738,2.00235294 29.5438009,2.26307692 29.5438009,2.8760181 Z" id="Shape"></path>
                        <polygon id="Path" points="1.06714932 5.13393665 1.70678733 1.35828054 1.7999095 5.13393665 2.52316742 5.13393665 3.8718552 1.35828054 3.27420814 5.13393665 4.34832579 5.13393665 5.17628959 0.127420814 3.51475113 0.127420814 2.48027149 3.19873303 2.42642534 0.127420814 0.895475113 0.127420814 0.0560180995 5.13393665"></polygon>
                        <path d="M17.2356561,5.14099548 C17.541086,3.40081448 17.5976471,1.98705882 18.3270588,2.24479638 C18.4547511,1.57158371 18.5776471,1.31122172 18.7164706,1.02579186 C18.7164706,1.02579186 18.6514932,1.0119457 18.5139367,1.0119457 C18.0449774,1.0119457 17.6964706,1.65529412 17.6964706,1.65529412 L17.7892308,1.06470588 L16.8119457,1.06470588 L16.1580995,5.14099548 L17.2356561,5.14099548 Z" id="Path"></path>
                        <path d="M23.759819,0.964162896 C23.0402715,0.964162896 22.4889593,1.19547511 22.4889593,1.19547511 L22.3372851,2.10162896 C22.3372851,2.10162896 22.7920362,1.91674208 23.4804525,1.91674208 C23.8708597,1.91674208 24.1570136,1.96045249 24.1570136,2.27909502 C24.1570136,2.4721267 24.12181,2.54352941 24.12181,2.54352941 C24.12181,2.54352941 23.8140271,2.51746606 23.6700452,2.51746606 C22.7625339,2.51746606 21.8100452,2.90552036 21.8100452,4.07647059 C21.8100452,4.99819005 22.4354751,5.21013575 22.8228959,5.21013575 C23.5634389,5.21013575 23.8820814,4.72895928 23.8990045,4.72687783 L23.8647964,5.12914027 L24.7892308,5.12914027 L25.2013576,2.23221719 C25.2017195,1.00371041 24.1323077,0.964162896 23.759819,0.964162896 Z M23.9853394,3.32162896 C24.0053394,3.49873303 23.8749321,4.32832579 23.2420814,4.32832579 C22.9166516,4.32832579 22.8323077,4.07846154 22.8323077,3.93076923 C22.8323077,3.64325792 22.9884163,3.29755656 23.7563801,3.29755656 C23.9359276,3.29755656 23.9545701,3.31719457 23.9853394,3.32162896 Z" id="Shape"></path>
                        <path d="M26.0451584,5.14099548 C26.3509502,3.40081448 26.4075113,1.98705882 27.1368326,2.24479638 C27.2645249,1.57158371 27.3874208,1.31122172 27.5269683,1.02579186 C27.5269683,1.02579186 27.460905,1.0119457 27.3241629,1.0119457 C26.8538462,1.0119457 26.5064253,1.65529412 26.5064253,1.65529412 L26.5999095,1.06470588 L25.621991,1.06470588 L24.9677828,5.14072398 L26.0452489,5.14072398 L26.0451584,5.14099548 L26.0451584,5.14099548 Z" id="Path"></path>
                    </g>
                </g>
            </g>
        </g>
    </g>
</svg>