<?xml version="1.0" encoding="UTF-8"?>
<svg width="60px" height="35px" viewBox="0 0 60 35" version="1.1" xmlns="http://www.w3.org/2000/svg" xmlns:xlink="http://www.w3.org/1999/xlink">
    <!-- Generator: Sketch 55.1 (78136) - https://sketchapp.com -->
    <title>PayPal</title>
    <desc>Created with Sketch.</desc>
    <g id="Page-1" stroke="none" stroke-width="1" fill="none" fill-rule="evenodd">
        <g id="Sendiroo_4" transform="translate(-1216.000000, -3128.000000)">
            <g id="PayPal" transform="translate(1216.000000, 3128.000000)">
                <g id="Group-47" stroke="#D4E5F1">
                    <g id="Group-22">
                        <rect id="Rectangle" x="0.5" y="0.5" width="59" height="34" rx="3"></rect>
                    </g>
                </g>
                <g id="paypal-(1)" transform="translate(11.000000, 12.000000)" fill-rule="nonzero">
                    <path d="M26.0826923,0.867307692 L23.2057692,0.867307692 C23.0365385,0.867307692 22.8673077,1.03653846 22.7826923,1.20576923 L21.5980769,8.65192308 C21.5980769,8.82115385 21.6826923,8.90576923 21.8519231,8.90576923 L23.375,8.90576923 C23.5442308,8.90576923 23.6288462,8.82115385 23.6288462,8.65192308 L23.9673077,6.53653846 C23.9673077,6.36730769 24.1365385,6.19807692 24.3903846,6.19807692 L25.3211538,6.19807692 C27.2673077,6.19807692 28.3673077,5.26730769 28.6211538,3.40576923 C28.7903846,2.64423077 28.6211538,1.96730769 28.2826923,1.54423077 C27.775,1.12115385 27.0134615,0.867307692 26.0826923,0.867307692 M26.4211538,3.65961538 C26.2519231,4.675 25.4903846,4.675 24.7288462,4.675 L24.2211538,4.675 L24.5596154,2.72884615 C24.5596154,2.64423077 24.6442308,2.55961538 24.8134615,2.55961538 L24.9826923,2.55961538 C25.4903846,2.55961538 25.9980769,2.55961538 26.2519231,2.89807692 C26.4211538,2.98269231 26.4211538,3.23653846 26.4211538,3.65961538" id="Shape" fill="#139AD6"></path>
                    <g id="Group" transform="translate(0.846154, 0.846154)" fill="#263B80">
                        <path d="M4.50576923,0.0211538462 L1.62884615,0.0211538462 C1.45961538,0.0211538462 1.29038462,0.190384615 1.20576923,0.359615385 L0.0211538462,7.80576923 C0.0211538462,7.975 0.105769231,8.05961538 0.275,8.05961538 L1.62884615,8.05961538 C1.79807692,8.05961538 1.96730769,7.89038462 2.05192308,7.72115385 L2.39038462,5.69038462 C2.39038462,5.52115385 2.55961538,5.35192308 2.81346154,5.35192308 L3.74423077,5.35192308 C5.69038462,5.35192308 6.79038462,4.42115385 7.04423077,2.55961538 C7.21346154,1.79807692 7.04423077,1.12115385 6.70576923,0.698076923 C6.19807692,0.275 5.52115385,0.0211538462 4.50576923,0.0211538462 M4.84423077,2.81346154 C4.675,3.82884615 3.91346154,3.82884615 3.15192308,3.82884615 L2.72884615,3.82884615 L3.06730769,1.88269231 C3.06730769,1.79807692 3.15192308,1.71346154 3.32115385,1.71346154 L3.49038462,1.71346154 C3.99807692,1.71346154 4.50576923,1.71346154 4.75961538,2.05192308 C4.84423077,2.13653846 4.92884615,2.39038462 4.84423077,2.81346154" id="Shape"></path>
                        <path d="M13.2211538,2.72884615 L11.8673077,2.72884615 C11.7826923,2.72884615 11.6134615,2.81346154 11.6134615,2.89807692 L11.5288462,3.32115385 L11.4442308,3.15192308 C11.1057692,2.72884615 10.5134615,2.55961538 9.83653846,2.55961538 C8.31346154,2.55961538 6.95961538,3.74423077 6.70576923,5.35192308 C6.53653846,6.19807692 6.79038462,6.95961538 7.21346154,7.46730769 C7.63653846,7.975 8.22884615,8.14423077 8.99038462,8.14423077 C10.2596154,8.14423077 10.9365385,7.38269231 10.9365385,7.38269231 L10.8519231,7.80576923 C10.8519231,7.975 10.9365385,8.05961538 11.1057692,8.05961538 L12.375,8.05961538 C12.5442308,8.05961538 12.7134615,7.89038462 12.7980769,7.72115385 L13.5596154,2.98269231 C13.475,2.89807692 13.3057692,2.72884615 13.2211538,2.72884615 M11.275,5.43653846 C11.1057692,6.19807692 10.5134615,6.79038462 9.66730769,6.79038462 C9.24423077,6.79038462 8.90576923,6.62115385 8.73653846,6.45192308 C8.56730769,6.19807692 8.48269231,5.85961538 8.48269231,5.43653846 C8.56730769,4.675 9.24423077,4.08269231 10.0057692,4.08269231 C10.4288462,4.08269231 10.6826923,4.25192308 10.9365385,4.42115385 C11.1903846,4.675 11.275,5.09807692 11.275,5.43653846" id="Shape"></path>
                    </g>
                    <path d="M34.7134615,3.575 L33.3596154,3.575 C33.275,3.575 33.1057692,3.65961538 33.1057692,3.74423077 L33.0211538,4.16730769 L32.9365385,3.99807692 C32.5980769,3.575 32.0057692,3.40576923 31.3288462,3.40576923 C29.8057692,3.40576923 28.4519231,4.59038462 28.1980769,6.19807692 C28.0288462,7.04423077 28.2826923,7.80576923 28.7057692,8.31346154 C29.1288462,8.82115385 29.7211538,8.99038462 30.4826923,8.99038462 C31.7519231,8.99038462 32.4288462,8.22884615 32.4288462,8.22884615 L32.3442308,8.65192308 C32.3442308,8.82115385 32.4288462,8.90576923 32.5980769,8.90576923 L33.8673077,8.90576923 C34.0365385,8.90576923 34.2057692,8.73653846 34.2903846,8.56730769 L35.0519231,3.82884615 C34.9673077,3.74423077 34.8826923,3.575 34.7134615,3.575 M32.7673077,6.28269231 C32.5980769,7.04423077 32.0057692,7.63653846 31.1596154,7.63653846 C30.7365385,7.63653846 30.3980769,7.46730769 30.2288462,7.29807692 C30.0596154,7.04423077 29.975,6.70576923 29.975,6.28269231 C30.0596154,5.52115385 30.7365385,4.92884615 31.4980769,4.92884615 C31.9211538,4.92884615 32.175,5.09807692 32.4288462,5.26730769 C32.7673077,5.52115385 32.8519231,5.94423077 32.7673077,6.28269231" id="Shape" fill="#139AD6"></path>
                    <path d="M21.4288462,3.575 L19.9903846,3.575 C19.8211538,3.575 19.7365385,3.65961538 19.6519231,3.74423077 L17.7903846,6.62115385 L16.9442308,3.91346154 C16.8596154,3.74423077 16.775,3.65961538 16.5211538,3.65961538 L15.1673077,3.65961538 C14.9980769,3.65961538 14.9134615,3.82884615 14.9134615,3.99807692 L16.4365385,8.48269231 L14.9980769,10.5134615 C14.9134615,10.6826923 14.9980769,10.9365385 15.1673077,10.9365385 L16.5211538,10.9365385 C16.6903846,10.9365385 16.775,10.8519231 16.8596154,10.7673077 L21.5134615,4.08269231 C21.7673077,3.82884615 21.5980769,3.575 21.4288462,3.575" id="Path" fill="#263B80"></path>
                    <path d="M36.3211538,1.12115385 L35.1365385,8.73653846 C35.1365385,8.90576923 35.2211538,8.99038462 35.3903846,8.99038462 L36.575,8.99038462 C36.7442308,8.99038462 36.9134615,8.82115385 36.9980769,8.65192308 L38.1826923,1.20576923 C38.1826923,1.03653846 38.0980769,0.951923077 37.9288462,0.951923077 L36.575,0.951923077 C36.4903846,0.867307692 36.4057692,0.951923077 36.3211538,1.12115385" id="Path" fill="#139AD6"></path>
                </g>
            </g>
        </g>
    </g>
</svg>